%TF.GenerationSoftware,KiCad,Pcbnew,(6.0.10)*%
%TF.CreationDate,2023-08-09T19:07:30-05:00*%
%TF.ProjectId,Keypad,4b657970-6164-42e6-9b69-6361645f7063,rev?*%
%TF.SameCoordinates,Original*%
%TF.FileFunction,Copper,L1,Top*%
%TF.FilePolarity,Positive*%
%FSLAX46Y46*%
G04 Gerber Fmt 4.6, Leading zero omitted, Abs format (unit mm)*
G04 Created by KiCad (PCBNEW (6.0.10)) date 2023-08-09 19:07:30*
%MOMM*%
%LPD*%
G01*
G04 APERTURE LIST*
G04 Aperture macros list*
%AMRoundRect*
0 Rectangle with rounded corners*
0 $1 Rounding radius*
0 $2 $3 $4 $5 $6 $7 $8 $9 X,Y pos of 4 corners*
0 Add a 4 corners polygon primitive as box body*
4,1,4,$2,$3,$4,$5,$6,$7,$8,$9,$2,$3,0*
0 Add four circle primitives for the rounded corners*
1,1,$1+$1,$2,$3*
1,1,$1+$1,$4,$5*
1,1,$1+$1,$6,$7*
1,1,$1+$1,$8,$9*
0 Add four rect primitives between the rounded corners*
20,1,$1+$1,$2,$3,$4,$5,0*
20,1,$1+$1,$4,$5,$6,$7,0*
20,1,$1+$1,$6,$7,$8,$9,0*
20,1,$1+$1,$8,$9,$2,$3,0*%
G04 Aperture macros list end*
%TA.AperFunction,SMDPad,CuDef*%
%ADD10R,0.900000X1.200000*%
%TD*%
%TA.AperFunction,SMDPad,CuDef*%
%ADD11RoundRect,0.200000X-0.275000X0.200000X-0.275000X-0.200000X0.275000X-0.200000X0.275000X0.200000X0*%
%TD*%
%TA.AperFunction,SMDPad,CuDef*%
%ADD12R,1.600000X1.400000*%
%TD*%
%TA.AperFunction,ComponentPad*%
%ADD13R,1.600000X1.600000*%
%TD*%
%TA.AperFunction,ComponentPad*%
%ADD14O,1.600000X1.600000*%
%TD*%
%TA.AperFunction,ViaPad*%
%ADD15C,0.800000*%
%TD*%
%TA.AperFunction,Conductor*%
%ADD16C,0.250000*%
%TD*%
G04 APERTURE END LIST*
D10*
%TO.P,D2,1,K*%
%TO.N,Net-(D2-Pad1)*%
X119761000Y-67945000D03*
%TO.P,D2,2,A*%
%TO.N,Net-(D10-Pad2)*%
X123063000Y-67945000D03*
%TD*%
D11*
%TO.P,R1_330,1*%
%TO.N,Net-(R1_330-Pad1)*%
X160782000Y-81598000D03*
%TO.P,R1_330,2*%
%TO.N,Net-(D12-Pad2)*%
X160782000Y-83248000D03*
%TD*%
D10*
%TO.P,D4,1,K*%
%TO.N,Net-(D4-Pad1)*%
X119634000Y-88138000D03*
%TO.P,D4,2,A*%
%TO.N,Net-(D12-Pad2)*%
X122936000Y-88138000D03*
%TD*%
%TO.P,D15,1,K*%
%TO.N,Net-(D15-Pad1)*%
X152019000Y-77978000D03*
%TO.P,D15,2,A*%
%TO.N,Net-(D11-Pad2)*%
X155321000Y-77978000D03*
%TD*%
D12*
%TO.P,SW10,1,1*%
%TO.N,Net-(D10-Pad1)*%
X146475000Y-61238000D03*
X139275000Y-61238000D03*
%TO.P,SW10,2,2*%
%TO.N,Net-(SW10-Pad2)*%
X139275000Y-64238000D03*
X146475000Y-64238000D03*
%TD*%
%TO.P,SW2,1,1*%
%TO.N,Net-(D2-Pad1)*%
X117348000Y-61214000D03*
X124548000Y-61214000D03*
%TO.P,SW2,2,2*%
%TO.N,Net-(SW1-Pad2)*%
X124548000Y-64214000D03*
X117348000Y-64214000D03*
%TD*%
D11*
%TO.P,R6_1K1,1*%
%TO.N,Net-(R5_1K1-Pad1)*%
X113157000Y-65723000D03*
%TO.P,R6_1K1,2*%
%TO.N,Net-(D10-Pad2)*%
X113157000Y-67373000D03*
%TD*%
D12*
%TO.P,SW15,1,1*%
%TO.N,Net-(D15-Pad1)*%
X150114000Y-71525000D03*
X157314000Y-71525000D03*
%TO.P,SW15,2,2*%
%TO.N,Net-(SW13-Pad2)*%
X150114000Y-74525000D03*
X157314000Y-74525000D03*
%TD*%
D10*
%TO.P,D9,1,K*%
%TO.N,Net-(D9-Pad1)*%
X141097000Y-57404000D03*
%TO.P,D9,2,A*%
%TO.N,Net-(D1-Pad2)*%
X144399000Y-57404000D03*
%TD*%
D12*
%TO.P,SW14,1,1*%
%TO.N,Net-(D14-Pad1)*%
X157270000Y-61238000D03*
X150070000Y-61238000D03*
%TO.P,SW14,2,2*%
%TO.N,Net-(SW13-Pad2)*%
X157270000Y-64238000D03*
X150070000Y-64238000D03*
%TD*%
%TO.P,SW8,1,1*%
%TO.N,Net-(D8-Pad1)*%
X128397000Y-81685000D03*
X135597000Y-81685000D03*
%TO.P,SW8,2,2*%
%TO.N,Net-(SW5-Pad2)*%
X135597000Y-84685000D03*
X128397000Y-84685000D03*
%TD*%
D11*
%TO.P,R2_330,1*%
%TO.N,Net-(R2_330-Pad1)*%
X160782000Y-71311000D03*
%TO.P,R2_330,2*%
%TO.N,Net-(D11-Pad2)*%
X160782000Y-72961000D03*
%TD*%
%TO.P,R3_330,1*%
%TO.N,Net-(R3_330-Pad1)*%
X160782000Y-61913000D03*
%TO.P,R3_330,2*%
%TO.N,Net-(D10-Pad2)*%
X160782000Y-63563000D03*
%TD*%
D12*
%TO.P,SW7,1,1*%
%TO.N,Net-(D7-Pad1)*%
X128397000Y-71525000D03*
X135597000Y-71525000D03*
%TO.P,SW7,2,2*%
%TO.N,Net-(SW5-Pad2)*%
X128397000Y-74525000D03*
X135597000Y-74525000D03*
%TD*%
D10*
%TO.P,D1,1,K*%
%TO.N,Net-(D1-Pad1)*%
X119634000Y-57404000D03*
%TO.P,D1,2,A*%
%TO.N,Net-(D1-Pad2)*%
X122936000Y-57404000D03*
%TD*%
D12*
%TO.P,SW13,1,1*%
%TO.N,Net-(D13-Pad1)*%
X157270000Y-50570000D03*
X150070000Y-50570000D03*
%TO.P,SW13,2,2*%
%TO.N,Net-(SW13-Pad2)*%
X150070000Y-53570000D03*
X157270000Y-53570000D03*
%TD*%
D10*
%TO.P,D13,1,K*%
%TO.N,Net-(D13-Pad1)*%
X152019000Y-57531000D03*
%TO.P,D13,2,A*%
%TO.N,Net-(D1-Pad2)*%
X155321000Y-57531000D03*
%TD*%
D11*
%TO.P,R5_1K1,1*%
%TO.N,Net-(R5_1K1-Pad1)*%
X113157000Y-56071000D03*
%TO.P,R5_1K1,2*%
%TO.N,Net-(D1-Pad2)*%
X113157000Y-57721000D03*
%TD*%
D10*
%TO.P,D7,1,K*%
%TO.N,Net-(D7-Pad1)*%
X130556000Y-77978000D03*
%TO.P,D7,2,A*%
%TO.N,Net-(D11-Pad2)*%
X133858000Y-77978000D03*
%TD*%
%TO.P,D5,1,K*%
%TO.N,Net-(D5-Pad1)*%
X130302000Y-57404000D03*
%TO.P,D5,2,A*%
%TO.N,Net-(D1-Pad2)*%
X133604000Y-57404000D03*
%TD*%
D12*
%TO.P,SW6,1,1*%
%TO.N,Net-(D6-Pad1)*%
X135597000Y-61214000D03*
X128397000Y-61214000D03*
%TO.P,SW6,2,2*%
%TO.N,Net-(SW5-Pad2)*%
X135597000Y-64214000D03*
X128397000Y-64214000D03*
%TD*%
D13*
%TO.P,U1,1,NC*%
%TO.N,unconnected-(U1-Pad1)*%
X124331000Y-94359000D03*
D14*
%TO.P,U1,2,IOREF*%
%TO.N,unconnected-(U1-Pad2)*%
X126871000Y-94359000D03*
%TO.P,U1,3,~{RESET}*%
%TO.N,unconnected-(U1-Pad3)*%
X129411000Y-94359000D03*
%TO.P,U1,4,3V3*%
%TO.N,unconnected-(U1-Pad4)*%
X131951000Y-94359000D03*
%TO.P,U1,5,+5V*%
%TO.N,unconnected-(U1-Pad5)*%
X134491000Y-94359000D03*
%TO.P,U1,6,GND*%
%TO.N,unconnected-(U1-Pad6)*%
X137031000Y-94359000D03*
%TO.P,U1,7,GND*%
%TO.N,unconnected-(U1-Pad7)*%
X139571000Y-94359000D03*
%TO.P,U1,8,VIN*%
%TO.N,unconnected-(U1-Pad8)*%
X142111000Y-94359000D03*
%TO.P,U1,9,A0*%
%TO.N,unconnected-(U1-Pad9)*%
X147191000Y-94359000D03*
%TO.P,U1,10,A1*%
%TO.N,unconnected-(U1-Pad10)*%
X149731000Y-94359000D03*
%TO.P,U1,11,A2*%
%TO.N,unconnected-(U1-Pad11)*%
X152271000Y-94359000D03*
%TO.P,U1,12,A3*%
%TO.N,unconnected-(U1-Pad12)*%
X154811000Y-94359000D03*
%TO.P,U1,13,SDA/A4*%
%TO.N,unconnected-(U1-Pad13)*%
X157351000Y-94359000D03*
%TO.P,U1,14,SCL/A5*%
%TO.N,unconnected-(U1-Pad14)*%
X159891000Y-94359000D03*
%TO.P,U1,15,D0/RX*%
%TO.N,Net-(R1_330-Pad1)*%
X159891000Y-46099000D03*
%TO.P,U1,16,D1/TX*%
%TO.N,Net-(R2_330-Pad1)*%
X157351000Y-46099000D03*
%TO.P,U1,17,D2*%
%TO.N,Net-(R3_330-Pad1)*%
X154811000Y-46099000D03*
%TO.P,U1,18,D3*%
%TO.N,Net-(R4_330-Pad1)*%
X152271000Y-46099000D03*
%TO.P,U1,19,D4*%
%TO.N,Net-(SW13-Pad2)*%
X149731000Y-46099000D03*
%TO.P,U1,20,D5*%
%TO.N,Net-(SW10-Pad2)*%
X147191000Y-46099000D03*
%TO.P,U1,21,D6*%
%TO.N,Net-(SW5-Pad2)*%
X144651000Y-46099000D03*
%TO.P,U1,22,D7*%
%TO.N,Net-(SW1-Pad2)*%
X142111000Y-46099000D03*
%TO.P,U1,23,D8*%
%TO.N,unconnected-(U1-Pad23)*%
X138051000Y-46099000D03*
%TO.P,U1,24,D9*%
%TO.N,unconnected-(U1-Pad24)*%
X135511000Y-46099000D03*
%TO.P,U1,25,D10*%
%TO.N,unconnected-(U1-Pad25)*%
X132971000Y-46099000D03*
%TO.P,U1,26,D11*%
%TO.N,unconnected-(U1-Pad26)*%
X130431000Y-46099000D03*
%TO.P,U1,27,D12*%
%TO.N,unconnected-(U1-Pad27)*%
X127891000Y-46099000D03*
%TO.P,U1,28,D13*%
%TO.N,unconnected-(U1-Pad28)*%
X125351000Y-46099000D03*
%TO.P,U1,29,GND*%
%TO.N,Net-(R5_1K1-Pad1)*%
X122811000Y-46099000D03*
%TO.P,U1,30,AREF*%
%TO.N,unconnected-(U1-Pad30)*%
X120271000Y-46099000D03*
%TO.P,U1,31,SDA/A4*%
%TO.N,unconnected-(U1-Pad31)*%
X117731000Y-46099000D03*
%TO.P,U1,32,SCL/A5*%
%TO.N,unconnected-(U1-Pad32)*%
X115191000Y-46099000D03*
%TD*%
D10*
%TO.P,D3,1,K*%
%TO.N,Net-(D3-Pad1)*%
X119634000Y-77978000D03*
%TO.P,D3,2,A*%
%TO.N,Net-(D11-Pad2)*%
X122936000Y-77978000D03*
%TD*%
%TO.P,D12,1,K*%
%TO.N,Net-(D12-Pad1)*%
X141351000Y-88138000D03*
%TO.P,D12,2,A*%
%TO.N,Net-(D12-Pad2)*%
X144653000Y-88138000D03*
%TD*%
%TO.P,D16,1,K*%
%TO.N,Net-(D16-Pad1)*%
X152019000Y-88138000D03*
%TO.P,D16,2,A*%
%TO.N,Net-(D12-Pad2)*%
X155321000Y-88138000D03*
%TD*%
%TO.P,D6,1,K*%
%TO.N,Net-(D6-Pad1)*%
X130302000Y-67945000D03*
%TO.P,D6,2,A*%
%TO.N,Net-(D10-Pad2)*%
X133604000Y-67945000D03*
%TD*%
D12*
%TO.P,SW11,1,1*%
%TO.N,Net-(D11-Pad1)*%
X146475000Y-71525000D03*
X139275000Y-71525000D03*
%TO.P,SW11,2,2*%
%TO.N,Net-(SW10-Pad2)*%
X139275000Y-74525000D03*
X146475000Y-74525000D03*
%TD*%
%TO.P,SW12,1,1*%
%TO.N,Net-(D12-Pad1)*%
X139275000Y-81685000D03*
X146475000Y-81685000D03*
%TO.P,SW12,2,2*%
%TO.N,Net-(SW10-Pad2)*%
X139275000Y-84685000D03*
X146475000Y-84685000D03*
%TD*%
%TO.P,SW5,1,1*%
%TO.N,Net-(D5-Pad1)*%
X135553000Y-50594000D03*
X128353000Y-50594000D03*
%TO.P,SW5,2,2*%
%TO.N,Net-(SW5-Pad2)*%
X128353000Y-53594000D03*
X135553000Y-53594000D03*
%TD*%
%TO.P,SW9,1,1*%
%TO.N,Net-(D9-Pad1)*%
X146392000Y-50697000D03*
X139192000Y-50697000D03*
%TO.P,SW9,2,2*%
%TO.N,Net-(SW10-Pad2)*%
X146392000Y-53697000D03*
X139192000Y-53697000D03*
%TD*%
D11*
%TO.P,R7_1K1,1*%
%TO.N,Net-(R5_1K1-Pad1)*%
X113157000Y-76645000D03*
%TO.P,R7_1K1,2*%
%TO.N,Net-(D11-Pad2)*%
X113157000Y-78295000D03*
%TD*%
D12*
%TO.P,SW16,1,1*%
%TO.N,Net-(D16-Pad1)*%
X157270000Y-81685000D03*
X150070000Y-81685000D03*
%TO.P,SW16,2,2*%
%TO.N,Net-(SW13-Pad2)*%
X150070000Y-84685000D03*
X157270000Y-84685000D03*
%TD*%
D10*
%TO.P,D10,1,K*%
%TO.N,Net-(D10-Pad1)*%
X141224000Y-67945000D03*
%TO.P,D10,2,A*%
%TO.N,Net-(D10-Pad2)*%
X144526000Y-67945000D03*
%TD*%
%TO.P,D8,1,K*%
%TO.N,Net-(D8-Pad1)*%
X130556000Y-88138000D03*
%TO.P,D8,2,A*%
%TO.N,Net-(D12-Pad2)*%
X133858000Y-88138000D03*
%TD*%
D11*
%TO.P,R4_330,1*%
%TO.N,Net-(R4_330-Pad1)*%
X160782000Y-51372000D03*
%TO.P,R4_330,2*%
%TO.N,Net-(D1-Pad2)*%
X160782000Y-53022000D03*
%TD*%
%TO.P,R8_1K1,1*%
%TO.N,Net-(R5_1K1-Pad1)*%
X113157000Y-86932000D03*
%TO.P,R8_1K1,2*%
%TO.N,Net-(D12-Pad2)*%
X113157000Y-88582000D03*
%TD*%
D10*
%TO.P,D11,1,K*%
%TO.N,Net-(D11-Pad1)*%
X141478000Y-77978000D03*
%TO.P,D11,2,A*%
%TO.N,Net-(D11-Pad2)*%
X144780000Y-77978000D03*
%TD*%
D12*
%TO.P,SW1,1,1*%
%TO.N,Net-(D1-Pad1)*%
X124587000Y-50594000D03*
X117387000Y-50594000D03*
%TO.P,SW1,2,2*%
%TO.N,Net-(SW1-Pad2)*%
X117387000Y-53594000D03*
X124587000Y-53594000D03*
%TD*%
D10*
%TO.P,D14,1,K*%
%TO.N,Net-(D14-Pad1)*%
X152019000Y-67945000D03*
%TO.P,D14,2,A*%
%TO.N,Net-(D10-Pad2)*%
X155321000Y-67945000D03*
%TD*%
D12*
%TO.P,SW3,1,1*%
%TO.N,Net-(D3-Pad1)*%
X117387000Y-71501000D03*
X124587000Y-71501000D03*
%TO.P,SW3,2,2*%
%TO.N,Net-(SW1-Pad2)*%
X124587000Y-74501000D03*
X117387000Y-74501000D03*
%TD*%
%TO.P,SW4,1,1*%
%TO.N,Net-(D4-Pad1)*%
X117304000Y-81685000D03*
X124504000Y-81685000D03*
%TO.P,SW4,2,2*%
%TO.N,Net-(SW1-Pad2)*%
X117304000Y-84685000D03*
X124504000Y-84685000D03*
%TD*%
D15*
%TO.N,Net-(SW1-Pad2)*%
X124657400Y-55188400D03*
X124587000Y-65913000D03*
X124460000Y-76073000D03*
X124460000Y-86360000D03*
%TO.N,Net-(SW10-Pad2)*%
X146431000Y-55245000D03*
X146431000Y-65786000D03*
X146431000Y-86360000D03*
X146431000Y-76073000D03*
%TO.N,Net-(SW5-Pad2)*%
X135509000Y-76073000D03*
X135509000Y-86360000D03*
X135636000Y-65786000D03*
X135509000Y-55245000D03*
%TO.N,Net-(SW13-Pad2)*%
X157353000Y-55245000D03*
X157226000Y-65659000D03*
X157226000Y-86360000D03*
X157245600Y-76053400D03*
%TD*%
D16*
%TO.N,Net-(R2_330-Pad1)*%
X157351000Y-47369000D02*
X157351000Y-46099000D01*
X157353000Y-47371000D02*
X157351000Y-47369000D01*
X163068000Y-47371000D02*
X157353000Y-47371000D01*
X163068000Y-69088000D02*
X163068000Y-47371000D01*
X160782000Y-71374000D02*
X163068000Y-69088000D01*
%TO.N,Net-(R3_330-Pad1)*%
X162052000Y-48006000D02*
X154686000Y-48006000D01*
X162052000Y-59436000D02*
X162052000Y-48006000D01*
X160782000Y-60706000D02*
X162052000Y-59436000D01*
X160782000Y-61976000D02*
X160782000Y-60706000D01*
X154686000Y-48006000D02*
X154686000Y-46736000D01*
%TO.N,Net-(R4_330-Pad1)*%
X152146000Y-48641000D02*
X152146000Y-46736000D01*
X160782000Y-48641000D02*
X152146000Y-48641000D01*
X160782000Y-51308000D02*
X160782000Y-48641000D01*
%TO.N,Net-(R1_330-Pad1)*%
X159893000Y-46101000D02*
X159891000Y-46099000D01*
X164084000Y-46101000D02*
X159893000Y-46101000D01*
X164084000Y-78296000D02*
X164084000Y-46101000D01*
X160782000Y-81598000D02*
X164084000Y-78296000D01*
%TO.N,Net-(D1-Pad1)*%
X119634000Y-57404000D02*
X115951000Y-57404000D01*
X115951000Y-57404000D02*
X115951000Y-50570000D01*
X115951000Y-50570000D02*
X124675000Y-50570000D01*
%TO.N,Net-(D1-Pad2)*%
X157480000Y-59436000D02*
X160782000Y-59436000D01*
X135763000Y-59436000D02*
X146431000Y-59436000D01*
X135763000Y-59436000D02*
X135763000Y-57404000D01*
X146456400Y-59410600D02*
X146456400Y-57429400D01*
X146431000Y-59436000D02*
X157480000Y-59436000D01*
X157480000Y-59436000D02*
X157480000Y-57531000D01*
X113157000Y-59436000D02*
X124333000Y-59436000D01*
X135763000Y-57404000D02*
X133604000Y-57404000D01*
X124333000Y-59436000D02*
X135763000Y-59436000D01*
X124333000Y-57404000D02*
X122936000Y-57404000D01*
X160782000Y-59436000D02*
X160782000Y-53022000D01*
X146456400Y-57429400D02*
X146431000Y-57404000D01*
X157480000Y-57531000D02*
X155321000Y-57531000D01*
X146431000Y-57404000D02*
X144399000Y-57404000D01*
X124333000Y-57404000D02*
X124333000Y-59436000D01*
X113157000Y-57721000D02*
X113157000Y-59436000D01*
X146431000Y-59436000D02*
X146456400Y-59410600D01*
%TO.N,Net-(D11-Pad2)*%
X146558000Y-77978000D02*
X146558000Y-79756000D01*
X133858000Y-77978000D02*
X135636000Y-77978000D01*
X146558000Y-79756000D02*
X156845000Y-79756000D01*
X113157000Y-78295000D02*
X113157000Y-79756000D01*
X124714000Y-79756000D02*
X135636000Y-79756000D01*
X135636000Y-79756000D02*
X146558000Y-79756000D01*
X156845000Y-79756000D02*
X160782000Y-79756000D01*
X135636000Y-77978000D02*
X135636000Y-79756000D01*
X156845000Y-77978000D02*
X156845000Y-79756000D01*
X155321000Y-77978000D02*
X156845000Y-77978000D01*
X144780000Y-77978000D02*
X146558000Y-77978000D01*
X160782000Y-79756000D02*
X160782000Y-72961000D01*
X122936000Y-77978000D02*
X124714000Y-77978000D01*
X124714000Y-77978000D02*
X124714000Y-79756000D01*
X113157000Y-79756000D02*
X124714000Y-79756000D01*
%TO.N,Net-(D5-Pad1)*%
X128524000Y-50594000D02*
X135724000Y-50594000D01*
X126492000Y-57404000D02*
X126492000Y-50570000D01*
X126492000Y-50570000D02*
X128353000Y-50570000D01*
X130302000Y-57404000D02*
X126492000Y-57404000D01*
%TO.N,Net-(D9-Pad1)*%
X141097000Y-57404000D02*
X137414000Y-57404000D01*
X139192000Y-50697000D02*
X146392000Y-50697000D01*
X137414000Y-50697000D02*
X139402000Y-50697000D01*
X137414000Y-57404000D02*
X137414000Y-50697000D01*
%TO.N,Net-(D15-Pad1)*%
X152019000Y-77978000D02*
X148209000Y-77978000D01*
X150114000Y-71525000D02*
X157314000Y-71525000D01*
X148209000Y-71525000D02*
X150114000Y-71525000D01*
X148209000Y-77978000D02*
X148209000Y-71525000D01*
%TO.N,Net-(R5_1K1-Pad1)*%
X111760000Y-86932000D02*
X113157000Y-86932000D01*
X111760000Y-76645000D02*
X113157000Y-76645000D01*
X111824000Y-56071000D02*
X111760000Y-56007000D01*
X120781000Y-48641000D02*
X122686000Y-46736000D01*
X111760000Y-62992000D02*
X111760000Y-56007000D01*
X113157000Y-56071000D02*
X111824000Y-56071000D01*
X111760000Y-56007000D02*
X111760000Y-48641000D01*
X111760000Y-62992000D02*
X111760000Y-73279000D01*
X111760000Y-73279000D02*
X111760000Y-86932000D01*
X111760000Y-48641000D02*
X120781000Y-48641000D01*
X111760000Y-65723000D02*
X113157000Y-65723000D01*
%TO.N,Net-(SW1-Pad2)*%
X124460000Y-76073000D02*
X124460000Y-74628000D01*
X124587000Y-53594000D02*
X117387000Y-53594000D01*
X124587000Y-74501000D02*
X117387000Y-74501000D01*
X124657400Y-55188400D02*
X124657400Y-53664400D01*
X124657400Y-53664400D02*
X124587000Y-53594000D01*
X124460000Y-84729000D02*
X124504000Y-84685000D01*
X124460000Y-74628000D02*
X124587000Y-74501000D01*
X124587000Y-65913000D02*
X124587000Y-64253000D01*
X124587000Y-64253000D02*
X124548000Y-64214000D01*
X124548000Y-64214000D02*
X117348000Y-64214000D01*
X124504000Y-84685000D02*
X117304000Y-84685000D01*
X124460000Y-86360000D02*
X124460000Y-84729000D01*
%TO.N,Net-(D13-Pad1)*%
X148209000Y-57531000D02*
X148209000Y-50570000D01*
X150070000Y-50570000D02*
X157270000Y-50570000D01*
X148209000Y-50570000D02*
X150070000Y-50570000D01*
X152019000Y-57531000D02*
X148209000Y-57531000D01*
%TO.N,Net-(SW10-Pad2)*%
X146475000Y-84685000D02*
X139275000Y-84685000D01*
X146431000Y-84729000D02*
X146475000Y-84685000D01*
X146431000Y-64282000D02*
X146475000Y-64238000D01*
X146431000Y-53736000D02*
X146392000Y-53697000D01*
X146431000Y-74569000D02*
X146475000Y-74525000D01*
X146431000Y-86360000D02*
X146431000Y-84729000D01*
X146431000Y-65786000D02*
X146431000Y-64282000D01*
X146475000Y-74525000D02*
X139275000Y-74525000D01*
X146431000Y-55245000D02*
X146431000Y-53736000D01*
X146392000Y-53697000D02*
X139192000Y-53697000D01*
X146475000Y-64238000D02*
X139275000Y-64238000D01*
X146431000Y-76073000D02*
X146431000Y-74569000D01*
%TO.N,Net-(D2-Pad1)*%
X115824000Y-61238000D02*
X117304000Y-61238000D01*
X119761000Y-67945000D02*
X115824000Y-67945000D01*
X115824000Y-67945000D02*
X115824000Y-61238000D01*
X117348000Y-61214000D02*
X124548000Y-61214000D01*
%TO.N,Net-(D10-Pad2)*%
X157099000Y-69596000D02*
X160782000Y-69596000D01*
X113157000Y-69596000D02*
X124587000Y-69596000D01*
X157099000Y-67945000D02*
X155321000Y-67945000D01*
X124587000Y-67945000D02*
X124587000Y-69596000D01*
X144526000Y-67945000D02*
X146050000Y-67945000D01*
X135382000Y-67945000D02*
X135382000Y-69596000D01*
X123063000Y-67945000D02*
X124587000Y-67945000D01*
X146050000Y-67945000D02*
X146050000Y-69596000D01*
X157099000Y-69596000D02*
X157099000Y-67945000D01*
X135382000Y-69596000D02*
X146050000Y-69596000D01*
X146050000Y-69596000D02*
X157099000Y-69596000D01*
X133604000Y-67945000D02*
X135382000Y-67945000D01*
X124587000Y-69596000D02*
X135382000Y-69596000D01*
X160782000Y-69596000D02*
X160782000Y-63563000D01*
X113157000Y-67373000D02*
X113157000Y-69596000D01*
%TO.N,Net-(D3-Pad1)*%
X117387000Y-71501000D02*
X124587000Y-71501000D01*
X115951000Y-71501000D02*
X117387000Y-71501000D01*
X115951000Y-77978000D02*
X115951000Y-71501000D01*
X119634000Y-77978000D02*
X115951000Y-77978000D01*
%TO.N,Net-(D4-Pad1)*%
X119634000Y-88138000D02*
X115951000Y-88138000D01*
X117304000Y-81685000D02*
X124504000Y-81685000D01*
X115951000Y-81685000D02*
X117304000Y-81685000D01*
X115951000Y-88138000D02*
X115951000Y-81685000D01*
%TO.N,Net-(D12-Pad2)*%
X160782000Y-90170000D02*
X160782000Y-83248000D01*
X113157000Y-90170000D02*
X124968000Y-90170000D01*
X155321000Y-88138000D02*
X157353000Y-88138000D01*
X146685000Y-88138000D02*
X146685000Y-90170000D01*
X113157000Y-88582000D02*
X113157000Y-90170000D01*
X146685000Y-90170000D02*
X157353000Y-90170000D01*
X124968000Y-88138000D02*
X124968000Y-90170000D01*
X122936000Y-88138000D02*
X124968000Y-88138000D01*
X144653000Y-88138000D02*
X146685000Y-88138000D01*
X133858000Y-88138000D02*
X135890000Y-88138000D01*
X157353000Y-90170000D02*
X160782000Y-90170000D01*
X157353000Y-88138000D02*
X157353000Y-90170000D01*
X135890000Y-88138000D02*
X135890000Y-90170000D01*
X135890000Y-90170000D02*
X146685000Y-90170000D01*
X124968000Y-90170000D02*
X135890000Y-90170000D01*
%TO.N,Net-(D6-Pad1)*%
X126492000Y-67945000D02*
X126492000Y-61214000D01*
X126492000Y-61214000D02*
X128397000Y-61214000D01*
X130302000Y-67945000D02*
X126492000Y-67945000D01*
X128397000Y-61214000D02*
X135597000Y-61214000D01*
%TO.N,Net-(D7-Pad1)*%
X126492000Y-77978000D02*
X126492000Y-71525000D01*
X128397000Y-71525000D02*
X135597000Y-71525000D01*
X126492000Y-71525000D02*
X128397000Y-71525000D01*
X130556000Y-77978000D02*
X126492000Y-77978000D01*
%TO.N,Net-(D8-Pad1)*%
X128397000Y-81685000D02*
X135597000Y-81685000D01*
X126492000Y-81685000D02*
X128397000Y-81685000D01*
X130556000Y-88138000D02*
X126492000Y-88138000D01*
X126492000Y-88138000D02*
X126492000Y-81685000D01*
%TO.N,Net-(D10-Pad1)*%
X137414000Y-61238000D02*
X139275000Y-61238000D01*
X139275000Y-61238000D02*
X146475000Y-61238000D01*
X137414000Y-67945000D02*
X137414000Y-61238000D01*
X141224000Y-67945000D02*
X137414000Y-67945000D01*
%TO.N,Net-(D11-Pad1)*%
X141478000Y-77978000D02*
X137414000Y-77978000D01*
X137414000Y-77978000D02*
X137414000Y-71525000D01*
X139275000Y-71525000D02*
X146475000Y-71525000D01*
X137414000Y-71525000D02*
X139275000Y-71525000D01*
%TO.N,Net-(D12-Pad1)*%
X139275000Y-81685000D02*
X146475000Y-81685000D01*
X141351000Y-88138000D02*
X137414000Y-88138000D01*
X137414000Y-81685000D02*
X139275000Y-81685000D01*
X137414000Y-88138000D02*
X137414000Y-81685000D01*
%TO.N,Net-(D14-Pad1)*%
X148209000Y-67945000D02*
X148209000Y-61238000D01*
X152019000Y-67945000D02*
X148209000Y-67945000D01*
X148209000Y-61238000D02*
X150070000Y-61238000D01*
X150070000Y-61238000D02*
X157270000Y-61238000D01*
%TO.N,Net-(D16-Pad1)*%
X152019000Y-88138000D02*
X148209000Y-88138000D01*
X148209000Y-88138000D02*
X148209000Y-81685000D01*
X150070000Y-81685000D02*
X157270000Y-81685000D01*
X148209000Y-81685000D02*
X150070000Y-81685000D01*
%TO.N,Net-(SW5-Pad2)*%
X135553000Y-53594000D02*
X128353000Y-53594000D01*
X135597000Y-84685000D02*
X128397000Y-84685000D01*
X135509000Y-84773000D02*
X135597000Y-84685000D01*
X135636000Y-65786000D02*
X135636000Y-64253000D01*
X135509000Y-76073000D02*
X135509000Y-74613000D01*
X135597000Y-74525000D02*
X128397000Y-74525000D01*
X135636000Y-64253000D02*
X135597000Y-64214000D01*
X135509000Y-74613000D02*
X135597000Y-74525000D01*
X135509000Y-86360000D02*
X135509000Y-84773000D01*
X135509000Y-53638000D02*
X135553000Y-53594000D01*
X135597000Y-64214000D02*
X128397000Y-64214000D01*
X135509000Y-55245000D02*
X135509000Y-53638000D01*
%TO.N,Net-(SW13-Pad2)*%
X157226000Y-65659000D02*
X157226000Y-64282000D01*
X157245600Y-74593400D02*
X157314000Y-74525000D01*
X157226000Y-84729000D02*
X157270000Y-84685000D01*
X157226000Y-86360000D02*
X157226000Y-84729000D01*
X157245600Y-76053400D02*
X157245600Y-74593400D01*
X157353000Y-55245000D02*
X157353000Y-53653000D01*
X157353000Y-53653000D02*
X157270000Y-53570000D01*
X157270000Y-84685000D02*
X150070000Y-84685000D01*
X157314000Y-74525000D02*
X150114000Y-74525000D01*
X157270000Y-64238000D02*
X150070000Y-64238000D01*
X157270000Y-53570000D02*
X150070000Y-53570000D01*
X157226000Y-64282000D02*
X157270000Y-64238000D01*
%TD*%
M02*
