M48
; DRILL file {KiCad (6.0.10)} date Sat Jan 21 21:44:57 2023
; FORMAT={-:-/ absolute / inch / decimal}
; #@! TF.CreationDate,2023-01-21T21:44:57-06:00
; #@! TF.GenerationSoftware,Kicad,Pcbnew,(6.0.10)
; #@! TF.FileFunction,Plated,1,2,PTH
FMAT,2
INCH
; #@! TA.AperFunction,Plated,PTH,ComponentDrill
T1C0.0276
; #@! TA.AperFunction,Plated,PTH,ComponentDrill
T2C0.0315
; #@! TA.AperFunction,Plated,PTH,ComponentDrill
T3C0.0354
; #@! TA.AperFunction,Plated,PTH,ComponentDrill
T4C0.0394
%
G90
G05
T1
X4.67Y-2.095
X4.685Y-2.854
X4.688Y-2.468
X4.689Y-3.246
X4.87Y-2.095
X4.885Y-2.854
X4.888Y-2.468
X4.889Y-3.246
X5.084Y-2.472
X5.094Y-2.085
X5.095Y-3.252
X5.096Y-2.862
X5.284Y-2.472
X5.294Y-2.085
X5.295Y-3.252
X5.296Y-2.862
X5.524Y-2.091
X5.524Y-2.48
X5.531Y-2.862
X5.531Y-3.257
X5.724Y-2.091
X5.724Y-2.48
X5.731Y-2.862
X5.731Y-3.257
X5.951Y-2.857
X5.951Y-3.257
X5.962Y-2.091
X5.968Y-2.484
X6.151Y-2.857
X6.151Y-3.257
X6.162Y-2.091
X6.168Y-2.484
T2
X4.475Y-2.08
X4.475Y-2.38
X4.475Y-2.48
X4.475Y-2.78
X4.475Y-2.885
X4.475Y-3.185
X4.475Y-3.3
X4.475Y-3.6
X6.33Y-2.02
X6.33Y-2.32
X6.33Y-2.44
X6.33Y-2.74
X6.33Y-2.84
X6.33Y-3.14
X6.33Y-3.245
X6.33Y-3.545
T3
X4.612Y-2.275
X4.621Y-3.437
X4.626Y-3.066
X4.629Y-2.67
X4.912Y-2.275
X4.921Y-3.437
X4.926Y-3.066
X4.929Y-2.67
X5.046Y-2.277
X5.051Y-2.667
X5.056Y-3.067
X5.056Y-3.437
X5.346Y-2.277
X5.351Y-2.667
X5.356Y-3.067
X5.356Y-3.437
X5.466Y-2.281
X5.476Y-2.672
X5.481Y-3.072
X5.481Y-3.437
X5.766Y-2.281
X5.776Y-2.672
X5.781Y-3.072
X5.781Y-3.437
X5.899Y-2.283
X5.901Y-2.672
X5.906Y-3.072
X5.906Y-3.437
X6.199Y-2.283
X6.201Y-2.672
X6.206Y-3.072
X6.206Y-3.437
T4
X4.5302Y-1.84
X4.6302Y-1.84
X4.7302Y-1.84
X4.8302Y-1.84
X4.89Y-3.74
X4.9302Y-1.84
X4.99Y-3.74
X5.0302Y-1.84
X5.09Y-3.74
X5.1302Y-1.84
X5.19Y-3.74
X5.2302Y-1.84
X5.29Y-3.74
X5.3302Y-1.84
X5.39Y-3.74
X5.4302Y-1.84
X5.49Y-3.74
X5.59Y-1.84
X5.59Y-3.74
X5.69Y-1.84
X5.79Y-1.84
X5.79Y-3.74
X5.89Y-1.84
X5.89Y-3.74
X5.99Y-1.84
X5.99Y-3.74
X6.09Y-1.84
X6.09Y-3.74
X6.19Y-1.84
X6.19Y-3.74
X6.29Y-1.84
X6.29Y-3.74
T0
M30
