%TF.GenerationSoftware,KiCad,Pcbnew,(6.0.10)*%
%TF.CreationDate,2023-08-09T19:07:30-05:00*%
%TF.ProjectId,Keypad,4b657970-6164-42e6-9b69-6361645f7063,rev?*%
%TF.SameCoordinates,Original*%
%TF.FileFunction,Copper,L2,Bot*%
%TF.FilePolarity,Positive*%
%FSLAX46Y46*%
G04 Gerber Fmt 4.6, Leading zero omitted, Abs format (unit mm)*
G04 Created by KiCad (PCBNEW (6.0.10)) date 2023-08-09 19:07:30*
%MOMM*%
%LPD*%
G01*
G04 APERTURE LIST*
%TA.AperFunction,ComponentPad*%
%ADD10R,1.600000X1.600000*%
%TD*%
%TA.AperFunction,ComponentPad*%
%ADD11O,1.600000X1.600000*%
%TD*%
%TA.AperFunction,ViaPad*%
%ADD12C,0.800000*%
%TD*%
%TA.AperFunction,Conductor*%
%ADD13C,0.250000*%
%TD*%
G04 APERTURE END LIST*
D10*
%TO.P,U1,1,NC*%
%TO.N,unconnected-(U1-Pad1)*%
X124331000Y-94359000D03*
D11*
%TO.P,U1,2,IOREF*%
%TO.N,unconnected-(U1-Pad2)*%
X126871000Y-94359000D03*
%TO.P,U1,3,~{RESET}*%
%TO.N,unconnected-(U1-Pad3)*%
X129411000Y-94359000D03*
%TO.P,U1,4,3V3*%
%TO.N,unconnected-(U1-Pad4)*%
X131951000Y-94359000D03*
%TO.P,U1,5,+5V*%
%TO.N,unconnected-(U1-Pad5)*%
X134491000Y-94359000D03*
%TO.P,U1,6,GND*%
%TO.N,unconnected-(U1-Pad6)*%
X137031000Y-94359000D03*
%TO.P,U1,7,GND*%
%TO.N,unconnected-(U1-Pad7)*%
X139571000Y-94359000D03*
%TO.P,U1,8,VIN*%
%TO.N,unconnected-(U1-Pad8)*%
X142111000Y-94359000D03*
%TO.P,U1,9,A0*%
%TO.N,unconnected-(U1-Pad9)*%
X147191000Y-94359000D03*
%TO.P,U1,10,A1*%
%TO.N,unconnected-(U1-Pad10)*%
X149731000Y-94359000D03*
%TO.P,U1,11,A2*%
%TO.N,unconnected-(U1-Pad11)*%
X152271000Y-94359000D03*
%TO.P,U1,12,A3*%
%TO.N,unconnected-(U1-Pad12)*%
X154811000Y-94359000D03*
%TO.P,U1,13,SDA/A4*%
%TO.N,unconnected-(U1-Pad13)*%
X157351000Y-94359000D03*
%TO.P,U1,14,SCL/A5*%
%TO.N,unconnected-(U1-Pad14)*%
X159891000Y-94359000D03*
%TO.P,U1,15,D0/RX*%
%TO.N,Net-(R1_330-Pad1)*%
X159891000Y-46099000D03*
%TO.P,U1,16,D1/TX*%
%TO.N,Net-(R2_330-Pad1)*%
X157351000Y-46099000D03*
%TO.P,U1,17,D2*%
%TO.N,Net-(R3_330-Pad1)*%
X154811000Y-46099000D03*
%TO.P,U1,18,D3*%
%TO.N,Net-(R4_330-Pad1)*%
X152271000Y-46099000D03*
%TO.P,U1,19,D4*%
%TO.N,Net-(SW13-Pad2)*%
X149731000Y-46099000D03*
%TO.P,U1,20,D5*%
%TO.N,Net-(SW10-Pad2)*%
X147191000Y-46099000D03*
%TO.P,U1,21,D6*%
%TO.N,Net-(SW5-Pad2)*%
X144651000Y-46099000D03*
%TO.P,U1,22,D7*%
%TO.N,Net-(SW1-Pad2)*%
X142111000Y-46099000D03*
%TO.P,U1,23,D8*%
%TO.N,unconnected-(U1-Pad23)*%
X138051000Y-46099000D03*
%TO.P,U1,24,D9*%
%TO.N,unconnected-(U1-Pad24)*%
X135511000Y-46099000D03*
%TO.P,U1,25,D10*%
%TO.N,unconnected-(U1-Pad25)*%
X132971000Y-46099000D03*
%TO.P,U1,26,D11*%
%TO.N,unconnected-(U1-Pad26)*%
X130431000Y-46099000D03*
%TO.P,U1,27,D12*%
%TO.N,unconnected-(U1-Pad27)*%
X127891000Y-46099000D03*
%TO.P,U1,28,D13*%
%TO.N,unconnected-(U1-Pad28)*%
X125351000Y-46099000D03*
%TO.P,U1,29,GND*%
%TO.N,Net-(R5_1K1-Pad1)*%
X122811000Y-46099000D03*
%TO.P,U1,30,AREF*%
%TO.N,unconnected-(U1-Pad30)*%
X120271000Y-46099000D03*
%TO.P,U1,31,SDA/A4*%
%TO.N,unconnected-(U1-Pad31)*%
X117731000Y-46099000D03*
%TO.P,U1,32,SCL/A5*%
%TO.N,unconnected-(U1-Pad32)*%
X115191000Y-46099000D03*
%TD*%
D12*
%TO.N,Net-(SW1-Pad2)*%
X124657400Y-55188400D03*
X124587000Y-65913000D03*
X124460000Y-76073000D03*
X124460000Y-86360000D03*
%TO.N,Net-(SW10-Pad2)*%
X146431000Y-55245000D03*
X146431000Y-65786000D03*
X146431000Y-86360000D03*
X146431000Y-76073000D03*
%TO.N,Net-(SW5-Pad2)*%
X135509000Y-76073000D03*
X135509000Y-86360000D03*
X135636000Y-65786000D03*
X135509000Y-55245000D03*
%TO.N,Net-(SW13-Pad2)*%
X157353000Y-55245000D03*
X157226000Y-65659000D03*
X157226000Y-86360000D03*
X157245600Y-76053400D03*
%TD*%
D13*
%TO.N,Net-(SW1-Pad2)*%
X126492000Y-47752000D02*
X126492000Y-55118000D01*
X126492000Y-55118000D02*
X126421600Y-55188400D01*
X139827000Y-46736000D02*
X138811000Y-47752000D01*
X138811000Y-47752000D02*
X126492000Y-47752000D01*
X141986000Y-46736000D02*
X139827000Y-46736000D01*
X126492000Y-76073000D02*
X124460000Y-76073000D01*
X126492000Y-55258800D02*
X126492000Y-62738000D01*
X126421600Y-55188400D02*
X126492000Y-55258800D01*
X126492000Y-76073000D02*
X126492000Y-86360000D01*
X126492000Y-65913000D02*
X126492000Y-76073000D01*
X126492000Y-62624800D02*
X126492000Y-65913000D01*
X126421600Y-55188400D02*
X124657400Y-55188400D01*
X126492000Y-86360000D02*
X124460000Y-86360000D01*
X126492000Y-65913000D02*
X124587000Y-65913000D01*
%TO.N,Net-(SW10-Pad2)*%
X148209000Y-76073000D02*
X146431000Y-76073000D01*
X148209000Y-65786000D02*
X146431000Y-65786000D01*
X148209000Y-86360000D02*
X146431000Y-86360000D01*
X148209000Y-47879000D02*
X148209000Y-55245000D01*
X148209000Y-55245000D02*
X146431000Y-55245000D01*
X148209000Y-72771000D02*
X148209000Y-76073000D01*
X148209000Y-65786000D02*
X148209000Y-72644000D01*
X147066000Y-46736000D02*
X148209000Y-47879000D01*
X148209000Y-76073000D02*
X148209000Y-86360000D01*
X148209000Y-55245000D02*
X148209000Y-65786000D01*
%TO.N,Net-(SW5-Pad2)*%
X137414000Y-76073000D02*
X137414000Y-86360000D01*
X137414000Y-62865000D02*
X137414000Y-65786000D01*
X140336396Y-47752000D02*
X143510000Y-47752000D01*
X137414000Y-72644000D02*
X137414000Y-76073000D01*
X137414000Y-55245000D02*
X137414000Y-48964000D01*
X137414000Y-55880000D02*
X137414000Y-55245000D01*
X137414000Y-65786000D02*
X135636000Y-65786000D01*
X139124396Y-48964000D02*
X140336396Y-47752000D01*
X137414000Y-65786000D02*
X137414000Y-72644000D01*
X137414000Y-86360000D02*
X135509000Y-86360000D01*
X137414000Y-55245000D02*
X135509000Y-55245000D01*
X137414000Y-62865000D02*
X137414000Y-55905400D01*
X143510000Y-47752000D02*
X144526000Y-46736000D01*
X137414000Y-48964000D02*
X139124396Y-48964000D01*
X137414000Y-76073000D02*
X135509000Y-76073000D01*
%TO.N,Net-(SW13-Pad2)*%
X158826200Y-65659000D02*
X157226000Y-65659000D01*
X158877000Y-47498000D02*
X158800800Y-47421800D01*
X158857400Y-76053400D02*
X158857400Y-86360000D01*
X158877000Y-55245000D02*
X157353000Y-55245000D01*
X158800800Y-47421800D02*
X150291800Y-47421800D01*
X158857400Y-76053400D02*
X157245600Y-76053400D01*
X158851600Y-72415400D02*
X158857400Y-72421200D01*
X150291800Y-47421800D02*
X149606000Y-46736000D01*
X158857400Y-86360000D02*
X157226000Y-86360000D01*
X158877000Y-63119000D02*
X158877000Y-55245000D01*
X158851600Y-65684400D02*
X158826200Y-65659000D01*
X158851600Y-65684400D02*
X158851600Y-72415400D01*
X158877000Y-55245000D02*
X158877000Y-47498000D01*
X158851600Y-63093600D02*
X158851600Y-65684400D01*
X158851600Y-63093600D02*
X158877000Y-63119000D01*
X158857400Y-72421200D02*
X158857400Y-76053400D01*
%TD*%
M02*
