%TF.GenerationSoftware,KiCad,Pcbnew,(6.0.10)*%
%TF.CreationDate,2023-01-21T21:44:47-06:00*%
%TF.ProjectId,Keypad,4b657970-6164-42e6-9b69-6361645f7063,rev?*%
%TF.SameCoordinates,Original*%
%TF.FileFunction,Soldermask,Top*%
%TF.FilePolarity,Negative*%
%FSLAX46Y46*%
G04 Gerber Fmt 4.6, Leading zero omitted, Abs format (unit mm)*
G04 Created by KiCad (PCBNEW (6.0.10)) date 2023-01-21 21:44:47*
%MOMM*%
%LPD*%
G01*
G04 APERTURE LIST*
%ADD10R,1.800000X1.800000*%
%ADD11O,1.800000X1.800000*%
%ADD12C,1.400000*%
%ADD13O,1.400000X1.400000*%
%ADD14C,1.600000*%
%ADD15O,1.600000X1.600000*%
%ADD16R,1.600000X1.600000*%
G04 APERTURE END LIST*
D10*
%TO.C,D8*%
X128422400Y-87299800D03*
D11*
X136042400Y-87299800D03*
%TD*%
D12*
%TO.C,SW12*%
X140487400Y-82727800D03*
D13*
X145567400Y-82727800D03*
%TD*%
D10*
%TO.C,D16*%
X150012400Y-87299800D03*
D11*
X157632400Y-87299800D03*
%TD*%
D14*
%TO.C,R1_330*%
X160782000Y-82423000D03*
D15*
X160782000Y-90043000D03*
%TD*%
D10*
%TO.C,D13*%
X149834600Y-57988200D03*
D11*
X157454600Y-57988200D03*
%TD*%
D12*
%TO.C,SW14*%
X151587200Y-63093600D03*
D13*
X156667200Y-63093600D03*
%TD*%
D10*
%TO.C,D7*%
X128422400Y-77901800D03*
D11*
X136042400Y-77901800D03*
%TD*%
D12*
%TO.C,SW6*%
X129133600Y-62788800D03*
D13*
X134213600Y-62788800D03*
%TD*%
D12*
%TO.C,SW9*%
X140309600Y-53111400D03*
D13*
X145389600Y-53111400D03*
%TD*%
D10*
%TO.C,D6*%
X128295400Y-67741800D03*
D11*
X135915400Y-67741800D03*
%TD*%
D12*
%TO.C,SW11*%
X140487400Y-72694800D03*
D13*
X145567400Y-72694800D03*
%TD*%
D14*
%TO.C,R2_330*%
X160782000Y-72136000D03*
D15*
X160782000Y-79756000D03*
%TD*%
D14*
%TO.C,R3_330*%
X160782000Y-61976000D03*
D15*
X160782000Y-69596000D03*
%TD*%
D10*
%TO.C,D1*%
X117144800Y-57785000D03*
D11*
X124764800Y-57785000D03*
%TD*%
D10*
%TO.C,D9*%
X138836400Y-57937400D03*
D11*
X146456400Y-57937400D03*
%TD*%
D10*
%TO.C,D10*%
X139090400Y-67868800D03*
D11*
X146710400Y-67868800D03*
%TD*%
D10*
%TO.C,D14*%
X149885400Y-67868800D03*
D11*
X157505400Y-67868800D03*
%TD*%
D10*
%TO.C,D4*%
X117373400Y-87299800D03*
D11*
X124993400Y-87299800D03*
%TD*%
D10*
%TO.C,D11*%
X139217400Y-78028800D03*
D11*
X146837400Y-78028800D03*
%TD*%
D12*
%TO.C,SW15*%
X151155400Y-72567800D03*
D13*
X156235400Y-72567800D03*
%TD*%
D14*
%TO.C,R5_1K*%
X113665000Y-52832000D03*
D15*
X113665000Y-60452000D03*
%TD*%
D10*
%TO.C,D3*%
X117500400Y-77876400D03*
D11*
X125120400Y-77876400D03*
%TD*%
%TO.C,D5*%
X135788400Y-57835800D03*
D10*
X128168400Y-57835800D03*
%TD*%
%TO.C,D12*%
X139217400Y-87299800D03*
D11*
X146837400Y-87299800D03*
%TD*%
D12*
%TO.C,SW13*%
X151434800Y-53111400D03*
D13*
X156514800Y-53111400D03*
%TD*%
D12*
%TO.C,SW5*%
X129387600Y-52959000D03*
D13*
X134467600Y-52959000D03*
%TD*%
D16*
%TO.C,Keypad*%
X124206000Y-94996000D03*
D15*
X126746000Y-94996000D03*
X129286000Y-94996000D03*
X131826000Y-94996000D03*
X134366000Y-94996000D03*
X136906000Y-94996000D03*
X139446000Y-94996000D03*
X141986000Y-94996000D03*
X147066000Y-94996000D03*
X149606000Y-94996000D03*
X152146000Y-94996000D03*
X154686000Y-94996000D03*
X157226000Y-94996000D03*
X159766000Y-94996000D03*
X159766000Y-46736000D03*
X157226000Y-46736000D03*
X154686000Y-46736000D03*
X152146000Y-46736000D03*
X149606000Y-46736000D03*
X147066000Y-46736000D03*
X144526000Y-46736000D03*
X141986000Y-46736000D03*
X137926000Y-46736000D03*
X135386000Y-46736000D03*
X132846000Y-46736000D03*
X130306000Y-46736000D03*
X127766000Y-46736000D03*
X125226000Y-46736000D03*
X122686000Y-46736000D03*
X120146000Y-46736000D03*
X117606000Y-46736000D03*
X115066000Y-46736000D03*
%TD*%
D12*
%TO.C,SW10*%
X140309600Y-62992000D03*
D13*
X145389600Y-62992000D03*
%TD*%
D12*
%TO.C,SW16*%
X151155400Y-82727800D03*
D13*
X156235400Y-82727800D03*
%TD*%
D14*
%TO.C,R7_1K*%
X113665000Y-73279000D03*
D15*
X113665000Y-80899000D03*
%TD*%
D10*
%TO.C,D15*%
X150012400Y-78028800D03*
D11*
X157632400Y-78028800D03*
%TD*%
D12*
%TO.C,SW8*%
X129413000Y-82600800D03*
D13*
X134493000Y-82600800D03*
%TD*%
D12*
%TO.C,SW4*%
X119100600Y-82448400D03*
D13*
X124180600Y-82448400D03*
%TD*%
D12*
%TO.C,SW3*%
X118999000Y-72491600D03*
D13*
X124079000Y-72491600D03*
%TD*%
D14*
%TO.C,R4_330*%
X160782000Y-51308000D03*
D15*
X160782000Y-58928000D03*
%TD*%
D12*
%TO.C,SW2*%
X119075200Y-62687200D03*
D13*
X124155200Y-62687200D03*
%TD*%
D14*
%TO.C,R6_1K*%
X113665000Y-62992000D03*
D15*
X113665000Y-70612000D03*
%TD*%
D10*
%TO.C,D2*%
X117576600Y-67818000D03*
D11*
X125196600Y-67818000D03*
%TD*%
D12*
%TO.C,SW1*%
X118618000Y-53213000D03*
D13*
X123698000Y-53213000D03*
%TD*%
D14*
%TO.C,R8_1K*%
X113665000Y-83820000D03*
D15*
X113665000Y-91440000D03*
%TD*%
D12*
%TO.C,SW7*%
X129438400Y-72694800D03*
D13*
X134518400Y-72694800D03*
%TD*%
M02*
