%TF.GenerationSoftware,KiCad,Pcbnew,(6.0.10)*%
%TF.CreationDate,2023-01-21T21:44:47-06:00*%
%TF.ProjectId,Keypad,4b657970-6164-42e6-9b69-6361645f7063,rev?*%
%TF.SameCoordinates,Original*%
%TF.FileFunction,Copper,L1,Top*%
%TF.FilePolarity,Positive*%
%FSLAX46Y46*%
G04 Gerber Fmt 4.6, Leading zero omitted, Abs format (unit mm)*
G04 Created by KiCad (PCBNEW (6.0.10)) date 2023-01-21 21:44:47*
%MOMM*%
%LPD*%
G01*
G04 APERTURE LIST*
%TA.AperFunction,ComponentPad*%
%ADD10R,1.800000X1.800000*%
%TD*%
%TA.AperFunction,ComponentPad*%
%ADD11O,1.800000X1.800000*%
%TD*%
%TA.AperFunction,ComponentPad*%
%ADD12C,1.400000*%
%TD*%
%TA.AperFunction,ComponentPad*%
%ADD13O,1.400000X1.400000*%
%TD*%
%TA.AperFunction,ComponentPad*%
%ADD14C,1.600000*%
%TD*%
%TA.AperFunction,ComponentPad*%
%ADD15O,1.600000X1.600000*%
%TD*%
%TA.AperFunction,ComponentPad*%
%ADD16R,1.600000X1.600000*%
%TD*%
%TA.AperFunction,Conductor*%
%ADD17C,0.250000*%
%TD*%
G04 APERTURE END LIST*
D10*
%TO.P,D8,1,K*%
%TO.N,Net-(D8-Pad1)*%
X128422400Y-87299800D03*
D11*
%TO.P,D8,2,A*%
%TO.N,Net-(D12-Pad2)*%
X136042400Y-87299800D03*
%TD*%
D12*
%TO.P,SW12,1,1*%
%TO.N,Net-(D12-Pad1)*%
X140487400Y-82727800D03*
D13*
%TO.P,SW12,2,2*%
%TO.N,Net-(SW10-Pad2)*%
X145567400Y-82727800D03*
%TD*%
D10*
%TO.P,D16,1,K*%
%TO.N,Net-(D16-Pad1)*%
X150012400Y-87299800D03*
D11*
%TO.P,D16,2,A*%
%TO.N,Net-(D12-Pad2)*%
X157632400Y-87299800D03*
%TD*%
D14*
%TO.P,R1_330,1*%
%TO.N,Net-(R1_330-Pad1)*%
X160782000Y-82423000D03*
D15*
%TO.P,R1_330,2*%
%TO.N,Net-(D12-Pad2)*%
X160782000Y-90043000D03*
%TD*%
D10*
%TO.P,D13,1,K*%
%TO.N,Net-(D13-Pad1)*%
X149834600Y-57988200D03*
D11*
%TO.P,D13,2,A*%
%TO.N,Net-(D1-Pad2)*%
X157454600Y-57988200D03*
%TD*%
D12*
%TO.P,SW14,1,1*%
%TO.N,Net-(D14-Pad1)*%
X151587200Y-63093600D03*
D13*
%TO.P,SW14,2,2*%
%TO.N,Net-(SW13-Pad2)*%
X156667200Y-63093600D03*
%TD*%
D10*
%TO.P,D7,1,K*%
%TO.N,Net-(D7-Pad1)*%
X128422400Y-77901800D03*
D11*
%TO.P,D7,2,A*%
%TO.N,Net-(D11-Pad2)*%
X136042400Y-77901800D03*
%TD*%
D12*
%TO.P,SW6,1,1*%
%TO.N,Net-(D6-Pad1)*%
X129133600Y-62788800D03*
D13*
%TO.P,SW6,2,2*%
%TO.N,Net-(SW5-Pad2)*%
X134213600Y-62788800D03*
%TD*%
D12*
%TO.P,SW9,1,1*%
%TO.N,Net-(D9-Pad1)*%
X140309600Y-53111400D03*
D13*
%TO.P,SW9,2,2*%
%TO.N,Net-(SW10-Pad2)*%
X145389600Y-53111400D03*
%TD*%
D10*
%TO.P,D6,1,K*%
%TO.N,Net-(D6-Pad1)*%
X128295400Y-67741800D03*
D11*
%TO.P,D6,2,A*%
%TO.N,Net-(D10-Pad2)*%
X135915400Y-67741800D03*
%TD*%
D12*
%TO.P,SW11,1,1*%
%TO.N,Net-(D11-Pad1)*%
X140487400Y-72694800D03*
D13*
%TO.P,SW11,2,2*%
%TO.N,Net-(SW10-Pad2)*%
X145567400Y-72694800D03*
%TD*%
D14*
%TO.P,R2_330,1*%
%TO.N,Net-(R2_330-Pad1)*%
X160782000Y-72136000D03*
D15*
%TO.P,R2_330,2*%
%TO.N,Net-(D11-Pad2)*%
X160782000Y-79756000D03*
%TD*%
D14*
%TO.P,R3_330,1*%
%TO.N,Net-(R3_330-Pad1)*%
X160782000Y-61976000D03*
D15*
%TO.P,R3_330,2*%
%TO.N,Net-(D10-Pad2)*%
X160782000Y-69596000D03*
%TD*%
D10*
%TO.P,D1,1,K*%
%TO.N,Net-(D1-Pad1)*%
X117144800Y-57785000D03*
D11*
%TO.P,D1,2,A*%
%TO.N,Net-(D1-Pad2)*%
X124764800Y-57785000D03*
%TD*%
D10*
%TO.P,D9,1,K*%
%TO.N,Net-(D9-Pad1)*%
X138836400Y-57937400D03*
D11*
%TO.P,D9,2,A*%
%TO.N,Net-(D1-Pad2)*%
X146456400Y-57937400D03*
%TD*%
D10*
%TO.P,D10,1,K*%
%TO.N,Net-(D10-Pad1)*%
X139090400Y-67868800D03*
D11*
%TO.P,D10,2,A*%
%TO.N,Net-(D10-Pad2)*%
X146710400Y-67868800D03*
%TD*%
D10*
%TO.P,D14,1,K*%
%TO.N,Net-(D14-Pad1)*%
X149885400Y-67868800D03*
D11*
%TO.P,D14,2,A*%
%TO.N,Net-(D10-Pad2)*%
X157505400Y-67868800D03*
%TD*%
D10*
%TO.P,D4,1,K*%
%TO.N,Net-(D4-Pad1)*%
X117373400Y-87299800D03*
D11*
%TO.P,D4,2,A*%
%TO.N,Net-(D12-Pad2)*%
X124993400Y-87299800D03*
%TD*%
D10*
%TO.P,D11,1,K*%
%TO.N,Net-(D11-Pad1)*%
X139217400Y-78028800D03*
D11*
%TO.P,D11,2,A*%
%TO.N,Net-(D11-Pad2)*%
X146837400Y-78028800D03*
%TD*%
D12*
%TO.P,SW15,1,1*%
%TO.N,Net-(D15-Pad1)*%
X151155400Y-72567800D03*
D13*
%TO.P,SW15,2,2*%
%TO.N,Net-(SW13-Pad2)*%
X156235400Y-72567800D03*
%TD*%
D14*
%TO.P,R5_1K,1*%
%TO.N,Net-(R5_330-Pad1)*%
X113665000Y-52832000D03*
D15*
%TO.P,R5_1K,2*%
%TO.N,Net-(D1-Pad2)*%
X113665000Y-60452000D03*
%TD*%
D10*
%TO.P,D3,1,K*%
%TO.N,Net-(D3-Pad1)*%
X117500400Y-77876400D03*
D11*
%TO.P,D3,2,A*%
%TO.N,Net-(D11-Pad2)*%
X125120400Y-77876400D03*
%TD*%
%TO.P,D5,2,A*%
%TO.N,Net-(D1-Pad2)*%
X135788400Y-57835800D03*
D10*
%TO.P,D5,1,K*%
%TO.N,Net-(D5-Pad1)*%
X128168400Y-57835800D03*
%TD*%
%TO.P,D12,1,K*%
%TO.N,Net-(D12-Pad1)*%
X139217400Y-87299800D03*
D11*
%TO.P,D12,2,A*%
%TO.N,Net-(D12-Pad2)*%
X146837400Y-87299800D03*
%TD*%
D12*
%TO.P,SW13,1,1*%
%TO.N,Net-(D13-Pad1)*%
X151434800Y-53111400D03*
D13*
%TO.P,SW13,2,2*%
%TO.N,Net-(SW13-Pad2)*%
X156514800Y-53111400D03*
%TD*%
D12*
%TO.P,SW5,1,1*%
%TO.N,Net-(D5-Pad1)*%
X129387600Y-52959000D03*
D13*
%TO.P,SW5,2,2*%
%TO.N,Net-(SW5-Pad2)*%
X134467600Y-52959000D03*
%TD*%
D16*
%TO.P,Keypad,1,NC*%
%TO.N,unconnected-(U1-Pad1)*%
X124206000Y-94996000D03*
D15*
%TO.P,Keypad,2,IOREF*%
%TO.N,unconnected-(U1-Pad2)*%
X126746000Y-94996000D03*
%TO.P,Keypad,3,~{RESET}*%
%TO.N,unconnected-(U1-Pad3)*%
X129286000Y-94996000D03*
%TO.P,Keypad,4,3V3*%
%TO.N,unconnected-(U1-Pad4)*%
X131826000Y-94996000D03*
%TO.P,Keypad,5,+5V*%
%TO.N,unconnected-(U1-Pad5)*%
X134366000Y-94996000D03*
%TO.P,Keypad,6,GND*%
%TO.N,unconnected-(U1-Pad6)*%
X136906000Y-94996000D03*
%TO.P,Keypad,7,GND*%
%TO.N,unconnected-(U1-Pad7)*%
X139446000Y-94996000D03*
%TO.P,Keypad,8,VIN*%
%TO.N,unconnected-(U1-Pad8)*%
X141986000Y-94996000D03*
%TO.P,Keypad,9,A0*%
%TO.N,unconnected-(U1-Pad9)*%
X147066000Y-94996000D03*
%TO.P,Keypad,10,A1*%
%TO.N,unconnected-(U1-Pad10)*%
X149606000Y-94996000D03*
%TO.P,Keypad,11,A2*%
%TO.N,unconnected-(U1-Pad11)*%
X152146000Y-94996000D03*
%TO.P,Keypad,12,A3*%
%TO.N,unconnected-(U1-Pad12)*%
X154686000Y-94996000D03*
%TO.P,Keypad,13,SDA/A4*%
%TO.N,unconnected-(U1-Pad13)*%
X157226000Y-94996000D03*
%TO.P,Keypad,14,SCL/A5*%
%TO.N,unconnected-(U1-Pad14)*%
X159766000Y-94996000D03*
%TO.P,Keypad,15,D0/RX*%
%TO.N,Net-(R1_330-Pad1)*%
X159766000Y-46736000D03*
%TO.P,Keypad,16,D1/TX*%
%TO.N,Net-(R2_330-Pad1)*%
X157226000Y-46736000D03*
%TO.P,Keypad,17,D2*%
%TO.N,Net-(R3_330-Pad1)*%
X154686000Y-46736000D03*
%TO.P,Keypad,18,D3*%
%TO.N,Net-(R4_330-Pad1)*%
X152146000Y-46736000D03*
%TO.P,Keypad,19,D4*%
%TO.N,Net-(SW13-Pad2)*%
X149606000Y-46736000D03*
%TO.P,Keypad,20,D5*%
%TO.N,Net-(SW10-Pad2)*%
X147066000Y-46736000D03*
%TO.P,Keypad,21,D6*%
%TO.N,Net-(SW5-Pad2)*%
X144526000Y-46736000D03*
%TO.P,Keypad,22,D7*%
%TO.N,Net-(SW1-Pad2)*%
X141986000Y-46736000D03*
%TO.P,Keypad,23,D8*%
%TO.N,unconnected-(U1-Pad23)*%
X137926000Y-46736000D03*
%TO.P,Keypad,24,D9*%
%TO.N,unconnected-(U1-Pad24)*%
X135386000Y-46736000D03*
%TO.P,Keypad,25,D10*%
%TO.N,unconnected-(U1-Pad25)*%
X132846000Y-46736000D03*
%TO.P,Keypad,26,D11*%
%TO.N,unconnected-(U1-Pad26)*%
X130306000Y-46736000D03*
%TO.P,Keypad,27,D12*%
%TO.N,unconnected-(U1-Pad27)*%
X127766000Y-46736000D03*
%TO.P,Keypad,28,D13*%
%TO.N,unconnected-(U1-Pad28)*%
X125226000Y-46736000D03*
%TO.P,Keypad,29,GND*%
%TO.N,Net-(R5_330-Pad1)*%
X122686000Y-46736000D03*
%TO.P,Keypad,30,AREF*%
%TO.N,unconnected-(U1-Pad30)*%
X120146000Y-46736000D03*
%TO.P,Keypad,31,SDA/A4*%
%TO.N,unconnected-(U1-Pad31)*%
X117606000Y-46736000D03*
%TO.P,Keypad,32,SCL/A5*%
%TO.N,unconnected-(U1-Pad32)*%
X115066000Y-46736000D03*
%TD*%
D12*
%TO.P,SW10,1,1*%
%TO.N,Net-(D10-Pad1)*%
X140309600Y-62992000D03*
D13*
%TO.P,SW10,2,2*%
%TO.N,Net-(SW10-Pad2)*%
X145389600Y-62992000D03*
%TD*%
D12*
%TO.P,SW16,1,1*%
%TO.N,Net-(D16-Pad1)*%
X151155400Y-82727800D03*
D13*
%TO.P,SW16,2,2*%
%TO.N,Net-(SW13-Pad2)*%
X156235400Y-82727800D03*
%TD*%
D14*
%TO.P,R7_1K,1*%
%TO.N,Net-(R5_330-Pad1)*%
X113665000Y-73279000D03*
D15*
%TO.P,R7_1K,2*%
%TO.N,Net-(D11-Pad2)*%
X113665000Y-80899000D03*
%TD*%
D10*
%TO.P,D15,1,K*%
%TO.N,Net-(D15-Pad1)*%
X150012400Y-78028800D03*
D11*
%TO.P,D15,2,A*%
%TO.N,Net-(D11-Pad2)*%
X157632400Y-78028800D03*
%TD*%
D12*
%TO.P,SW8,1,1*%
%TO.N,Net-(D8-Pad1)*%
X129413000Y-82600800D03*
D13*
%TO.P,SW8,2,2*%
%TO.N,Net-(SW5-Pad2)*%
X134493000Y-82600800D03*
%TD*%
D12*
%TO.P,SW4,1,1*%
%TO.N,Net-(D4-Pad1)*%
X119100600Y-82448400D03*
D13*
%TO.P,SW4,2,2*%
%TO.N,Net-(SW1-Pad2)*%
X124180600Y-82448400D03*
%TD*%
D12*
%TO.P,SW3,1,1*%
%TO.N,Net-(D3-Pad1)*%
X118999000Y-72491600D03*
D13*
%TO.P,SW3,2,2*%
%TO.N,Net-(SW1-Pad2)*%
X124079000Y-72491600D03*
%TD*%
D14*
%TO.P,R4_330,1*%
%TO.N,Net-(R4_330-Pad1)*%
X160782000Y-51308000D03*
D15*
%TO.P,R4_330,2*%
%TO.N,Net-(D1-Pad2)*%
X160782000Y-58928000D03*
%TD*%
D12*
%TO.P,SW2,1,1*%
%TO.N,Net-(D2-Pad1)*%
X119075200Y-62687200D03*
D13*
%TO.P,SW2,2,2*%
%TO.N,Net-(SW1-Pad2)*%
X124155200Y-62687200D03*
%TD*%
D14*
%TO.P,R6_1K,1*%
%TO.N,Net-(R5_330-Pad1)*%
X113665000Y-62992000D03*
D15*
%TO.P,R6_1K,2*%
%TO.N,Net-(D10-Pad2)*%
X113665000Y-70612000D03*
%TD*%
D10*
%TO.P,D2,1,K*%
%TO.N,Net-(D2-Pad1)*%
X117576600Y-67818000D03*
D11*
%TO.P,D2,2,A*%
%TO.N,Net-(D10-Pad2)*%
X125196600Y-67818000D03*
%TD*%
D12*
%TO.P,SW1,1,1*%
%TO.N,Net-(D1-Pad1)*%
X118618000Y-53213000D03*
D13*
%TO.P,SW1,2,2*%
%TO.N,Net-(SW1-Pad2)*%
X123698000Y-53213000D03*
%TD*%
D14*
%TO.P,R8_1K,1*%
%TO.N,Net-(R5_330-Pad1)*%
X113665000Y-83820000D03*
D15*
%TO.P,R8_1K,2*%
%TO.N,Net-(D12-Pad2)*%
X113665000Y-91440000D03*
%TD*%
D12*
%TO.P,SW7,1,1*%
%TO.N,Net-(D7-Pad1)*%
X129438400Y-72694800D03*
D13*
%TO.P,SW7,2,2*%
%TO.N,Net-(SW5-Pad2)*%
X134518400Y-72694800D03*
%TD*%
D17*
%TO.N,Net-(D16-Pad1)*%
X150012400Y-83870800D02*
X151155400Y-82727800D01*
X150012400Y-87299800D02*
X150012400Y-83870800D01*
%TO.N,Net-(D12-Pad1)*%
X139217400Y-83997800D02*
X140487400Y-82727800D01*
X139217400Y-87299800D02*
X139217400Y-83997800D01*
%TO.N,Net-(D8-Pad1)*%
X128422400Y-83591400D02*
X129413000Y-82600800D01*
X128422400Y-87299800D02*
X128422400Y-83591400D01*
%TO.N,Net-(D4-Pad1)*%
X117373400Y-84175600D02*
X119100600Y-82448400D01*
X117373400Y-87299800D02*
X117373400Y-84175600D01*
%TO.N,Net-(D15-Pad1)*%
X150012400Y-73710800D02*
X151155400Y-72567800D01*
X150012400Y-78028800D02*
X150012400Y-73710800D01*
%TO.N,Net-(D11-Pad1)*%
X139217400Y-73964800D02*
X140487400Y-72694800D01*
X139217400Y-78028800D02*
X139217400Y-73964800D01*
%TO.N,Net-(D7-Pad1)*%
X128422400Y-73710800D02*
X129438400Y-72694800D01*
X128422400Y-77901800D02*
X128422400Y-73710800D01*
%TO.N,Net-(D3-Pad1)*%
X117500400Y-73990200D02*
X118999000Y-72491600D01*
X117500400Y-77876400D02*
X117500400Y-73990200D01*
%TO.N,Net-(D9-Pad1)*%
X138836400Y-54584600D02*
X140309600Y-53111400D01*
X138836400Y-57937400D02*
X138836400Y-54584600D01*
%TO.N,Net-(D13-Pad1)*%
X149834600Y-54711600D02*
X151434800Y-53111400D01*
X149834600Y-57988200D02*
X149834600Y-54711600D01*
%TO.N,Net-(D14-Pad1)*%
X149885400Y-64795400D02*
X151587200Y-63093600D01*
X149885400Y-67868800D02*
X149885400Y-64795400D01*
%TO.N,Net-(D10-Pad1)*%
X139090400Y-67868800D02*
X139090400Y-64211200D01*
X139090400Y-64211200D02*
X140309600Y-62992000D01*
%TO.N,Net-(D6-Pad1)*%
X128295400Y-67741800D02*
X128295400Y-63627000D01*
X128295400Y-63627000D02*
X129133600Y-62788800D01*
%TO.N,Net-(D5-Pad1)*%
X128168400Y-54178200D02*
X129387600Y-52959000D01*
X128168400Y-57835800D02*
X128168400Y-54178200D01*
%TO.N,Net-(D2-Pad1)*%
X117576600Y-64185800D02*
X119075200Y-62687200D01*
X117576600Y-67818000D02*
X117576600Y-64185800D01*
%TO.N,Net-(D1-Pad1)*%
X117144800Y-57785000D02*
X117144800Y-54686200D01*
X117144800Y-54686200D02*
X118618000Y-53213000D01*
%TO.N,Net-(R5_330-Pad1)*%
X111760000Y-83820000D02*
X113665000Y-83820000D01*
X111760000Y-73279000D02*
X111760000Y-83820000D01*
X111760000Y-73279000D02*
X113665000Y-73279000D01*
X111760000Y-62992000D02*
X111760000Y-73279000D01*
X111760000Y-52832000D02*
X111760000Y-62992000D01*
X111760000Y-62992000D02*
X113665000Y-62992000D01*
X113665000Y-52832000D02*
X111760000Y-52832000D01*
X120781000Y-48641000D02*
X122686000Y-46736000D01*
X113665000Y-48641000D02*
X120781000Y-48641000D01*
X113665000Y-52832000D02*
X113665000Y-48641000D01*
%TO.N,Net-(D1-Pad2)*%
X124587000Y-60452000D02*
X113665000Y-60452000D01*
X124714000Y-60325000D02*
X124587000Y-60452000D01*
X124764800Y-57785000D02*
X124764800Y-60274200D01*
X135636000Y-60325000D02*
X146431000Y-60325000D01*
X124764800Y-60274200D02*
X124714000Y-60325000D01*
X157454600Y-60299600D02*
X157454600Y-57988200D01*
X146431000Y-60325000D02*
X146456400Y-60299600D01*
X146431000Y-60325000D02*
X157480000Y-60325000D01*
X135636000Y-60325000D02*
X135788400Y-60172600D01*
X157480000Y-60325000D02*
X157454600Y-60299600D01*
X124714000Y-60325000D02*
X135636000Y-60325000D01*
X160782000Y-58928000D02*
X158877000Y-58928000D01*
X146456400Y-60299600D02*
X146456400Y-57937400D01*
X158877000Y-58928000D02*
X157480000Y-60325000D01*
X135788400Y-60172600D02*
X135788400Y-57835800D01*
%TO.N,Net-(D10-Pad2)*%
X125323600Y-70459600D02*
X125196600Y-70332600D01*
X146710400Y-70332600D02*
X146710400Y-67868800D01*
X146710400Y-70332600D02*
X146685000Y-70358000D01*
X146685000Y-70358000D02*
X136017000Y-70358000D01*
X157505400Y-70332600D02*
X157505400Y-67868800D01*
X158242000Y-69596000D02*
X157505400Y-70332600D01*
X125171200Y-70612000D02*
X113665000Y-70612000D01*
X125323600Y-70459600D02*
X125171200Y-70612000D01*
X125196600Y-70332600D02*
X125196600Y-67818000D01*
X136017000Y-70358000D02*
X135915400Y-70459600D01*
X135915400Y-70459600D02*
X135915400Y-67741800D01*
X160782000Y-69596000D02*
X158242000Y-69596000D01*
X157505400Y-70332600D02*
X146710400Y-70332600D01*
X135915400Y-70459600D02*
X125323600Y-70459600D01*
%TO.N,Net-(D11-Pad2)*%
X157632400Y-80365600D02*
X157632400Y-78028800D01*
X146837400Y-80365600D02*
X157581600Y-80365600D01*
X157607000Y-80391000D02*
X157632400Y-80365600D01*
X146812000Y-80391000D02*
X146837400Y-80365600D01*
X125120400Y-77876400D02*
X125120400Y-80289400D01*
X157581600Y-80365600D02*
X157607000Y-80391000D01*
X136042400Y-80365600D02*
X136042400Y-77901800D01*
X136017000Y-80391000D02*
X146812000Y-80391000D01*
X158369000Y-79756000D02*
X157734000Y-80391000D01*
X136017000Y-80391000D02*
X136042400Y-80365600D01*
X160782000Y-79756000D02*
X158369000Y-79756000D01*
X125120400Y-80289400D02*
X125222000Y-80391000D01*
X146837400Y-80365600D02*
X146837400Y-78028800D01*
X125222000Y-80391000D02*
X124714000Y-80899000D01*
X124714000Y-80899000D02*
X113665000Y-80899000D01*
X125222000Y-80391000D02*
X136017000Y-80391000D01*
%TO.N,Net-(D12-Pad2)*%
X136017000Y-90170000D02*
X136042400Y-90144600D01*
X136042400Y-90144600D02*
X136042400Y-87299800D01*
X124968000Y-90170000D02*
X124993400Y-90144600D01*
X136017000Y-90170000D02*
X124968000Y-90170000D01*
X123698000Y-91440000D02*
X113665000Y-91440000D01*
X124993400Y-90144600D02*
X124993400Y-87299800D01*
X146837400Y-90144600D02*
X146812000Y-90170000D01*
X157632400Y-90144600D02*
X146837400Y-90144600D01*
X160782000Y-90043000D02*
X157734000Y-90043000D01*
X157734000Y-90043000D02*
X157632400Y-90144600D01*
X146812000Y-90170000D02*
X136017000Y-90170000D01*
X146837400Y-90144600D02*
X146837400Y-87299800D01*
X124968000Y-90170000D02*
X123698000Y-91440000D01*
X157632400Y-90144600D02*
X157632400Y-87299800D01*
%TO.N,unconnected-(U1-Pad23)*%
X137926000Y-46833600D02*
X137769600Y-46990000D01*
X137926000Y-46736000D02*
X137926000Y-46833600D01*
%TO.N,Net-(R1_330-Pad1)*%
X160782000Y-82423000D02*
X164084000Y-79121000D01*
X164084000Y-47371000D02*
X163449000Y-46736000D01*
X164084000Y-79121000D02*
X164084000Y-47371000D01*
X163449000Y-46736000D02*
X159766000Y-46736000D01*
%TO.N,Net-(R2_330-Pad1)*%
X163449000Y-48641000D02*
X159131000Y-48641000D01*
X159131000Y-48641000D02*
X157226000Y-46736000D01*
X160782000Y-72136000D02*
X163449000Y-69469000D01*
X163449000Y-69469000D02*
X163449000Y-48641000D01*
%TO.N,Net-(R3_330-Pad1)*%
X162814000Y-59944000D02*
X162814000Y-49784000D01*
X160782000Y-61976000D02*
X162814000Y-59944000D01*
X162814000Y-49784000D02*
X157734000Y-49784000D01*
X157734000Y-49784000D02*
X154686000Y-46736000D01*
%TO.N,Net-(R4_330-Pad1)*%
X160782000Y-51308000D02*
X156718000Y-51308000D01*
X156718000Y-51308000D02*
X152146000Y-46736000D01*
%TD*%
M02*
