%TF.GenerationSoftware,KiCad,Pcbnew,(6.0.10)*%
%TF.CreationDate,2023-01-21T21:44:47-06:00*%
%TF.ProjectId,Keypad,4b657970-6164-42e6-9b69-6361645f7063,rev?*%
%TF.SameCoordinates,Original*%
%TF.FileFunction,Legend,Top*%
%TF.FilePolarity,Positive*%
%FSLAX46Y46*%
G04 Gerber Fmt 4.6, Leading zero omitted, Abs format (unit mm)*
G04 Created by KiCad (PCBNEW (6.0.10)) date 2023-01-21 21:44:47*
%MOMM*%
%LPD*%
G01*
G04 APERTURE LIST*
%ADD10C,0.150000*%
%ADD11C,0.120000*%
G04 APERTURE END LIST*
D10*
%TO.C,D8*%
X131494304Y-85282180D02*
X131494304Y-84282180D01*
X131732400Y-84282180D01*
X131875257Y-84329800D01*
X131970495Y-84425038D01*
X132018114Y-84520276D01*
X132065733Y-84710752D01*
X132065733Y-84853609D01*
X132018114Y-85044085D01*
X131970495Y-85139323D01*
X131875257Y-85234561D01*
X131732400Y-85282180D01*
X131494304Y-85282180D01*
X132637161Y-84710752D02*
X132541923Y-84663133D01*
X132494304Y-84615514D01*
X132446685Y-84520276D01*
X132446685Y-84472657D01*
X132494304Y-84377419D01*
X132541923Y-84329800D01*
X132637161Y-84282180D01*
X132827638Y-84282180D01*
X132922876Y-84329800D01*
X132970495Y-84377419D01*
X133018114Y-84472657D01*
X133018114Y-84520276D01*
X132970495Y-84615514D01*
X132922876Y-84663133D01*
X132827638Y-84710752D01*
X132637161Y-84710752D01*
X132541923Y-84758371D01*
X132494304Y-84805990D01*
X132446685Y-84901228D01*
X132446685Y-85091704D01*
X132494304Y-85186942D01*
X132541923Y-85234561D01*
X132637161Y-85282180D01*
X132827638Y-85282180D01*
X132922876Y-85234561D01*
X132970495Y-85186942D01*
X133018114Y-85091704D01*
X133018114Y-84901228D01*
X132970495Y-84805990D01*
X132922876Y-84758371D01*
X132827638Y-84710752D01*
X128160495Y-85852180D02*
X128160495Y-84852180D01*
X128731923Y-85852180D02*
X128303352Y-85280752D01*
X128731923Y-84852180D02*
X128160495Y-85423609D01*
%TO.C,SW12*%
X141217876Y-81212561D02*
X141360733Y-81260180D01*
X141598828Y-81260180D01*
X141694066Y-81212561D01*
X141741685Y-81164942D01*
X141789304Y-81069704D01*
X141789304Y-80974466D01*
X141741685Y-80879228D01*
X141694066Y-80831609D01*
X141598828Y-80783990D01*
X141408352Y-80736371D01*
X141313114Y-80688752D01*
X141265495Y-80641133D01*
X141217876Y-80545895D01*
X141217876Y-80450657D01*
X141265495Y-80355419D01*
X141313114Y-80307800D01*
X141408352Y-80260180D01*
X141646447Y-80260180D01*
X141789304Y-80307800D01*
X142122638Y-80260180D02*
X142360733Y-81260180D01*
X142551209Y-80545895D01*
X142741685Y-81260180D01*
X142979780Y-80260180D01*
X143884542Y-81260180D02*
X143313114Y-81260180D01*
X143598828Y-81260180D02*
X143598828Y-80260180D01*
X143503590Y-80403038D01*
X143408352Y-80498276D01*
X143313114Y-80545895D01*
X144265495Y-80355419D02*
X144313114Y-80307800D01*
X144408352Y-80260180D01*
X144646447Y-80260180D01*
X144741685Y-80307800D01*
X144789304Y-80355419D01*
X144836923Y-80450657D01*
X144836923Y-80545895D01*
X144789304Y-80688752D01*
X144217876Y-81260180D01*
X144836923Y-81260180D01*
%TO.C,D16*%
X152608114Y-85282180D02*
X152608114Y-84282180D01*
X152846209Y-84282180D01*
X152989066Y-84329800D01*
X153084304Y-84425038D01*
X153131923Y-84520276D01*
X153179542Y-84710752D01*
X153179542Y-84853609D01*
X153131923Y-85044085D01*
X153084304Y-85139323D01*
X152989066Y-85234561D01*
X152846209Y-85282180D01*
X152608114Y-85282180D01*
X154131923Y-85282180D02*
X153560495Y-85282180D01*
X153846209Y-85282180D02*
X153846209Y-84282180D01*
X153750971Y-84425038D01*
X153655733Y-84520276D01*
X153560495Y-84567895D01*
X154989066Y-84282180D02*
X154798590Y-84282180D01*
X154703352Y-84329800D01*
X154655733Y-84377419D01*
X154560495Y-84520276D01*
X154512876Y-84710752D01*
X154512876Y-85091704D01*
X154560495Y-85186942D01*
X154608114Y-85234561D01*
X154703352Y-85282180D01*
X154893828Y-85282180D01*
X154989066Y-85234561D01*
X155036685Y-85186942D01*
X155084304Y-85091704D01*
X155084304Y-84853609D01*
X155036685Y-84758371D01*
X154989066Y-84710752D01*
X154893828Y-84663133D01*
X154703352Y-84663133D01*
X154608114Y-84710752D01*
X154560495Y-84758371D01*
X154512876Y-84853609D01*
X149750495Y-85852180D02*
X149750495Y-84852180D01*
X150321923Y-85852180D02*
X149893352Y-85280752D01*
X150321923Y-84852180D02*
X149750495Y-85423609D01*
%TO.C,R1_330*%
X163604380Y-88209190D02*
X163128190Y-88542523D01*
X163604380Y-88780619D02*
X162604380Y-88780619D01*
X162604380Y-88399666D01*
X162652000Y-88304428D01*
X162699619Y-88256809D01*
X162794857Y-88209190D01*
X162937714Y-88209190D01*
X163032952Y-88256809D01*
X163080571Y-88304428D01*
X163128190Y-88399666D01*
X163128190Y-88780619D01*
X163604380Y-87256809D02*
X163604380Y-87828238D01*
X163604380Y-87542523D02*
X162604380Y-87542523D01*
X162747238Y-87637761D01*
X162842476Y-87733000D01*
X162890095Y-87828238D01*
X163699619Y-87066333D02*
X163699619Y-86304428D01*
X162604380Y-86161571D02*
X162604380Y-85542523D01*
X162985333Y-85875857D01*
X162985333Y-85733000D01*
X163032952Y-85637761D01*
X163080571Y-85590142D01*
X163175809Y-85542523D01*
X163413904Y-85542523D01*
X163509142Y-85590142D01*
X163556761Y-85637761D01*
X163604380Y-85733000D01*
X163604380Y-86018714D01*
X163556761Y-86113952D01*
X163509142Y-86161571D01*
X162604380Y-85209190D02*
X162604380Y-84590142D01*
X162985333Y-84923476D01*
X162985333Y-84780619D01*
X163032952Y-84685380D01*
X163080571Y-84637761D01*
X163175809Y-84590142D01*
X163413904Y-84590142D01*
X163509142Y-84637761D01*
X163556761Y-84685380D01*
X163604380Y-84780619D01*
X163604380Y-85066333D01*
X163556761Y-85161571D01*
X163509142Y-85209190D01*
X162604380Y-83971095D02*
X162604380Y-83875857D01*
X162652000Y-83780619D01*
X162699619Y-83733000D01*
X162794857Y-83685380D01*
X162985333Y-83637761D01*
X163223428Y-83637761D01*
X163413904Y-83685380D01*
X163509142Y-83733000D01*
X163556761Y-83780619D01*
X163604380Y-83875857D01*
X163604380Y-83971095D01*
X163556761Y-84066333D01*
X163509142Y-84113952D01*
X163413904Y-84161571D01*
X163223428Y-84209190D01*
X162985333Y-84209190D01*
X162794857Y-84161571D01*
X162699619Y-84113952D01*
X162652000Y-84066333D01*
X162604380Y-83971095D01*
%TO.C,D13*%
X152430314Y-55970580D02*
X152430314Y-54970580D01*
X152668409Y-54970580D01*
X152811266Y-55018200D01*
X152906504Y-55113438D01*
X152954123Y-55208676D01*
X153001742Y-55399152D01*
X153001742Y-55542009D01*
X152954123Y-55732485D01*
X152906504Y-55827723D01*
X152811266Y-55922961D01*
X152668409Y-55970580D01*
X152430314Y-55970580D01*
X153954123Y-55970580D02*
X153382695Y-55970580D01*
X153668409Y-55970580D02*
X153668409Y-54970580D01*
X153573171Y-55113438D01*
X153477933Y-55208676D01*
X153382695Y-55256295D01*
X154287457Y-54970580D02*
X154906504Y-54970580D01*
X154573171Y-55351533D01*
X154716028Y-55351533D01*
X154811266Y-55399152D01*
X154858885Y-55446771D01*
X154906504Y-55542009D01*
X154906504Y-55780104D01*
X154858885Y-55875342D01*
X154811266Y-55922961D01*
X154716028Y-55970580D01*
X154430314Y-55970580D01*
X154335076Y-55922961D01*
X154287457Y-55875342D01*
X149572695Y-56540580D02*
X149572695Y-55540580D01*
X150144123Y-56540580D02*
X149715552Y-55969152D01*
X150144123Y-55540580D02*
X149572695Y-56112009D01*
%TO.C,SW14*%
X152317676Y-61578361D02*
X152460533Y-61625980D01*
X152698628Y-61625980D01*
X152793866Y-61578361D01*
X152841485Y-61530742D01*
X152889104Y-61435504D01*
X152889104Y-61340266D01*
X152841485Y-61245028D01*
X152793866Y-61197409D01*
X152698628Y-61149790D01*
X152508152Y-61102171D01*
X152412914Y-61054552D01*
X152365295Y-61006933D01*
X152317676Y-60911695D01*
X152317676Y-60816457D01*
X152365295Y-60721219D01*
X152412914Y-60673600D01*
X152508152Y-60625980D01*
X152746247Y-60625980D01*
X152889104Y-60673600D01*
X153222438Y-60625980D02*
X153460533Y-61625980D01*
X153651009Y-60911695D01*
X153841485Y-61625980D01*
X154079580Y-60625980D01*
X154984342Y-61625980D02*
X154412914Y-61625980D01*
X154698628Y-61625980D02*
X154698628Y-60625980D01*
X154603390Y-60768838D01*
X154508152Y-60864076D01*
X154412914Y-60911695D01*
X155841485Y-60959314D02*
X155841485Y-61625980D01*
X155603390Y-60578361D02*
X155365295Y-61292647D01*
X155984342Y-61292647D01*
%TO.C,D7*%
X131494304Y-75884180D02*
X131494304Y-74884180D01*
X131732400Y-74884180D01*
X131875257Y-74931800D01*
X131970495Y-75027038D01*
X132018114Y-75122276D01*
X132065733Y-75312752D01*
X132065733Y-75455609D01*
X132018114Y-75646085D01*
X131970495Y-75741323D01*
X131875257Y-75836561D01*
X131732400Y-75884180D01*
X131494304Y-75884180D01*
X132399066Y-74884180D02*
X133065733Y-74884180D01*
X132637161Y-75884180D01*
X128160495Y-76454180D02*
X128160495Y-75454180D01*
X128731923Y-76454180D02*
X128303352Y-75882752D01*
X128731923Y-75454180D02*
X128160495Y-76025609D01*
%TO.C,SW6*%
X130340266Y-61273561D02*
X130483123Y-61321180D01*
X130721219Y-61321180D01*
X130816457Y-61273561D01*
X130864076Y-61225942D01*
X130911695Y-61130704D01*
X130911695Y-61035466D01*
X130864076Y-60940228D01*
X130816457Y-60892609D01*
X130721219Y-60844990D01*
X130530742Y-60797371D01*
X130435504Y-60749752D01*
X130387885Y-60702133D01*
X130340266Y-60606895D01*
X130340266Y-60511657D01*
X130387885Y-60416419D01*
X130435504Y-60368800D01*
X130530742Y-60321180D01*
X130768838Y-60321180D01*
X130911695Y-60368800D01*
X131245028Y-60321180D02*
X131483123Y-61321180D01*
X131673600Y-60606895D01*
X131864076Y-61321180D01*
X132102171Y-60321180D01*
X132911695Y-60321180D02*
X132721219Y-60321180D01*
X132625980Y-60368800D01*
X132578361Y-60416419D01*
X132483123Y-60559276D01*
X132435504Y-60749752D01*
X132435504Y-61130704D01*
X132483123Y-61225942D01*
X132530742Y-61273561D01*
X132625980Y-61321180D01*
X132816457Y-61321180D01*
X132911695Y-61273561D01*
X132959314Y-61225942D01*
X133006933Y-61130704D01*
X133006933Y-60892609D01*
X132959314Y-60797371D01*
X132911695Y-60749752D01*
X132816457Y-60702133D01*
X132625980Y-60702133D01*
X132530742Y-60749752D01*
X132483123Y-60797371D01*
X132435504Y-60892609D01*
%TO.C,SW9*%
X141516266Y-51596161D02*
X141659123Y-51643780D01*
X141897219Y-51643780D01*
X141992457Y-51596161D01*
X142040076Y-51548542D01*
X142087695Y-51453304D01*
X142087695Y-51358066D01*
X142040076Y-51262828D01*
X141992457Y-51215209D01*
X141897219Y-51167590D01*
X141706742Y-51119971D01*
X141611504Y-51072352D01*
X141563885Y-51024733D01*
X141516266Y-50929495D01*
X141516266Y-50834257D01*
X141563885Y-50739019D01*
X141611504Y-50691400D01*
X141706742Y-50643780D01*
X141944838Y-50643780D01*
X142087695Y-50691400D01*
X142421028Y-50643780D02*
X142659123Y-51643780D01*
X142849600Y-50929495D01*
X143040076Y-51643780D01*
X143278171Y-50643780D01*
X143706742Y-51643780D02*
X143897219Y-51643780D01*
X143992457Y-51596161D01*
X144040076Y-51548542D01*
X144135314Y-51405685D01*
X144182933Y-51215209D01*
X144182933Y-50834257D01*
X144135314Y-50739019D01*
X144087695Y-50691400D01*
X143992457Y-50643780D01*
X143801980Y-50643780D01*
X143706742Y-50691400D01*
X143659123Y-50739019D01*
X143611504Y-50834257D01*
X143611504Y-51072352D01*
X143659123Y-51167590D01*
X143706742Y-51215209D01*
X143801980Y-51262828D01*
X143992457Y-51262828D01*
X144087695Y-51215209D01*
X144135314Y-51167590D01*
X144182933Y-51072352D01*
%TO.C,D6*%
X131367304Y-65724180D02*
X131367304Y-64724180D01*
X131605400Y-64724180D01*
X131748257Y-64771800D01*
X131843495Y-64867038D01*
X131891114Y-64962276D01*
X131938733Y-65152752D01*
X131938733Y-65295609D01*
X131891114Y-65486085D01*
X131843495Y-65581323D01*
X131748257Y-65676561D01*
X131605400Y-65724180D01*
X131367304Y-65724180D01*
X132795876Y-64724180D02*
X132605400Y-64724180D01*
X132510161Y-64771800D01*
X132462542Y-64819419D01*
X132367304Y-64962276D01*
X132319685Y-65152752D01*
X132319685Y-65533704D01*
X132367304Y-65628942D01*
X132414923Y-65676561D01*
X132510161Y-65724180D01*
X132700638Y-65724180D01*
X132795876Y-65676561D01*
X132843495Y-65628942D01*
X132891114Y-65533704D01*
X132891114Y-65295609D01*
X132843495Y-65200371D01*
X132795876Y-65152752D01*
X132700638Y-65105133D01*
X132510161Y-65105133D01*
X132414923Y-65152752D01*
X132367304Y-65200371D01*
X132319685Y-65295609D01*
X128033495Y-66294180D02*
X128033495Y-65294180D01*
X128604923Y-66294180D02*
X128176352Y-65722752D01*
X128604923Y-65294180D02*
X128033495Y-65865609D01*
%TO.C,SW11*%
X141217876Y-71179561D02*
X141360733Y-71227180D01*
X141598828Y-71227180D01*
X141694066Y-71179561D01*
X141741685Y-71131942D01*
X141789304Y-71036704D01*
X141789304Y-70941466D01*
X141741685Y-70846228D01*
X141694066Y-70798609D01*
X141598828Y-70750990D01*
X141408352Y-70703371D01*
X141313114Y-70655752D01*
X141265495Y-70608133D01*
X141217876Y-70512895D01*
X141217876Y-70417657D01*
X141265495Y-70322419D01*
X141313114Y-70274800D01*
X141408352Y-70227180D01*
X141646447Y-70227180D01*
X141789304Y-70274800D01*
X142122638Y-70227180D02*
X142360733Y-71227180D01*
X142551209Y-70512895D01*
X142741685Y-71227180D01*
X142979780Y-70227180D01*
X143884542Y-71227180D02*
X143313114Y-71227180D01*
X143598828Y-71227180D02*
X143598828Y-70227180D01*
X143503590Y-70370038D01*
X143408352Y-70465276D01*
X143313114Y-70512895D01*
X144836923Y-71227180D02*
X144265495Y-71227180D01*
X144551209Y-71227180D02*
X144551209Y-70227180D01*
X144455971Y-70370038D01*
X144360733Y-70465276D01*
X144265495Y-70512895D01*
%TO.C,R2_330*%
X163604380Y-77922190D02*
X163128190Y-78255523D01*
X163604380Y-78493619D02*
X162604380Y-78493619D01*
X162604380Y-78112666D01*
X162652000Y-78017428D01*
X162699619Y-77969809D01*
X162794857Y-77922190D01*
X162937714Y-77922190D01*
X163032952Y-77969809D01*
X163080571Y-78017428D01*
X163128190Y-78112666D01*
X163128190Y-78493619D01*
X162699619Y-77541238D02*
X162652000Y-77493619D01*
X162604380Y-77398380D01*
X162604380Y-77160285D01*
X162652000Y-77065047D01*
X162699619Y-77017428D01*
X162794857Y-76969809D01*
X162890095Y-76969809D01*
X163032952Y-77017428D01*
X163604380Y-77588857D01*
X163604380Y-76969809D01*
X163699619Y-76779333D02*
X163699619Y-76017428D01*
X162604380Y-75874571D02*
X162604380Y-75255523D01*
X162985333Y-75588857D01*
X162985333Y-75446000D01*
X163032952Y-75350761D01*
X163080571Y-75303142D01*
X163175809Y-75255523D01*
X163413904Y-75255523D01*
X163509142Y-75303142D01*
X163556761Y-75350761D01*
X163604380Y-75446000D01*
X163604380Y-75731714D01*
X163556761Y-75826952D01*
X163509142Y-75874571D01*
X162604380Y-74922190D02*
X162604380Y-74303142D01*
X162985333Y-74636476D01*
X162985333Y-74493619D01*
X163032952Y-74398380D01*
X163080571Y-74350761D01*
X163175809Y-74303142D01*
X163413904Y-74303142D01*
X163509142Y-74350761D01*
X163556761Y-74398380D01*
X163604380Y-74493619D01*
X163604380Y-74779333D01*
X163556761Y-74874571D01*
X163509142Y-74922190D01*
X162604380Y-73684095D02*
X162604380Y-73588857D01*
X162652000Y-73493619D01*
X162699619Y-73446000D01*
X162794857Y-73398380D01*
X162985333Y-73350761D01*
X163223428Y-73350761D01*
X163413904Y-73398380D01*
X163509142Y-73446000D01*
X163556761Y-73493619D01*
X163604380Y-73588857D01*
X163604380Y-73684095D01*
X163556761Y-73779333D01*
X163509142Y-73826952D01*
X163413904Y-73874571D01*
X163223428Y-73922190D01*
X162985333Y-73922190D01*
X162794857Y-73874571D01*
X162699619Y-73826952D01*
X162652000Y-73779333D01*
X162604380Y-73684095D01*
%TO.C,R3_330*%
X163604380Y-67762190D02*
X163128190Y-68095523D01*
X163604380Y-68333619D02*
X162604380Y-68333619D01*
X162604380Y-67952666D01*
X162652000Y-67857428D01*
X162699619Y-67809809D01*
X162794857Y-67762190D01*
X162937714Y-67762190D01*
X163032952Y-67809809D01*
X163080571Y-67857428D01*
X163128190Y-67952666D01*
X163128190Y-68333619D01*
X162604380Y-67428857D02*
X162604380Y-66809809D01*
X162985333Y-67143142D01*
X162985333Y-67000285D01*
X163032952Y-66905047D01*
X163080571Y-66857428D01*
X163175809Y-66809809D01*
X163413904Y-66809809D01*
X163509142Y-66857428D01*
X163556761Y-66905047D01*
X163604380Y-67000285D01*
X163604380Y-67286000D01*
X163556761Y-67381238D01*
X163509142Y-67428857D01*
X163699619Y-66619333D02*
X163699619Y-65857428D01*
X162604380Y-65714571D02*
X162604380Y-65095523D01*
X162985333Y-65428857D01*
X162985333Y-65286000D01*
X163032952Y-65190761D01*
X163080571Y-65143142D01*
X163175809Y-65095523D01*
X163413904Y-65095523D01*
X163509142Y-65143142D01*
X163556761Y-65190761D01*
X163604380Y-65286000D01*
X163604380Y-65571714D01*
X163556761Y-65666952D01*
X163509142Y-65714571D01*
X162604380Y-64762190D02*
X162604380Y-64143142D01*
X162985333Y-64476476D01*
X162985333Y-64333619D01*
X163032952Y-64238380D01*
X163080571Y-64190761D01*
X163175809Y-64143142D01*
X163413904Y-64143142D01*
X163509142Y-64190761D01*
X163556761Y-64238380D01*
X163604380Y-64333619D01*
X163604380Y-64619333D01*
X163556761Y-64714571D01*
X163509142Y-64762190D01*
X162604380Y-63524095D02*
X162604380Y-63428857D01*
X162652000Y-63333619D01*
X162699619Y-63286000D01*
X162794857Y-63238380D01*
X162985333Y-63190761D01*
X163223428Y-63190761D01*
X163413904Y-63238380D01*
X163509142Y-63286000D01*
X163556761Y-63333619D01*
X163604380Y-63428857D01*
X163604380Y-63524095D01*
X163556761Y-63619333D01*
X163509142Y-63666952D01*
X163413904Y-63714571D01*
X163223428Y-63762190D01*
X162985333Y-63762190D01*
X162794857Y-63714571D01*
X162699619Y-63666952D01*
X162652000Y-63619333D01*
X162604380Y-63524095D01*
%TO.C,D1*%
X120216704Y-55767380D02*
X120216704Y-54767380D01*
X120454800Y-54767380D01*
X120597657Y-54815000D01*
X120692895Y-54910238D01*
X120740514Y-55005476D01*
X120788133Y-55195952D01*
X120788133Y-55338809D01*
X120740514Y-55529285D01*
X120692895Y-55624523D01*
X120597657Y-55719761D01*
X120454800Y-55767380D01*
X120216704Y-55767380D01*
X121740514Y-55767380D02*
X121169085Y-55767380D01*
X121454800Y-55767380D02*
X121454800Y-54767380D01*
X121359561Y-54910238D01*
X121264323Y-55005476D01*
X121169085Y-55053095D01*
X116882895Y-56337380D02*
X116882895Y-55337380D01*
X117454323Y-56337380D02*
X117025752Y-55765952D01*
X117454323Y-55337380D02*
X116882895Y-55908809D01*
%TO.C,D9*%
X141908304Y-55919780D02*
X141908304Y-54919780D01*
X142146400Y-54919780D01*
X142289257Y-54967400D01*
X142384495Y-55062638D01*
X142432114Y-55157876D01*
X142479733Y-55348352D01*
X142479733Y-55491209D01*
X142432114Y-55681685D01*
X142384495Y-55776923D01*
X142289257Y-55872161D01*
X142146400Y-55919780D01*
X141908304Y-55919780D01*
X142955923Y-55919780D02*
X143146400Y-55919780D01*
X143241638Y-55872161D01*
X143289257Y-55824542D01*
X143384495Y-55681685D01*
X143432114Y-55491209D01*
X143432114Y-55110257D01*
X143384495Y-55015019D01*
X143336876Y-54967400D01*
X143241638Y-54919780D01*
X143051161Y-54919780D01*
X142955923Y-54967400D01*
X142908304Y-55015019D01*
X142860685Y-55110257D01*
X142860685Y-55348352D01*
X142908304Y-55443590D01*
X142955923Y-55491209D01*
X143051161Y-55538828D01*
X143241638Y-55538828D01*
X143336876Y-55491209D01*
X143384495Y-55443590D01*
X143432114Y-55348352D01*
X138574495Y-56489780D02*
X138574495Y-55489780D01*
X139145923Y-56489780D02*
X138717352Y-55918352D01*
X139145923Y-55489780D02*
X138574495Y-56061209D01*
%TO.C,D10*%
X141686114Y-65851180D02*
X141686114Y-64851180D01*
X141924209Y-64851180D01*
X142067066Y-64898800D01*
X142162304Y-64994038D01*
X142209923Y-65089276D01*
X142257542Y-65279752D01*
X142257542Y-65422609D01*
X142209923Y-65613085D01*
X142162304Y-65708323D01*
X142067066Y-65803561D01*
X141924209Y-65851180D01*
X141686114Y-65851180D01*
X143209923Y-65851180D02*
X142638495Y-65851180D01*
X142924209Y-65851180D02*
X142924209Y-64851180D01*
X142828971Y-64994038D01*
X142733733Y-65089276D01*
X142638495Y-65136895D01*
X143828971Y-64851180D02*
X143924209Y-64851180D01*
X144019447Y-64898800D01*
X144067066Y-64946419D01*
X144114685Y-65041657D01*
X144162304Y-65232133D01*
X144162304Y-65470228D01*
X144114685Y-65660704D01*
X144067066Y-65755942D01*
X144019447Y-65803561D01*
X143924209Y-65851180D01*
X143828971Y-65851180D01*
X143733733Y-65803561D01*
X143686114Y-65755942D01*
X143638495Y-65660704D01*
X143590876Y-65470228D01*
X143590876Y-65232133D01*
X143638495Y-65041657D01*
X143686114Y-64946419D01*
X143733733Y-64898800D01*
X143828971Y-64851180D01*
X138828495Y-66421180D02*
X138828495Y-65421180D01*
X139399923Y-66421180D02*
X138971352Y-65849752D01*
X139399923Y-65421180D02*
X138828495Y-65992609D01*
%TO.C,D14*%
X152481114Y-65851180D02*
X152481114Y-64851180D01*
X152719209Y-64851180D01*
X152862066Y-64898800D01*
X152957304Y-64994038D01*
X153004923Y-65089276D01*
X153052542Y-65279752D01*
X153052542Y-65422609D01*
X153004923Y-65613085D01*
X152957304Y-65708323D01*
X152862066Y-65803561D01*
X152719209Y-65851180D01*
X152481114Y-65851180D01*
X154004923Y-65851180D02*
X153433495Y-65851180D01*
X153719209Y-65851180D02*
X153719209Y-64851180D01*
X153623971Y-64994038D01*
X153528733Y-65089276D01*
X153433495Y-65136895D01*
X154862066Y-65184514D02*
X154862066Y-65851180D01*
X154623971Y-64803561D02*
X154385876Y-65517847D01*
X155004923Y-65517847D01*
X149623495Y-66421180D02*
X149623495Y-65421180D01*
X150194923Y-66421180D02*
X149766352Y-65849752D01*
X150194923Y-65421180D02*
X149623495Y-65992609D01*
%TO.C,D4*%
X120445304Y-85282180D02*
X120445304Y-84282180D01*
X120683400Y-84282180D01*
X120826257Y-84329800D01*
X120921495Y-84425038D01*
X120969114Y-84520276D01*
X121016733Y-84710752D01*
X121016733Y-84853609D01*
X120969114Y-85044085D01*
X120921495Y-85139323D01*
X120826257Y-85234561D01*
X120683400Y-85282180D01*
X120445304Y-85282180D01*
X121873876Y-84615514D02*
X121873876Y-85282180D01*
X121635780Y-84234561D02*
X121397685Y-84948847D01*
X122016733Y-84948847D01*
X117111495Y-85852180D02*
X117111495Y-84852180D01*
X117682923Y-85852180D02*
X117254352Y-85280752D01*
X117682923Y-84852180D02*
X117111495Y-85423609D01*
%TO.C,D11*%
X141813114Y-76011180D02*
X141813114Y-75011180D01*
X142051209Y-75011180D01*
X142194066Y-75058800D01*
X142289304Y-75154038D01*
X142336923Y-75249276D01*
X142384542Y-75439752D01*
X142384542Y-75582609D01*
X142336923Y-75773085D01*
X142289304Y-75868323D01*
X142194066Y-75963561D01*
X142051209Y-76011180D01*
X141813114Y-76011180D01*
X143336923Y-76011180D02*
X142765495Y-76011180D01*
X143051209Y-76011180D02*
X143051209Y-75011180D01*
X142955971Y-75154038D01*
X142860733Y-75249276D01*
X142765495Y-75296895D01*
X144289304Y-76011180D02*
X143717876Y-76011180D01*
X144003590Y-76011180D02*
X144003590Y-75011180D01*
X143908352Y-75154038D01*
X143813114Y-75249276D01*
X143717876Y-75296895D01*
X138955495Y-76581180D02*
X138955495Y-75581180D01*
X139526923Y-76581180D02*
X139098352Y-76009752D01*
X139526923Y-75581180D02*
X138955495Y-76152609D01*
%TO.C,SW15*%
X151885876Y-71052561D02*
X152028733Y-71100180D01*
X152266828Y-71100180D01*
X152362066Y-71052561D01*
X152409685Y-71004942D01*
X152457304Y-70909704D01*
X152457304Y-70814466D01*
X152409685Y-70719228D01*
X152362066Y-70671609D01*
X152266828Y-70623990D01*
X152076352Y-70576371D01*
X151981114Y-70528752D01*
X151933495Y-70481133D01*
X151885876Y-70385895D01*
X151885876Y-70290657D01*
X151933495Y-70195419D01*
X151981114Y-70147800D01*
X152076352Y-70100180D01*
X152314447Y-70100180D01*
X152457304Y-70147800D01*
X152790638Y-70100180D02*
X153028733Y-71100180D01*
X153219209Y-70385895D01*
X153409685Y-71100180D01*
X153647780Y-70100180D01*
X154552542Y-71100180D02*
X153981114Y-71100180D01*
X154266828Y-71100180D02*
X154266828Y-70100180D01*
X154171590Y-70243038D01*
X154076352Y-70338276D01*
X153981114Y-70385895D01*
X155457304Y-70100180D02*
X154981114Y-70100180D01*
X154933495Y-70576371D01*
X154981114Y-70528752D01*
X155076352Y-70481133D01*
X155314447Y-70481133D01*
X155409685Y-70528752D01*
X155457304Y-70576371D01*
X155504923Y-70671609D01*
X155504923Y-70909704D01*
X155457304Y-71004942D01*
X155409685Y-71052561D01*
X155314447Y-71100180D01*
X155076352Y-71100180D01*
X154981114Y-71052561D01*
X154933495Y-71004942D01*
%TO.C,R5_1K*%
X116487380Y-58165809D02*
X116011190Y-58499142D01*
X116487380Y-58737238D02*
X115487380Y-58737238D01*
X115487380Y-58356285D01*
X115535000Y-58261047D01*
X115582619Y-58213428D01*
X115677857Y-58165809D01*
X115820714Y-58165809D01*
X115915952Y-58213428D01*
X115963571Y-58261047D01*
X116011190Y-58356285D01*
X116011190Y-58737238D01*
X115487380Y-57261047D02*
X115487380Y-57737238D01*
X115963571Y-57784857D01*
X115915952Y-57737238D01*
X115868333Y-57642000D01*
X115868333Y-57403904D01*
X115915952Y-57308666D01*
X115963571Y-57261047D01*
X116058809Y-57213428D01*
X116296904Y-57213428D01*
X116392142Y-57261047D01*
X116439761Y-57308666D01*
X116487380Y-57403904D01*
X116487380Y-57642000D01*
X116439761Y-57737238D01*
X116392142Y-57784857D01*
X116582619Y-57022952D02*
X116582619Y-56261047D01*
X116487380Y-55499142D02*
X116487380Y-56070571D01*
X116487380Y-55784857D02*
X115487380Y-55784857D01*
X115630238Y-55880095D01*
X115725476Y-55975333D01*
X115773095Y-56070571D01*
X116487380Y-55070571D02*
X115487380Y-55070571D01*
X116487380Y-54499142D02*
X115915952Y-54927714D01*
X115487380Y-54499142D02*
X116058809Y-55070571D01*
%TO.C,D3*%
X120572304Y-75858780D02*
X120572304Y-74858780D01*
X120810400Y-74858780D01*
X120953257Y-74906400D01*
X121048495Y-75001638D01*
X121096114Y-75096876D01*
X121143733Y-75287352D01*
X121143733Y-75430209D01*
X121096114Y-75620685D01*
X121048495Y-75715923D01*
X120953257Y-75811161D01*
X120810400Y-75858780D01*
X120572304Y-75858780D01*
X121477066Y-74858780D02*
X122096114Y-74858780D01*
X121762780Y-75239733D01*
X121905638Y-75239733D01*
X122000876Y-75287352D01*
X122048495Y-75334971D01*
X122096114Y-75430209D01*
X122096114Y-75668304D01*
X122048495Y-75763542D01*
X122000876Y-75811161D01*
X121905638Y-75858780D01*
X121619923Y-75858780D01*
X121524685Y-75811161D01*
X121477066Y-75763542D01*
X117238495Y-76428780D02*
X117238495Y-75428780D01*
X117809923Y-76428780D02*
X117381352Y-75857352D01*
X117809923Y-75428780D02*
X117238495Y-76000209D01*
%TO.C,D5*%
X131240304Y-55818180D02*
X131240304Y-54818180D01*
X131478400Y-54818180D01*
X131621257Y-54865800D01*
X131716495Y-54961038D01*
X131764114Y-55056276D01*
X131811733Y-55246752D01*
X131811733Y-55389609D01*
X131764114Y-55580085D01*
X131716495Y-55675323D01*
X131621257Y-55770561D01*
X131478400Y-55818180D01*
X131240304Y-55818180D01*
X132716495Y-54818180D02*
X132240304Y-54818180D01*
X132192685Y-55294371D01*
X132240304Y-55246752D01*
X132335542Y-55199133D01*
X132573638Y-55199133D01*
X132668876Y-55246752D01*
X132716495Y-55294371D01*
X132764114Y-55389609D01*
X132764114Y-55627704D01*
X132716495Y-55722942D01*
X132668876Y-55770561D01*
X132573638Y-55818180D01*
X132335542Y-55818180D01*
X132240304Y-55770561D01*
X132192685Y-55722942D01*
X127906495Y-56388180D02*
X127906495Y-55388180D01*
X128477923Y-56388180D02*
X128049352Y-55816752D01*
X128477923Y-55388180D02*
X127906495Y-55959609D01*
%TO.C,D12*%
X141813114Y-85282180D02*
X141813114Y-84282180D01*
X142051209Y-84282180D01*
X142194066Y-84329800D01*
X142289304Y-84425038D01*
X142336923Y-84520276D01*
X142384542Y-84710752D01*
X142384542Y-84853609D01*
X142336923Y-85044085D01*
X142289304Y-85139323D01*
X142194066Y-85234561D01*
X142051209Y-85282180D01*
X141813114Y-85282180D01*
X143336923Y-85282180D02*
X142765495Y-85282180D01*
X143051209Y-85282180D02*
X143051209Y-84282180D01*
X142955971Y-84425038D01*
X142860733Y-84520276D01*
X142765495Y-84567895D01*
X143717876Y-84377419D02*
X143765495Y-84329800D01*
X143860733Y-84282180D01*
X144098828Y-84282180D01*
X144194066Y-84329800D01*
X144241685Y-84377419D01*
X144289304Y-84472657D01*
X144289304Y-84567895D01*
X144241685Y-84710752D01*
X143670257Y-85282180D01*
X144289304Y-85282180D01*
X138955495Y-85852180D02*
X138955495Y-84852180D01*
X139526923Y-85852180D02*
X139098352Y-85280752D01*
X139526923Y-84852180D02*
X138955495Y-85423609D01*
%TO.C,SW13*%
X152165276Y-51596161D02*
X152308133Y-51643780D01*
X152546228Y-51643780D01*
X152641466Y-51596161D01*
X152689085Y-51548542D01*
X152736704Y-51453304D01*
X152736704Y-51358066D01*
X152689085Y-51262828D01*
X152641466Y-51215209D01*
X152546228Y-51167590D01*
X152355752Y-51119971D01*
X152260514Y-51072352D01*
X152212895Y-51024733D01*
X152165276Y-50929495D01*
X152165276Y-50834257D01*
X152212895Y-50739019D01*
X152260514Y-50691400D01*
X152355752Y-50643780D01*
X152593847Y-50643780D01*
X152736704Y-50691400D01*
X153070038Y-50643780D02*
X153308133Y-51643780D01*
X153498609Y-50929495D01*
X153689085Y-51643780D01*
X153927180Y-50643780D01*
X154831942Y-51643780D02*
X154260514Y-51643780D01*
X154546228Y-51643780D02*
X154546228Y-50643780D01*
X154450990Y-50786638D01*
X154355752Y-50881876D01*
X154260514Y-50929495D01*
X155165276Y-50643780D02*
X155784323Y-50643780D01*
X155450990Y-51024733D01*
X155593847Y-51024733D01*
X155689085Y-51072352D01*
X155736704Y-51119971D01*
X155784323Y-51215209D01*
X155784323Y-51453304D01*
X155736704Y-51548542D01*
X155689085Y-51596161D01*
X155593847Y-51643780D01*
X155308133Y-51643780D01*
X155212895Y-51596161D01*
X155165276Y-51548542D01*
%TO.C,SW5*%
X130594266Y-51443761D02*
X130737123Y-51491380D01*
X130975219Y-51491380D01*
X131070457Y-51443761D01*
X131118076Y-51396142D01*
X131165695Y-51300904D01*
X131165695Y-51205666D01*
X131118076Y-51110428D01*
X131070457Y-51062809D01*
X130975219Y-51015190D01*
X130784742Y-50967571D01*
X130689504Y-50919952D01*
X130641885Y-50872333D01*
X130594266Y-50777095D01*
X130594266Y-50681857D01*
X130641885Y-50586619D01*
X130689504Y-50539000D01*
X130784742Y-50491380D01*
X131022838Y-50491380D01*
X131165695Y-50539000D01*
X131499028Y-50491380D02*
X131737123Y-51491380D01*
X131927600Y-50777095D01*
X132118076Y-51491380D01*
X132356171Y-50491380D01*
X133213314Y-50491380D02*
X132737123Y-50491380D01*
X132689504Y-50967571D01*
X132737123Y-50919952D01*
X132832361Y-50872333D01*
X133070457Y-50872333D01*
X133165695Y-50919952D01*
X133213314Y-50967571D01*
X133260933Y-51062809D01*
X133260933Y-51300904D01*
X133213314Y-51396142D01*
X133165695Y-51443761D01*
X133070457Y-51491380D01*
X132832361Y-51491380D01*
X132737123Y-51443761D01*
X132689504Y-51396142D01*
%TO.C,Keypad*%
X135620428Y-49855380D02*
X135620428Y-48855380D01*
X136191857Y-49855380D02*
X135763285Y-49283952D01*
X136191857Y-48855380D02*
X135620428Y-49426809D01*
X137001380Y-49807761D02*
X136906142Y-49855380D01*
X136715666Y-49855380D01*
X136620428Y-49807761D01*
X136572809Y-49712523D01*
X136572809Y-49331571D01*
X136620428Y-49236333D01*
X136715666Y-49188714D01*
X136906142Y-49188714D01*
X137001380Y-49236333D01*
X137049000Y-49331571D01*
X137049000Y-49426809D01*
X136572809Y-49522047D01*
X137382333Y-49188714D02*
X137620428Y-49855380D01*
X137858523Y-49188714D02*
X137620428Y-49855380D01*
X137525190Y-50093476D01*
X137477571Y-50141095D01*
X137382333Y-50188714D01*
X138239476Y-49188714D02*
X138239476Y-50188714D01*
X138239476Y-49236333D02*
X138334714Y-49188714D01*
X138525190Y-49188714D01*
X138620428Y-49236333D01*
X138668047Y-49283952D01*
X138715666Y-49379190D01*
X138715666Y-49664904D01*
X138668047Y-49760142D01*
X138620428Y-49807761D01*
X138525190Y-49855380D01*
X138334714Y-49855380D01*
X138239476Y-49807761D01*
X139572809Y-49855380D02*
X139572809Y-49331571D01*
X139525190Y-49236333D01*
X139429952Y-49188714D01*
X139239476Y-49188714D01*
X139144238Y-49236333D01*
X139572809Y-49807761D02*
X139477571Y-49855380D01*
X139239476Y-49855380D01*
X139144238Y-49807761D01*
X139096619Y-49712523D01*
X139096619Y-49617285D01*
X139144238Y-49522047D01*
X139239476Y-49474428D01*
X139477571Y-49474428D01*
X139572809Y-49426809D01*
X140477571Y-49855380D02*
X140477571Y-48855380D01*
X140477571Y-49807761D02*
X140382333Y-49855380D01*
X140191857Y-49855380D01*
X140096619Y-49807761D01*
X140049000Y-49760142D01*
X140001380Y-49664904D01*
X140001380Y-49379190D01*
X140049000Y-49283952D01*
X140096619Y-49236333D01*
X140191857Y-49188714D01*
X140382333Y-49188714D01*
X140477571Y-49236333D01*
%TO.C,SW10*%
X141040076Y-61476761D02*
X141182933Y-61524380D01*
X141421028Y-61524380D01*
X141516266Y-61476761D01*
X141563885Y-61429142D01*
X141611504Y-61333904D01*
X141611504Y-61238666D01*
X141563885Y-61143428D01*
X141516266Y-61095809D01*
X141421028Y-61048190D01*
X141230552Y-61000571D01*
X141135314Y-60952952D01*
X141087695Y-60905333D01*
X141040076Y-60810095D01*
X141040076Y-60714857D01*
X141087695Y-60619619D01*
X141135314Y-60572000D01*
X141230552Y-60524380D01*
X141468647Y-60524380D01*
X141611504Y-60572000D01*
X141944838Y-60524380D02*
X142182933Y-61524380D01*
X142373409Y-60810095D01*
X142563885Y-61524380D01*
X142801980Y-60524380D01*
X143706742Y-61524380D02*
X143135314Y-61524380D01*
X143421028Y-61524380D02*
X143421028Y-60524380D01*
X143325790Y-60667238D01*
X143230552Y-60762476D01*
X143135314Y-60810095D01*
X144325790Y-60524380D02*
X144421028Y-60524380D01*
X144516266Y-60572000D01*
X144563885Y-60619619D01*
X144611504Y-60714857D01*
X144659123Y-60905333D01*
X144659123Y-61143428D01*
X144611504Y-61333904D01*
X144563885Y-61429142D01*
X144516266Y-61476761D01*
X144421028Y-61524380D01*
X144325790Y-61524380D01*
X144230552Y-61476761D01*
X144182933Y-61429142D01*
X144135314Y-61333904D01*
X144087695Y-61143428D01*
X144087695Y-60905333D01*
X144135314Y-60714857D01*
X144182933Y-60619619D01*
X144230552Y-60572000D01*
X144325790Y-60524380D01*
%TO.C,SW16*%
X151885876Y-81212561D02*
X152028733Y-81260180D01*
X152266828Y-81260180D01*
X152362066Y-81212561D01*
X152409685Y-81164942D01*
X152457304Y-81069704D01*
X152457304Y-80974466D01*
X152409685Y-80879228D01*
X152362066Y-80831609D01*
X152266828Y-80783990D01*
X152076352Y-80736371D01*
X151981114Y-80688752D01*
X151933495Y-80641133D01*
X151885876Y-80545895D01*
X151885876Y-80450657D01*
X151933495Y-80355419D01*
X151981114Y-80307800D01*
X152076352Y-80260180D01*
X152314447Y-80260180D01*
X152457304Y-80307800D01*
X152790638Y-80260180D02*
X153028733Y-81260180D01*
X153219209Y-80545895D01*
X153409685Y-81260180D01*
X153647780Y-80260180D01*
X154552542Y-81260180D02*
X153981114Y-81260180D01*
X154266828Y-81260180D02*
X154266828Y-80260180D01*
X154171590Y-80403038D01*
X154076352Y-80498276D01*
X153981114Y-80545895D01*
X155409685Y-80260180D02*
X155219209Y-80260180D01*
X155123971Y-80307800D01*
X155076352Y-80355419D01*
X154981114Y-80498276D01*
X154933495Y-80688752D01*
X154933495Y-81069704D01*
X154981114Y-81164942D01*
X155028733Y-81212561D01*
X155123971Y-81260180D01*
X155314447Y-81260180D01*
X155409685Y-81212561D01*
X155457304Y-81164942D01*
X155504923Y-81069704D01*
X155504923Y-80831609D01*
X155457304Y-80736371D01*
X155409685Y-80688752D01*
X155314447Y-80641133D01*
X155123971Y-80641133D01*
X155028733Y-80688752D01*
X154981114Y-80736371D01*
X154933495Y-80831609D01*
%TO.C,R7_1K*%
X116487380Y-78612809D02*
X116011190Y-78946142D01*
X116487380Y-79184238D02*
X115487380Y-79184238D01*
X115487380Y-78803285D01*
X115535000Y-78708047D01*
X115582619Y-78660428D01*
X115677857Y-78612809D01*
X115820714Y-78612809D01*
X115915952Y-78660428D01*
X115963571Y-78708047D01*
X116011190Y-78803285D01*
X116011190Y-79184238D01*
X115487380Y-78279476D02*
X115487380Y-77612809D01*
X116487380Y-78041380D01*
X116582619Y-77469952D02*
X116582619Y-76708047D01*
X116487380Y-75946142D02*
X116487380Y-76517571D01*
X116487380Y-76231857D02*
X115487380Y-76231857D01*
X115630238Y-76327095D01*
X115725476Y-76422333D01*
X115773095Y-76517571D01*
X116487380Y-75517571D02*
X115487380Y-75517571D01*
X116487380Y-74946142D02*
X115915952Y-75374714D01*
X115487380Y-74946142D02*
X116058809Y-75517571D01*
%TO.C,D15*%
X152608114Y-76011180D02*
X152608114Y-75011180D01*
X152846209Y-75011180D01*
X152989066Y-75058800D01*
X153084304Y-75154038D01*
X153131923Y-75249276D01*
X153179542Y-75439752D01*
X153179542Y-75582609D01*
X153131923Y-75773085D01*
X153084304Y-75868323D01*
X152989066Y-75963561D01*
X152846209Y-76011180D01*
X152608114Y-76011180D01*
X154131923Y-76011180D02*
X153560495Y-76011180D01*
X153846209Y-76011180D02*
X153846209Y-75011180D01*
X153750971Y-75154038D01*
X153655733Y-75249276D01*
X153560495Y-75296895D01*
X155036685Y-75011180D02*
X154560495Y-75011180D01*
X154512876Y-75487371D01*
X154560495Y-75439752D01*
X154655733Y-75392133D01*
X154893828Y-75392133D01*
X154989066Y-75439752D01*
X155036685Y-75487371D01*
X155084304Y-75582609D01*
X155084304Y-75820704D01*
X155036685Y-75915942D01*
X154989066Y-75963561D01*
X154893828Y-76011180D01*
X154655733Y-76011180D01*
X154560495Y-75963561D01*
X154512876Y-75915942D01*
X149750495Y-76581180D02*
X149750495Y-75581180D01*
X150321923Y-76581180D02*
X149893352Y-76009752D01*
X150321923Y-75581180D02*
X149750495Y-76152609D01*
%TO.C,SW8*%
X130619666Y-81085561D02*
X130762523Y-81133180D01*
X131000619Y-81133180D01*
X131095857Y-81085561D01*
X131143476Y-81037942D01*
X131191095Y-80942704D01*
X131191095Y-80847466D01*
X131143476Y-80752228D01*
X131095857Y-80704609D01*
X131000619Y-80656990D01*
X130810142Y-80609371D01*
X130714904Y-80561752D01*
X130667285Y-80514133D01*
X130619666Y-80418895D01*
X130619666Y-80323657D01*
X130667285Y-80228419D01*
X130714904Y-80180800D01*
X130810142Y-80133180D01*
X131048238Y-80133180D01*
X131191095Y-80180800D01*
X131524428Y-80133180D02*
X131762523Y-81133180D01*
X131953000Y-80418895D01*
X132143476Y-81133180D01*
X132381571Y-80133180D01*
X132905380Y-80561752D02*
X132810142Y-80514133D01*
X132762523Y-80466514D01*
X132714904Y-80371276D01*
X132714904Y-80323657D01*
X132762523Y-80228419D01*
X132810142Y-80180800D01*
X132905380Y-80133180D01*
X133095857Y-80133180D01*
X133191095Y-80180800D01*
X133238714Y-80228419D01*
X133286333Y-80323657D01*
X133286333Y-80371276D01*
X133238714Y-80466514D01*
X133191095Y-80514133D01*
X133095857Y-80561752D01*
X132905380Y-80561752D01*
X132810142Y-80609371D01*
X132762523Y-80656990D01*
X132714904Y-80752228D01*
X132714904Y-80942704D01*
X132762523Y-81037942D01*
X132810142Y-81085561D01*
X132905380Y-81133180D01*
X133095857Y-81133180D01*
X133191095Y-81085561D01*
X133238714Y-81037942D01*
X133286333Y-80942704D01*
X133286333Y-80752228D01*
X133238714Y-80656990D01*
X133191095Y-80609371D01*
X133095857Y-80561752D01*
%TO.C,SW4*%
X120307266Y-80933161D02*
X120450123Y-80980780D01*
X120688219Y-80980780D01*
X120783457Y-80933161D01*
X120831076Y-80885542D01*
X120878695Y-80790304D01*
X120878695Y-80695066D01*
X120831076Y-80599828D01*
X120783457Y-80552209D01*
X120688219Y-80504590D01*
X120497742Y-80456971D01*
X120402504Y-80409352D01*
X120354885Y-80361733D01*
X120307266Y-80266495D01*
X120307266Y-80171257D01*
X120354885Y-80076019D01*
X120402504Y-80028400D01*
X120497742Y-79980780D01*
X120735838Y-79980780D01*
X120878695Y-80028400D01*
X121212028Y-79980780D02*
X121450123Y-80980780D01*
X121640600Y-80266495D01*
X121831076Y-80980780D01*
X122069171Y-79980780D01*
X122878695Y-80314114D02*
X122878695Y-80980780D01*
X122640600Y-79933161D02*
X122402504Y-80647447D01*
X123021552Y-80647447D01*
%TO.C,SW3*%
X120205666Y-70976361D02*
X120348523Y-71023980D01*
X120586619Y-71023980D01*
X120681857Y-70976361D01*
X120729476Y-70928742D01*
X120777095Y-70833504D01*
X120777095Y-70738266D01*
X120729476Y-70643028D01*
X120681857Y-70595409D01*
X120586619Y-70547790D01*
X120396142Y-70500171D01*
X120300904Y-70452552D01*
X120253285Y-70404933D01*
X120205666Y-70309695D01*
X120205666Y-70214457D01*
X120253285Y-70119219D01*
X120300904Y-70071600D01*
X120396142Y-70023980D01*
X120634238Y-70023980D01*
X120777095Y-70071600D01*
X121110428Y-70023980D02*
X121348523Y-71023980D01*
X121539000Y-70309695D01*
X121729476Y-71023980D01*
X121967571Y-70023980D01*
X122253285Y-70023980D02*
X122872333Y-70023980D01*
X122539000Y-70404933D01*
X122681857Y-70404933D01*
X122777095Y-70452552D01*
X122824714Y-70500171D01*
X122872333Y-70595409D01*
X122872333Y-70833504D01*
X122824714Y-70928742D01*
X122777095Y-70976361D01*
X122681857Y-71023980D01*
X122396142Y-71023980D01*
X122300904Y-70976361D01*
X122253285Y-70928742D01*
%TO.C,R4_330*%
X163604380Y-57094190D02*
X163128190Y-57427523D01*
X163604380Y-57665619D02*
X162604380Y-57665619D01*
X162604380Y-57284666D01*
X162652000Y-57189428D01*
X162699619Y-57141809D01*
X162794857Y-57094190D01*
X162937714Y-57094190D01*
X163032952Y-57141809D01*
X163080571Y-57189428D01*
X163128190Y-57284666D01*
X163128190Y-57665619D01*
X162937714Y-56237047D02*
X163604380Y-56237047D01*
X162556761Y-56475142D02*
X163271047Y-56713238D01*
X163271047Y-56094190D01*
X163699619Y-55951333D02*
X163699619Y-55189428D01*
X162604380Y-55046571D02*
X162604380Y-54427523D01*
X162985333Y-54760857D01*
X162985333Y-54618000D01*
X163032952Y-54522761D01*
X163080571Y-54475142D01*
X163175809Y-54427523D01*
X163413904Y-54427523D01*
X163509142Y-54475142D01*
X163556761Y-54522761D01*
X163604380Y-54618000D01*
X163604380Y-54903714D01*
X163556761Y-54998952D01*
X163509142Y-55046571D01*
X162604380Y-54094190D02*
X162604380Y-53475142D01*
X162985333Y-53808476D01*
X162985333Y-53665619D01*
X163032952Y-53570380D01*
X163080571Y-53522761D01*
X163175809Y-53475142D01*
X163413904Y-53475142D01*
X163509142Y-53522761D01*
X163556761Y-53570380D01*
X163604380Y-53665619D01*
X163604380Y-53951333D01*
X163556761Y-54046571D01*
X163509142Y-54094190D01*
X162604380Y-52856095D02*
X162604380Y-52760857D01*
X162652000Y-52665619D01*
X162699619Y-52618000D01*
X162794857Y-52570380D01*
X162985333Y-52522761D01*
X163223428Y-52522761D01*
X163413904Y-52570380D01*
X163509142Y-52618000D01*
X163556761Y-52665619D01*
X163604380Y-52760857D01*
X163604380Y-52856095D01*
X163556761Y-52951333D01*
X163509142Y-52998952D01*
X163413904Y-53046571D01*
X163223428Y-53094190D01*
X162985333Y-53094190D01*
X162794857Y-53046571D01*
X162699619Y-52998952D01*
X162652000Y-52951333D01*
X162604380Y-52856095D01*
%TO.C,SW2*%
X120281866Y-61502161D02*
X120424723Y-61549780D01*
X120662819Y-61549780D01*
X120758057Y-61502161D01*
X120805676Y-61454542D01*
X120853295Y-61359304D01*
X120853295Y-61264066D01*
X120805676Y-61168828D01*
X120758057Y-61121209D01*
X120662819Y-61073590D01*
X120472342Y-61025971D01*
X120377104Y-60978352D01*
X120329485Y-60930733D01*
X120281866Y-60835495D01*
X120281866Y-60740257D01*
X120329485Y-60645019D01*
X120377104Y-60597400D01*
X120472342Y-60549780D01*
X120710438Y-60549780D01*
X120853295Y-60597400D01*
X121186628Y-60549780D02*
X121424723Y-61549780D01*
X121615200Y-60835495D01*
X121805676Y-61549780D01*
X122043771Y-60549780D01*
X122377104Y-60645019D02*
X122424723Y-60597400D01*
X122519961Y-60549780D01*
X122758057Y-60549780D01*
X122853295Y-60597400D01*
X122900914Y-60645019D01*
X122948533Y-60740257D01*
X122948533Y-60835495D01*
X122900914Y-60978352D01*
X122329485Y-61549780D01*
X122948533Y-61549780D01*
%TO.C,R6_1K*%
X116487380Y-68325809D02*
X116011190Y-68659142D01*
X116487380Y-68897238D02*
X115487380Y-68897238D01*
X115487380Y-68516285D01*
X115535000Y-68421047D01*
X115582619Y-68373428D01*
X115677857Y-68325809D01*
X115820714Y-68325809D01*
X115915952Y-68373428D01*
X115963571Y-68421047D01*
X116011190Y-68516285D01*
X116011190Y-68897238D01*
X115487380Y-67468666D02*
X115487380Y-67659142D01*
X115535000Y-67754380D01*
X115582619Y-67802000D01*
X115725476Y-67897238D01*
X115915952Y-67944857D01*
X116296904Y-67944857D01*
X116392142Y-67897238D01*
X116439761Y-67849619D01*
X116487380Y-67754380D01*
X116487380Y-67563904D01*
X116439761Y-67468666D01*
X116392142Y-67421047D01*
X116296904Y-67373428D01*
X116058809Y-67373428D01*
X115963571Y-67421047D01*
X115915952Y-67468666D01*
X115868333Y-67563904D01*
X115868333Y-67754380D01*
X115915952Y-67849619D01*
X115963571Y-67897238D01*
X116058809Y-67944857D01*
X116582619Y-67182952D02*
X116582619Y-66421047D01*
X116487380Y-65659142D02*
X116487380Y-66230571D01*
X116487380Y-65944857D02*
X115487380Y-65944857D01*
X115630238Y-66040095D01*
X115725476Y-66135333D01*
X115773095Y-66230571D01*
X116487380Y-65230571D02*
X115487380Y-65230571D01*
X116487380Y-64659142D02*
X115915952Y-65087714D01*
X115487380Y-64659142D02*
X116058809Y-65230571D01*
%TO.C,D2*%
X120648504Y-65800380D02*
X120648504Y-64800380D01*
X120886600Y-64800380D01*
X121029457Y-64848000D01*
X121124695Y-64943238D01*
X121172314Y-65038476D01*
X121219933Y-65228952D01*
X121219933Y-65371809D01*
X121172314Y-65562285D01*
X121124695Y-65657523D01*
X121029457Y-65752761D01*
X120886600Y-65800380D01*
X120648504Y-65800380D01*
X121600885Y-64895619D02*
X121648504Y-64848000D01*
X121743742Y-64800380D01*
X121981838Y-64800380D01*
X122077076Y-64848000D01*
X122124695Y-64895619D01*
X122172314Y-64990857D01*
X122172314Y-65086095D01*
X122124695Y-65228952D01*
X121553266Y-65800380D01*
X122172314Y-65800380D01*
X117314695Y-66370380D02*
X117314695Y-65370380D01*
X117886123Y-66370380D02*
X117457552Y-65798952D01*
X117886123Y-65370380D02*
X117314695Y-65941809D01*
%TO.C,SW1*%
X119824666Y-51697761D02*
X119967523Y-51745380D01*
X120205619Y-51745380D01*
X120300857Y-51697761D01*
X120348476Y-51650142D01*
X120396095Y-51554904D01*
X120396095Y-51459666D01*
X120348476Y-51364428D01*
X120300857Y-51316809D01*
X120205619Y-51269190D01*
X120015142Y-51221571D01*
X119919904Y-51173952D01*
X119872285Y-51126333D01*
X119824666Y-51031095D01*
X119824666Y-50935857D01*
X119872285Y-50840619D01*
X119919904Y-50793000D01*
X120015142Y-50745380D01*
X120253238Y-50745380D01*
X120396095Y-50793000D01*
X120729428Y-50745380D02*
X120967523Y-51745380D01*
X121158000Y-51031095D01*
X121348476Y-51745380D01*
X121586571Y-50745380D01*
X122491333Y-51745380D02*
X121919904Y-51745380D01*
X122205619Y-51745380D02*
X122205619Y-50745380D01*
X122110380Y-50888238D01*
X122015142Y-50983476D01*
X121919904Y-51031095D01*
%TO.C,R8_1K*%
X116487380Y-89153809D02*
X116011190Y-89487142D01*
X116487380Y-89725238D02*
X115487380Y-89725238D01*
X115487380Y-89344285D01*
X115535000Y-89249047D01*
X115582619Y-89201428D01*
X115677857Y-89153809D01*
X115820714Y-89153809D01*
X115915952Y-89201428D01*
X115963571Y-89249047D01*
X116011190Y-89344285D01*
X116011190Y-89725238D01*
X115915952Y-88582380D02*
X115868333Y-88677619D01*
X115820714Y-88725238D01*
X115725476Y-88772857D01*
X115677857Y-88772857D01*
X115582619Y-88725238D01*
X115535000Y-88677619D01*
X115487380Y-88582380D01*
X115487380Y-88391904D01*
X115535000Y-88296666D01*
X115582619Y-88249047D01*
X115677857Y-88201428D01*
X115725476Y-88201428D01*
X115820714Y-88249047D01*
X115868333Y-88296666D01*
X115915952Y-88391904D01*
X115915952Y-88582380D01*
X115963571Y-88677619D01*
X116011190Y-88725238D01*
X116106428Y-88772857D01*
X116296904Y-88772857D01*
X116392142Y-88725238D01*
X116439761Y-88677619D01*
X116487380Y-88582380D01*
X116487380Y-88391904D01*
X116439761Y-88296666D01*
X116392142Y-88249047D01*
X116296904Y-88201428D01*
X116106428Y-88201428D01*
X116011190Y-88249047D01*
X115963571Y-88296666D01*
X115915952Y-88391904D01*
X116582619Y-88010952D02*
X116582619Y-87249047D01*
X116487380Y-86487142D02*
X116487380Y-87058571D01*
X116487380Y-86772857D02*
X115487380Y-86772857D01*
X115630238Y-86868095D01*
X115725476Y-86963333D01*
X115773095Y-87058571D01*
X116487380Y-86058571D02*
X115487380Y-86058571D01*
X116487380Y-85487142D02*
X115915952Y-85915714D01*
X115487380Y-85487142D02*
X116058809Y-86058571D01*
%TO.C,SW7*%
X130645066Y-71179561D02*
X130787923Y-71227180D01*
X131026019Y-71227180D01*
X131121257Y-71179561D01*
X131168876Y-71131942D01*
X131216495Y-71036704D01*
X131216495Y-70941466D01*
X131168876Y-70846228D01*
X131121257Y-70798609D01*
X131026019Y-70750990D01*
X130835542Y-70703371D01*
X130740304Y-70655752D01*
X130692685Y-70608133D01*
X130645066Y-70512895D01*
X130645066Y-70417657D01*
X130692685Y-70322419D01*
X130740304Y-70274800D01*
X130835542Y-70227180D01*
X131073638Y-70227180D01*
X131216495Y-70274800D01*
X131549828Y-70227180D02*
X131787923Y-71227180D01*
X131978400Y-70512895D01*
X132168876Y-71227180D01*
X132406971Y-70227180D01*
X132692685Y-70227180D02*
X133359352Y-70227180D01*
X132930780Y-71227180D01*
D11*
%TO.C,D8*%
X134952400Y-88769800D02*
X134952400Y-88439800D01*
X129512400Y-85829800D02*
X134952400Y-85829800D01*
X130292400Y-85829800D02*
X130292400Y-88769800D01*
X130532400Y-85829800D02*
X130532400Y-88769800D01*
X129512400Y-88769800D02*
X134952400Y-88769800D01*
X129512400Y-86159800D02*
X129512400Y-85829800D01*
X130412400Y-85829800D02*
X130412400Y-88769800D01*
X134952400Y-85829800D02*
X134952400Y-86159800D01*
X129512400Y-88439800D02*
X129512400Y-88769800D01*
%TO.C,SW12*%
X141107400Y-81807800D02*
X144947400Y-81807800D01*
X141107400Y-83647800D02*
X144947400Y-83647800D01*
%TO.C,D16*%
X156542400Y-85829800D02*
X156542400Y-86159800D01*
X152122400Y-85829800D02*
X152122400Y-88769800D01*
X152002400Y-85829800D02*
X152002400Y-88769800D01*
X151102400Y-88769800D02*
X156542400Y-88769800D01*
X156542400Y-88769800D02*
X156542400Y-88439800D01*
X151882400Y-85829800D02*
X151882400Y-88769800D01*
X151102400Y-85829800D02*
X156542400Y-85829800D01*
X151102400Y-88439800D02*
X151102400Y-88769800D01*
X151102400Y-86159800D02*
X151102400Y-85829800D01*
%TO.C,R1_330*%
X159412000Y-82963000D02*
X159412000Y-89503000D01*
X159412000Y-89503000D02*
X159742000Y-89503000D01*
X159742000Y-82963000D02*
X159412000Y-82963000D01*
X162152000Y-82963000D02*
X162152000Y-89503000D01*
X161822000Y-82963000D02*
X162152000Y-82963000D01*
X162152000Y-89503000D02*
X161822000Y-89503000D01*
%TO.C,D13*%
X151944600Y-56518200D02*
X151944600Y-59458200D01*
X151704600Y-56518200D02*
X151704600Y-59458200D01*
X150924600Y-56518200D02*
X156364600Y-56518200D01*
X151824600Y-56518200D02*
X151824600Y-59458200D01*
X150924600Y-56848200D02*
X150924600Y-56518200D01*
X150924600Y-59128200D02*
X150924600Y-59458200D01*
X156364600Y-59458200D02*
X156364600Y-59128200D01*
X156364600Y-56518200D02*
X156364600Y-56848200D01*
X150924600Y-59458200D02*
X156364600Y-59458200D01*
%TO.C,SW14*%
X152207200Y-64013600D02*
X156047200Y-64013600D01*
X152207200Y-62173600D02*
X156047200Y-62173600D01*
%TO.C,D7*%
X129512400Y-79041800D02*
X129512400Y-79371800D01*
X129512400Y-76761800D02*
X129512400Y-76431800D01*
X134952400Y-79371800D02*
X134952400Y-79041800D01*
X129512400Y-76431800D02*
X134952400Y-76431800D01*
X130532400Y-76431800D02*
X130532400Y-79371800D01*
X130412400Y-76431800D02*
X130412400Y-79371800D01*
X134952400Y-76431800D02*
X134952400Y-76761800D01*
X130292400Y-76431800D02*
X130292400Y-79371800D01*
X129512400Y-79371800D02*
X134952400Y-79371800D01*
%TO.C,SW6*%
X129753600Y-61868800D02*
X133593600Y-61868800D01*
X129753600Y-63708800D02*
X133593600Y-63708800D01*
%TO.C,SW9*%
X140929600Y-54031400D02*
X144769600Y-54031400D01*
X140929600Y-52191400D02*
X144769600Y-52191400D01*
%TO.C,D6*%
X129385400Y-68881800D02*
X129385400Y-69211800D01*
X134825400Y-66271800D02*
X134825400Y-66601800D01*
X129385400Y-69211800D02*
X134825400Y-69211800D01*
X130405400Y-66271800D02*
X130405400Y-69211800D01*
X130285400Y-66271800D02*
X130285400Y-69211800D01*
X134825400Y-69211800D02*
X134825400Y-68881800D01*
X129385400Y-66271800D02*
X134825400Y-66271800D01*
X130165400Y-66271800D02*
X130165400Y-69211800D01*
X129385400Y-66601800D02*
X129385400Y-66271800D01*
%TO.C,SW11*%
X141107400Y-71774800D02*
X144947400Y-71774800D01*
X141107400Y-73614800D02*
X144947400Y-73614800D01*
%TO.C,R2_330*%
X161822000Y-72676000D02*
X162152000Y-72676000D01*
X162152000Y-72676000D02*
X162152000Y-79216000D01*
X162152000Y-79216000D02*
X161822000Y-79216000D01*
X159412000Y-72676000D02*
X159412000Y-79216000D01*
X159412000Y-79216000D02*
X159742000Y-79216000D01*
X159742000Y-72676000D02*
X159412000Y-72676000D01*
%TO.C,R3_330*%
X159412000Y-62516000D02*
X159412000Y-69056000D01*
X159742000Y-62516000D02*
X159412000Y-62516000D01*
X162152000Y-69056000D02*
X161822000Y-69056000D01*
X162152000Y-62516000D02*
X162152000Y-69056000D01*
X161822000Y-62516000D02*
X162152000Y-62516000D01*
X159412000Y-69056000D02*
X159742000Y-69056000D01*
%TO.C,D1*%
X123674800Y-56315000D02*
X123674800Y-56645000D01*
X123674800Y-59255000D02*
X123674800Y-58925000D01*
X118234800Y-58925000D02*
X118234800Y-59255000D01*
X118234800Y-56315000D02*
X123674800Y-56315000D01*
X119134800Y-56315000D02*
X119134800Y-59255000D01*
X118234800Y-59255000D02*
X123674800Y-59255000D01*
X118234800Y-56645000D02*
X118234800Y-56315000D01*
X119014800Y-56315000D02*
X119014800Y-59255000D01*
X119254800Y-56315000D02*
X119254800Y-59255000D01*
%TO.C,D9*%
X139926400Y-56467400D02*
X145366400Y-56467400D01*
X145366400Y-59407400D02*
X145366400Y-59077400D01*
X139926400Y-59077400D02*
X139926400Y-59407400D01*
X139926400Y-56797400D02*
X139926400Y-56467400D01*
X145366400Y-56467400D02*
X145366400Y-56797400D01*
X140946400Y-56467400D02*
X140946400Y-59407400D01*
X140826400Y-56467400D02*
X140826400Y-59407400D01*
X139926400Y-59407400D02*
X145366400Y-59407400D01*
X140706400Y-56467400D02*
X140706400Y-59407400D01*
%TO.C,D10*%
X141200400Y-66398800D02*
X141200400Y-69338800D01*
X145620400Y-66398800D02*
X145620400Y-66728800D01*
X140180400Y-69338800D02*
X145620400Y-69338800D01*
X145620400Y-69338800D02*
X145620400Y-69008800D01*
X140180400Y-69008800D02*
X140180400Y-69338800D01*
X140960400Y-66398800D02*
X140960400Y-69338800D01*
X140180400Y-66728800D02*
X140180400Y-66398800D01*
X140180400Y-66398800D02*
X145620400Y-66398800D01*
X141080400Y-66398800D02*
X141080400Y-69338800D01*
%TO.C,D14*%
X151755400Y-66398800D02*
X151755400Y-69338800D01*
X151875400Y-66398800D02*
X151875400Y-69338800D01*
X156415400Y-66398800D02*
X156415400Y-66728800D01*
X150975400Y-66398800D02*
X156415400Y-66398800D01*
X156415400Y-69338800D02*
X156415400Y-69008800D01*
X151995400Y-66398800D02*
X151995400Y-69338800D01*
X150975400Y-69008800D02*
X150975400Y-69338800D01*
X150975400Y-66728800D02*
X150975400Y-66398800D01*
X150975400Y-69338800D02*
X156415400Y-69338800D01*
%TO.C,D4*%
X119243400Y-85829800D02*
X119243400Y-88769800D01*
X119483400Y-85829800D02*
X119483400Y-88769800D01*
X123903400Y-88769800D02*
X123903400Y-88439800D01*
X118463400Y-88769800D02*
X123903400Y-88769800D01*
X118463400Y-85829800D02*
X123903400Y-85829800D01*
X118463400Y-88439800D02*
X118463400Y-88769800D01*
X119363400Y-85829800D02*
X119363400Y-88769800D01*
X123903400Y-85829800D02*
X123903400Y-86159800D01*
X118463400Y-86159800D02*
X118463400Y-85829800D01*
%TO.C,D11*%
X140307400Y-79168800D02*
X140307400Y-79498800D01*
X141207400Y-76558800D02*
X141207400Y-79498800D01*
X140307400Y-76888800D02*
X140307400Y-76558800D01*
X145747400Y-76558800D02*
X145747400Y-76888800D01*
X140307400Y-76558800D02*
X145747400Y-76558800D01*
X141327400Y-76558800D02*
X141327400Y-79498800D01*
X145747400Y-79498800D02*
X145747400Y-79168800D01*
X140307400Y-79498800D02*
X145747400Y-79498800D01*
X141087400Y-76558800D02*
X141087400Y-79498800D01*
%TO.C,SW15*%
X151775400Y-73487800D02*
X155615400Y-73487800D01*
X151775400Y-71647800D02*
X155615400Y-71647800D01*
%TO.C,R5_1K*%
X115035000Y-53372000D02*
X115035000Y-59912000D01*
X112295000Y-59912000D02*
X112625000Y-59912000D01*
X114705000Y-53372000D02*
X115035000Y-53372000D01*
X115035000Y-59912000D02*
X114705000Y-59912000D01*
X112625000Y-53372000D02*
X112295000Y-53372000D01*
X112295000Y-53372000D02*
X112295000Y-59912000D01*
%TO.C,D3*%
X119610400Y-76406400D02*
X119610400Y-79346400D01*
X118590400Y-79346400D02*
X124030400Y-79346400D01*
X124030400Y-79346400D02*
X124030400Y-79016400D01*
X118590400Y-79016400D02*
X118590400Y-79346400D01*
X119370400Y-76406400D02*
X119370400Y-79346400D01*
X119490400Y-76406400D02*
X119490400Y-79346400D01*
X118590400Y-76406400D02*
X124030400Y-76406400D01*
X124030400Y-76406400D02*
X124030400Y-76736400D01*
X118590400Y-76736400D02*
X118590400Y-76406400D01*
%TO.C,D5*%
X130278400Y-56365800D02*
X130278400Y-59305800D01*
X134698400Y-56365800D02*
X134698400Y-56695800D01*
X129258400Y-58975800D02*
X129258400Y-59305800D01*
X134698400Y-59305800D02*
X134698400Y-58975800D01*
X129258400Y-56695800D02*
X129258400Y-56365800D01*
X129258400Y-59305800D02*
X134698400Y-59305800D01*
X130158400Y-56365800D02*
X130158400Y-59305800D01*
X129258400Y-56365800D02*
X134698400Y-56365800D01*
X130038400Y-56365800D02*
X130038400Y-59305800D01*
%TO.C,D12*%
X140307400Y-88769800D02*
X145747400Y-88769800D01*
X141327400Y-85829800D02*
X141327400Y-88769800D01*
X145747400Y-85829800D02*
X145747400Y-86159800D01*
X145747400Y-88769800D02*
X145747400Y-88439800D01*
X141207400Y-85829800D02*
X141207400Y-88769800D01*
X140307400Y-85829800D02*
X145747400Y-85829800D01*
X140307400Y-86159800D02*
X140307400Y-85829800D01*
X140307400Y-88439800D02*
X140307400Y-88769800D01*
X141087400Y-85829800D02*
X141087400Y-88769800D01*
%TO.C,SW13*%
X152054800Y-52191400D02*
X155894800Y-52191400D01*
X152054800Y-54031400D02*
X155894800Y-54031400D01*
%TO.C,SW5*%
X130007600Y-53879000D02*
X133847600Y-53879000D01*
X130007600Y-52039000D02*
X133847600Y-52039000D01*
%TO.C,Keypad*%
X110995000Y-44066000D02*
X110995000Y-97666000D01*
X164592000Y-97666000D02*
X164592000Y-44066000D01*
X110995000Y-97666000D02*
X164592000Y-97666000D01*
X164592000Y-44066000D02*
X110995000Y-44066000D01*
%TO.C,SW10*%
X140929600Y-62072000D02*
X144769600Y-62072000D01*
X140929600Y-63912000D02*
X144769600Y-63912000D01*
%TO.C,SW16*%
X151775400Y-83647800D02*
X155615400Y-83647800D01*
X151775400Y-81807800D02*
X155615400Y-81807800D01*
%TO.C,R7_1K*%
X115035000Y-73819000D02*
X115035000Y-80359000D01*
X114705000Y-73819000D02*
X115035000Y-73819000D01*
X112295000Y-73819000D02*
X112295000Y-80359000D01*
X112295000Y-80359000D02*
X112625000Y-80359000D01*
X112625000Y-73819000D02*
X112295000Y-73819000D01*
X115035000Y-80359000D02*
X114705000Y-80359000D01*
%TO.C,D15*%
X151102400Y-76558800D02*
X156542400Y-76558800D01*
X156542400Y-79498800D02*
X156542400Y-79168800D01*
X151102400Y-76888800D02*
X151102400Y-76558800D01*
X156542400Y-76558800D02*
X156542400Y-76888800D01*
X151102400Y-79168800D02*
X151102400Y-79498800D01*
X152002400Y-76558800D02*
X152002400Y-79498800D01*
X151102400Y-79498800D02*
X156542400Y-79498800D01*
X151882400Y-76558800D02*
X151882400Y-79498800D01*
X152122400Y-76558800D02*
X152122400Y-79498800D01*
%TO.C,SW8*%
X130033000Y-81680800D02*
X133873000Y-81680800D01*
X130033000Y-83520800D02*
X133873000Y-83520800D01*
%TO.C,SW4*%
X119720600Y-83368400D02*
X123560600Y-83368400D01*
X119720600Y-81528400D02*
X123560600Y-81528400D01*
%TO.C,SW3*%
X119619000Y-73411600D02*
X123459000Y-73411600D01*
X119619000Y-71571600D02*
X123459000Y-71571600D01*
%TO.C,R4_330*%
X159412000Y-58388000D02*
X159742000Y-58388000D01*
X162152000Y-58388000D02*
X161822000Y-58388000D01*
X161822000Y-51848000D02*
X162152000Y-51848000D01*
X159412000Y-51848000D02*
X159412000Y-58388000D01*
X159742000Y-51848000D02*
X159412000Y-51848000D01*
X162152000Y-51848000D02*
X162152000Y-58388000D01*
%TO.C,SW2*%
X119695200Y-63607200D02*
X123535200Y-63607200D01*
X119695200Y-61767200D02*
X123535200Y-61767200D01*
%TO.C,R6_1K*%
X112625000Y-63532000D02*
X112295000Y-63532000D01*
X112295000Y-70072000D02*
X112625000Y-70072000D01*
X115035000Y-70072000D02*
X114705000Y-70072000D01*
X114705000Y-63532000D02*
X115035000Y-63532000D01*
X115035000Y-63532000D02*
X115035000Y-70072000D01*
X112295000Y-63532000D02*
X112295000Y-70072000D01*
%TO.C,D2*%
X124106600Y-69288000D02*
X124106600Y-68958000D01*
X118666600Y-66678000D02*
X118666600Y-66348000D01*
X119686600Y-66348000D02*
X119686600Y-69288000D01*
X118666600Y-68958000D02*
X118666600Y-69288000D01*
X118666600Y-66348000D02*
X124106600Y-66348000D01*
X118666600Y-69288000D02*
X124106600Y-69288000D01*
X124106600Y-66348000D02*
X124106600Y-66678000D01*
X119446600Y-66348000D02*
X119446600Y-69288000D01*
X119566600Y-66348000D02*
X119566600Y-69288000D01*
%TO.C,SW1*%
X119238000Y-52293000D02*
X123078000Y-52293000D01*
X119238000Y-54133000D02*
X123078000Y-54133000D01*
%TO.C,R8_1K*%
X115035000Y-90900000D02*
X114705000Y-90900000D01*
X115035000Y-84360000D02*
X115035000Y-90900000D01*
X112625000Y-84360000D02*
X112295000Y-84360000D01*
X112295000Y-90900000D02*
X112625000Y-90900000D01*
X114705000Y-84360000D02*
X115035000Y-84360000D01*
X112295000Y-84360000D02*
X112295000Y-90900000D01*
%TO.C,SW7*%
X130058400Y-71774800D02*
X133898400Y-71774800D01*
X130058400Y-73614800D02*
X133898400Y-73614800D01*
%TD*%
M02*
