M48
; DRILL file {KiCad (6.0.10)} date Wed Aug  9 19:08:07 2023
; FORMAT={-:-/ absolute / inch / decimal}
; #@! TF.CreationDate,2023-08-09T19:08:07-05:00
; #@! TF.GenerationSoftware,Kicad,Pcbnew,(6.0.10)
; #@! TF.FileFunction,Plated,1,2,PTH
FMAT,2
INCH
; #@! TA.AperFunction,Plated,PTH,ViaDrill
T1C0.0157
; #@! TA.AperFunction,Plated,PTH,ComponentDrill
T2C0.0394
%
G90
G05
T1
X4.9Y-2.995
X4.9Y-3.4
X4.905Y-2.595
X4.9078Y-2.1728
X5.335Y-2.175
X5.335Y-2.995
X5.335Y-3.4
X5.34Y-2.59
X5.765Y-2.175
X5.765Y-2.59
X5.765Y-2.995
X5.765Y-3.4
X6.19Y-2.585
X6.19Y-3.4
X6.1908Y-2.9942
X6.195Y-2.175
T2
X4.5351Y-1.8149
X4.6351Y-1.8149
X4.7351Y-1.8149
X4.8351Y-1.8149
X4.8949Y-3.7149
X4.9351Y-1.8149
X4.9949Y-3.7149
X5.0351Y-1.8149
X5.0949Y-3.7149
X5.1351Y-1.8149
X5.1949Y-3.7149
X5.2351Y-1.8149
X5.2949Y-3.7149
X5.3351Y-1.8149
X5.3949Y-3.7149
X5.4351Y-1.8149
X5.4949Y-3.7149
X5.5949Y-1.8149
X5.5949Y-3.7149
X5.6949Y-1.8149
X5.7949Y-1.8149
X5.7949Y-3.7149
X5.8949Y-1.8149
X5.8949Y-3.7149
X5.9949Y-1.8149
X5.9949Y-3.7149
X6.0949Y-1.8149
X6.0949Y-3.7149
X6.1949Y-1.8149
X6.1949Y-3.7149
X6.2949Y-1.8149
X6.2949Y-3.7149
T0
M30
