%TF.GenerationSoftware,KiCad,Pcbnew,(6.0.10)*%
%TF.CreationDate,2023-08-09T19:07:30-05:00*%
%TF.ProjectId,Keypad,4b657970-6164-42e6-9b69-6361645f7063,rev?*%
%TF.SameCoordinates,Original*%
%TF.FileFunction,Legend,Top*%
%TF.FilePolarity,Positive*%
%FSLAX46Y46*%
G04 Gerber Fmt 4.6, Leading zero omitted, Abs format (unit mm)*
G04 Created by KiCad (PCBNEW (6.0.10)) date 2023-08-09 19:07:30*
%MOMM*%
%LPD*%
G01*
G04 APERTURE LIST*
%ADD10C,0.150000*%
%ADD11C,0.120000*%
G04 APERTURE END LIST*
D10*
%TO.C,D2*%
X120673904Y-66619380D02*
X120673904Y-65619380D01*
X120912000Y-65619380D01*
X121054857Y-65667000D01*
X121150095Y-65762238D01*
X121197714Y-65857476D01*
X121245333Y-66047952D01*
X121245333Y-66190809D01*
X121197714Y-66381285D01*
X121150095Y-66476523D01*
X121054857Y-66571761D01*
X120912000Y-66619380D01*
X120673904Y-66619380D01*
X121626285Y-65714619D02*
X121673904Y-65667000D01*
X121769142Y-65619380D01*
X122007238Y-65619380D01*
X122102476Y-65667000D01*
X122150095Y-65714619D01*
X122197714Y-65809857D01*
X122197714Y-65905095D01*
X122150095Y-66047952D01*
X121578666Y-66619380D01*
X122197714Y-66619380D01*
%TO.C,R1_330*%
X162664380Y-84399190D02*
X162188190Y-84732523D01*
X162664380Y-84970619D02*
X161664380Y-84970619D01*
X161664380Y-84589666D01*
X161712000Y-84494428D01*
X161759619Y-84446809D01*
X161854857Y-84399190D01*
X161997714Y-84399190D01*
X162092952Y-84446809D01*
X162140571Y-84494428D01*
X162188190Y-84589666D01*
X162188190Y-84970619D01*
X162664380Y-83446809D02*
X162664380Y-84018238D01*
X162664380Y-83732523D02*
X161664380Y-83732523D01*
X161807238Y-83827761D01*
X161902476Y-83923000D01*
X161950095Y-84018238D01*
X162759619Y-83256333D02*
X162759619Y-82494428D01*
X161664380Y-82351571D02*
X161664380Y-81732523D01*
X162045333Y-82065857D01*
X162045333Y-81923000D01*
X162092952Y-81827761D01*
X162140571Y-81780142D01*
X162235809Y-81732523D01*
X162473904Y-81732523D01*
X162569142Y-81780142D01*
X162616761Y-81827761D01*
X162664380Y-81923000D01*
X162664380Y-82208714D01*
X162616761Y-82303952D01*
X162569142Y-82351571D01*
X161664380Y-81399190D02*
X161664380Y-80780142D01*
X162045333Y-81113476D01*
X162045333Y-80970619D01*
X162092952Y-80875380D01*
X162140571Y-80827761D01*
X162235809Y-80780142D01*
X162473904Y-80780142D01*
X162569142Y-80827761D01*
X162616761Y-80875380D01*
X162664380Y-80970619D01*
X162664380Y-81256333D01*
X162616761Y-81351571D01*
X162569142Y-81399190D01*
X161664380Y-80161095D02*
X161664380Y-80065857D01*
X161712000Y-79970619D01*
X161759619Y-79923000D01*
X161854857Y-79875380D01*
X162045333Y-79827761D01*
X162283428Y-79827761D01*
X162473904Y-79875380D01*
X162569142Y-79923000D01*
X162616761Y-79970619D01*
X162664380Y-80065857D01*
X162664380Y-80161095D01*
X162616761Y-80256333D01*
X162569142Y-80303952D01*
X162473904Y-80351571D01*
X162283428Y-80399190D01*
X162045333Y-80399190D01*
X161854857Y-80351571D01*
X161759619Y-80303952D01*
X161712000Y-80256333D01*
X161664380Y-80161095D01*
%TO.C,D4*%
X120546904Y-86939380D02*
X120546904Y-85939380D01*
X120785000Y-85939380D01*
X120927857Y-85987000D01*
X121023095Y-86082238D01*
X121070714Y-86177476D01*
X121118333Y-86367952D01*
X121118333Y-86510809D01*
X121070714Y-86701285D01*
X121023095Y-86796523D01*
X120927857Y-86891761D01*
X120785000Y-86939380D01*
X120546904Y-86939380D01*
X121975476Y-86272714D02*
X121975476Y-86939380D01*
X121737380Y-85891761D02*
X121499285Y-86606047D01*
X122118333Y-86606047D01*
%TO.C,D15*%
X152454714Y-76652380D02*
X152454714Y-75652380D01*
X152692809Y-75652380D01*
X152835666Y-75700000D01*
X152930904Y-75795238D01*
X152978523Y-75890476D01*
X153026142Y-76080952D01*
X153026142Y-76223809D01*
X152978523Y-76414285D01*
X152930904Y-76509523D01*
X152835666Y-76604761D01*
X152692809Y-76652380D01*
X152454714Y-76652380D01*
X153978523Y-76652380D02*
X153407095Y-76652380D01*
X153692809Y-76652380D02*
X153692809Y-75652380D01*
X153597571Y-75795238D01*
X153502333Y-75890476D01*
X153407095Y-75938095D01*
X154883285Y-75652380D02*
X154407095Y-75652380D01*
X154359476Y-76128571D01*
X154407095Y-76080952D01*
X154502333Y-76033333D01*
X154740428Y-76033333D01*
X154835666Y-76080952D01*
X154883285Y-76128571D01*
X154930904Y-76223809D01*
X154930904Y-76461904D01*
X154883285Y-76557142D01*
X154835666Y-76604761D01*
X154740428Y-76652380D01*
X154502333Y-76652380D01*
X154407095Y-76604761D01*
X154359476Y-76557142D01*
%TO.C,SW10*%
X141065476Y-59942761D02*
X141208333Y-59990380D01*
X141446428Y-59990380D01*
X141541666Y-59942761D01*
X141589285Y-59895142D01*
X141636904Y-59799904D01*
X141636904Y-59704666D01*
X141589285Y-59609428D01*
X141541666Y-59561809D01*
X141446428Y-59514190D01*
X141255952Y-59466571D01*
X141160714Y-59418952D01*
X141113095Y-59371333D01*
X141065476Y-59276095D01*
X141065476Y-59180857D01*
X141113095Y-59085619D01*
X141160714Y-59038000D01*
X141255952Y-58990380D01*
X141494047Y-58990380D01*
X141636904Y-59038000D01*
X141970238Y-58990380D02*
X142208333Y-59990380D01*
X142398809Y-59276095D01*
X142589285Y-59990380D01*
X142827380Y-58990380D01*
X143732142Y-59990380D02*
X143160714Y-59990380D01*
X143446428Y-59990380D02*
X143446428Y-58990380D01*
X143351190Y-59133238D01*
X143255952Y-59228476D01*
X143160714Y-59276095D01*
X144351190Y-58990380D02*
X144446428Y-58990380D01*
X144541666Y-59038000D01*
X144589285Y-59085619D01*
X144636904Y-59180857D01*
X144684523Y-59371333D01*
X144684523Y-59609428D01*
X144636904Y-59799904D01*
X144589285Y-59895142D01*
X144541666Y-59942761D01*
X144446428Y-59990380D01*
X144351190Y-59990380D01*
X144255952Y-59942761D01*
X144208333Y-59895142D01*
X144160714Y-59799904D01*
X144113095Y-59609428D01*
X144113095Y-59371333D01*
X144160714Y-59180857D01*
X144208333Y-59085619D01*
X144255952Y-59038000D01*
X144351190Y-58990380D01*
%TO.C,SW2*%
X119614666Y-59918761D02*
X119757523Y-59966380D01*
X119995619Y-59966380D01*
X120090857Y-59918761D01*
X120138476Y-59871142D01*
X120186095Y-59775904D01*
X120186095Y-59680666D01*
X120138476Y-59585428D01*
X120090857Y-59537809D01*
X119995619Y-59490190D01*
X119805142Y-59442571D01*
X119709904Y-59394952D01*
X119662285Y-59347333D01*
X119614666Y-59252095D01*
X119614666Y-59156857D01*
X119662285Y-59061619D01*
X119709904Y-59014000D01*
X119805142Y-58966380D01*
X120043238Y-58966380D01*
X120186095Y-59014000D01*
X120519428Y-58966380D02*
X120757523Y-59966380D01*
X120948000Y-59252095D01*
X121138476Y-59966380D01*
X121376571Y-58966380D01*
X121709904Y-59061619D02*
X121757523Y-59014000D01*
X121852761Y-58966380D01*
X122090857Y-58966380D01*
X122186095Y-59014000D01*
X122233714Y-59061619D01*
X122281333Y-59156857D01*
X122281333Y-59252095D01*
X122233714Y-59394952D01*
X121662285Y-59966380D01*
X122281333Y-59966380D01*
%TO.C,R6_1K1*%
X115260380Y-68548000D02*
X114784190Y-68881333D01*
X115260380Y-69119428D02*
X114260380Y-69119428D01*
X114260380Y-68738476D01*
X114308000Y-68643238D01*
X114355619Y-68595619D01*
X114450857Y-68548000D01*
X114593714Y-68548000D01*
X114688952Y-68595619D01*
X114736571Y-68643238D01*
X114784190Y-68738476D01*
X114784190Y-69119428D01*
X114260380Y-67690857D02*
X114260380Y-67881333D01*
X114308000Y-67976571D01*
X114355619Y-68024190D01*
X114498476Y-68119428D01*
X114688952Y-68167047D01*
X115069904Y-68167047D01*
X115165142Y-68119428D01*
X115212761Y-68071809D01*
X115260380Y-67976571D01*
X115260380Y-67786095D01*
X115212761Y-67690857D01*
X115165142Y-67643238D01*
X115069904Y-67595619D01*
X114831809Y-67595619D01*
X114736571Y-67643238D01*
X114688952Y-67690857D01*
X114641333Y-67786095D01*
X114641333Y-67976571D01*
X114688952Y-68071809D01*
X114736571Y-68119428D01*
X114831809Y-68167047D01*
X115355619Y-67405142D02*
X115355619Y-66643238D01*
X115260380Y-65881333D02*
X115260380Y-66452761D01*
X115260380Y-66167047D02*
X114260380Y-66167047D01*
X114403238Y-66262285D01*
X114498476Y-66357523D01*
X114546095Y-66452761D01*
X115260380Y-65452761D02*
X114260380Y-65452761D01*
X115260380Y-64881333D02*
X114688952Y-65309904D01*
X114260380Y-64881333D02*
X114831809Y-65452761D01*
X115260380Y-63928952D02*
X115260380Y-64500380D01*
X115260380Y-64214666D02*
X114260380Y-64214666D01*
X114403238Y-64309904D01*
X114498476Y-64405142D01*
X114546095Y-64500380D01*
%TO.C,SW15*%
X151904476Y-70229761D02*
X152047333Y-70277380D01*
X152285428Y-70277380D01*
X152380666Y-70229761D01*
X152428285Y-70182142D01*
X152475904Y-70086904D01*
X152475904Y-69991666D01*
X152428285Y-69896428D01*
X152380666Y-69848809D01*
X152285428Y-69801190D01*
X152094952Y-69753571D01*
X151999714Y-69705952D01*
X151952095Y-69658333D01*
X151904476Y-69563095D01*
X151904476Y-69467857D01*
X151952095Y-69372619D01*
X151999714Y-69325000D01*
X152094952Y-69277380D01*
X152333047Y-69277380D01*
X152475904Y-69325000D01*
X152809238Y-69277380D02*
X153047333Y-70277380D01*
X153237809Y-69563095D01*
X153428285Y-70277380D01*
X153666380Y-69277380D01*
X154571142Y-70277380D02*
X153999714Y-70277380D01*
X154285428Y-70277380D02*
X154285428Y-69277380D01*
X154190190Y-69420238D01*
X154094952Y-69515476D01*
X153999714Y-69563095D01*
X155475904Y-69277380D02*
X154999714Y-69277380D01*
X154952095Y-69753571D01*
X154999714Y-69705952D01*
X155094952Y-69658333D01*
X155333047Y-69658333D01*
X155428285Y-69705952D01*
X155475904Y-69753571D01*
X155523523Y-69848809D01*
X155523523Y-70086904D01*
X155475904Y-70182142D01*
X155428285Y-70229761D01*
X155333047Y-70277380D01*
X155094952Y-70277380D01*
X154999714Y-70229761D01*
X154952095Y-70182142D01*
%TO.C,D9*%
X142009904Y-56078380D02*
X142009904Y-55078380D01*
X142248000Y-55078380D01*
X142390857Y-55126000D01*
X142486095Y-55221238D01*
X142533714Y-55316476D01*
X142581333Y-55506952D01*
X142581333Y-55649809D01*
X142533714Y-55840285D01*
X142486095Y-55935523D01*
X142390857Y-56030761D01*
X142248000Y-56078380D01*
X142009904Y-56078380D01*
X143057523Y-56078380D02*
X143248000Y-56078380D01*
X143343238Y-56030761D01*
X143390857Y-55983142D01*
X143486095Y-55840285D01*
X143533714Y-55649809D01*
X143533714Y-55268857D01*
X143486095Y-55173619D01*
X143438476Y-55126000D01*
X143343238Y-55078380D01*
X143152761Y-55078380D01*
X143057523Y-55126000D01*
X143009904Y-55173619D01*
X142962285Y-55268857D01*
X142962285Y-55506952D01*
X143009904Y-55602190D01*
X143057523Y-55649809D01*
X143152761Y-55697428D01*
X143343238Y-55697428D01*
X143438476Y-55649809D01*
X143486095Y-55602190D01*
X143533714Y-55506952D01*
%TO.C,SW14*%
X151860476Y-59942761D02*
X152003333Y-59990380D01*
X152241428Y-59990380D01*
X152336666Y-59942761D01*
X152384285Y-59895142D01*
X152431904Y-59799904D01*
X152431904Y-59704666D01*
X152384285Y-59609428D01*
X152336666Y-59561809D01*
X152241428Y-59514190D01*
X152050952Y-59466571D01*
X151955714Y-59418952D01*
X151908095Y-59371333D01*
X151860476Y-59276095D01*
X151860476Y-59180857D01*
X151908095Y-59085619D01*
X151955714Y-59038000D01*
X152050952Y-58990380D01*
X152289047Y-58990380D01*
X152431904Y-59038000D01*
X152765238Y-58990380D02*
X153003333Y-59990380D01*
X153193809Y-59276095D01*
X153384285Y-59990380D01*
X153622380Y-58990380D01*
X154527142Y-59990380D02*
X153955714Y-59990380D01*
X154241428Y-59990380D02*
X154241428Y-58990380D01*
X154146190Y-59133238D01*
X154050952Y-59228476D01*
X153955714Y-59276095D01*
X155384285Y-59323714D02*
X155384285Y-59990380D01*
X155146190Y-58942761D02*
X154908095Y-59657047D01*
X155527142Y-59657047D01*
%TO.C,SW8*%
X130663666Y-80389761D02*
X130806523Y-80437380D01*
X131044619Y-80437380D01*
X131139857Y-80389761D01*
X131187476Y-80342142D01*
X131235095Y-80246904D01*
X131235095Y-80151666D01*
X131187476Y-80056428D01*
X131139857Y-80008809D01*
X131044619Y-79961190D01*
X130854142Y-79913571D01*
X130758904Y-79865952D01*
X130711285Y-79818333D01*
X130663666Y-79723095D01*
X130663666Y-79627857D01*
X130711285Y-79532619D01*
X130758904Y-79485000D01*
X130854142Y-79437380D01*
X131092238Y-79437380D01*
X131235095Y-79485000D01*
X131568428Y-79437380D02*
X131806523Y-80437380D01*
X131997000Y-79723095D01*
X132187476Y-80437380D01*
X132425571Y-79437380D01*
X132949380Y-79865952D02*
X132854142Y-79818333D01*
X132806523Y-79770714D01*
X132758904Y-79675476D01*
X132758904Y-79627857D01*
X132806523Y-79532619D01*
X132854142Y-79485000D01*
X132949380Y-79437380D01*
X133139857Y-79437380D01*
X133235095Y-79485000D01*
X133282714Y-79532619D01*
X133330333Y-79627857D01*
X133330333Y-79675476D01*
X133282714Y-79770714D01*
X133235095Y-79818333D01*
X133139857Y-79865952D01*
X132949380Y-79865952D01*
X132854142Y-79913571D01*
X132806523Y-79961190D01*
X132758904Y-80056428D01*
X132758904Y-80246904D01*
X132806523Y-80342142D01*
X132854142Y-80389761D01*
X132949380Y-80437380D01*
X133139857Y-80437380D01*
X133235095Y-80389761D01*
X133282714Y-80342142D01*
X133330333Y-80246904D01*
X133330333Y-80056428D01*
X133282714Y-79961190D01*
X133235095Y-79913571D01*
X133139857Y-79865952D01*
%TO.C,R2_330*%
X163266380Y-74874190D02*
X162790190Y-75207523D01*
X163266380Y-75445619D02*
X162266380Y-75445619D01*
X162266380Y-75064666D01*
X162314000Y-74969428D01*
X162361619Y-74921809D01*
X162456857Y-74874190D01*
X162599714Y-74874190D01*
X162694952Y-74921809D01*
X162742571Y-74969428D01*
X162790190Y-75064666D01*
X162790190Y-75445619D01*
X162361619Y-74493238D02*
X162314000Y-74445619D01*
X162266380Y-74350380D01*
X162266380Y-74112285D01*
X162314000Y-74017047D01*
X162361619Y-73969428D01*
X162456857Y-73921809D01*
X162552095Y-73921809D01*
X162694952Y-73969428D01*
X163266380Y-74540857D01*
X163266380Y-73921809D01*
X163361619Y-73731333D02*
X163361619Y-72969428D01*
X162266380Y-72826571D02*
X162266380Y-72207523D01*
X162647333Y-72540857D01*
X162647333Y-72398000D01*
X162694952Y-72302761D01*
X162742571Y-72255142D01*
X162837809Y-72207523D01*
X163075904Y-72207523D01*
X163171142Y-72255142D01*
X163218761Y-72302761D01*
X163266380Y-72398000D01*
X163266380Y-72683714D01*
X163218761Y-72778952D01*
X163171142Y-72826571D01*
X162266380Y-71874190D02*
X162266380Y-71255142D01*
X162647333Y-71588476D01*
X162647333Y-71445619D01*
X162694952Y-71350380D01*
X162742571Y-71302761D01*
X162837809Y-71255142D01*
X163075904Y-71255142D01*
X163171142Y-71302761D01*
X163218761Y-71350380D01*
X163266380Y-71445619D01*
X163266380Y-71731333D01*
X163218761Y-71826571D01*
X163171142Y-71874190D01*
X162266380Y-70636095D02*
X162266380Y-70540857D01*
X162314000Y-70445619D01*
X162361619Y-70398000D01*
X162456857Y-70350380D01*
X162647333Y-70302761D01*
X162885428Y-70302761D01*
X163075904Y-70350380D01*
X163171142Y-70398000D01*
X163218761Y-70445619D01*
X163266380Y-70540857D01*
X163266380Y-70636095D01*
X163218761Y-70731333D01*
X163171142Y-70778952D01*
X163075904Y-70826571D01*
X162885428Y-70874190D01*
X162647333Y-70874190D01*
X162456857Y-70826571D01*
X162361619Y-70778952D01*
X162314000Y-70731333D01*
X162266380Y-70636095D01*
%TO.C,R3_330*%
X162885380Y-65857190D02*
X162409190Y-66190523D01*
X162885380Y-66428619D02*
X161885380Y-66428619D01*
X161885380Y-66047666D01*
X161933000Y-65952428D01*
X161980619Y-65904809D01*
X162075857Y-65857190D01*
X162218714Y-65857190D01*
X162313952Y-65904809D01*
X162361571Y-65952428D01*
X162409190Y-66047666D01*
X162409190Y-66428619D01*
X161885380Y-65523857D02*
X161885380Y-64904809D01*
X162266333Y-65238142D01*
X162266333Y-65095285D01*
X162313952Y-65000047D01*
X162361571Y-64952428D01*
X162456809Y-64904809D01*
X162694904Y-64904809D01*
X162790142Y-64952428D01*
X162837761Y-65000047D01*
X162885380Y-65095285D01*
X162885380Y-65381000D01*
X162837761Y-65476238D01*
X162790142Y-65523857D01*
X162980619Y-64714333D02*
X162980619Y-63952428D01*
X161885380Y-63809571D02*
X161885380Y-63190523D01*
X162266333Y-63523857D01*
X162266333Y-63381000D01*
X162313952Y-63285761D01*
X162361571Y-63238142D01*
X162456809Y-63190523D01*
X162694904Y-63190523D01*
X162790142Y-63238142D01*
X162837761Y-63285761D01*
X162885380Y-63381000D01*
X162885380Y-63666714D01*
X162837761Y-63761952D01*
X162790142Y-63809571D01*
X161885380Y-62857190D02*
X161885380Y-62238142D01*
X162266333Y-62571476D01*
X162266333Y-62428619D01*
X162313952Y-62333380D01*
X162361571Y-62285761D01*
X162456809Y-62238142D01*
X162694904Y-62238142D01*
X162790142Y-62285761D01*
X162837761Y-62333380D01*
X162885380Y-62428619D01*
X162885380Y-62714333D01*
X162837761Y-62809571D01*
X162790142Y-62857190D01*
X161885380Y-61619095D02*
X161885380Y-61523857D01*
X161933000Y-61428619D01*
X161980619Y-61381000D01*
X162075857Y-61333380D01*
X162266333Y-61285761D01*
X162504428Y-61285761D01*
X162694904Y-61333380D01*
X162790142Y-61381000D01*
X162837761Y-61428619D01*
X162885380Y-61523857D01*
X162885380Y-61619095D01*
X162837761Y-61714333D01*
X162790142Y-61761952D01*
X162694904Y-61809571D01*
X162504428Y-61857190D01*
X162266333Y-61857190D01*
X162075857Y-61809571D01*
X161980619Y-61761952D01*
X161933000Y-61714333D01*
X161885380Y-61619095D01*
%TO.C,SW7*%
X130663666Y-70229761D02*
X130806523Y-70277380D01*
X131044619Y-70277380D01*
X131139857Y-70229761D01*
X131187476Y-70182142D01*
X131235095Y-70086904D01*
X131235095Y-69991666D01*
X131187476Y-69896428D01*
X131139857Y-69848809D01*
X131044619Y-69801190D01*
X130854142Y-69753571D01*
X130758904Y-69705952D01*
X130711285Y-69658333D01*
X130663666Y-69563095D01*
X130663666Y-69467857D01*
X130711285Y-69372619D01*
X130758904Y-69325000D01*
X130854142Y-69277380D01*
X131092238Y-69277380D01*
X131235095Y-69325000D01*
X131568428Y-69277380D02*
X131806523Y-70277380D01*
X131997000Y-69563095D01*
X132187476Y-70277380D01*
X132425571Y-69277380D01*
X132711285Y-69277380D02*
X133377952Y-69277380D01*
X132949380Y-70277380D01*
%TO.C,D1*%
X120546904Y-55951380D02*
X120546904Y-54951380D01*
X120785000Y-54951380D01*
X120927857Y-54999000D01*
X121023095Y-55094238D01*
X121070714Y-55189476D01*
X121118333Y-55379952D01*
X121118333Y-55522809D01*
X121070714Y-55713285D01*
X121023095Y-55808523D01*
X120927857Y-55903761D01*
X120785000Y-55951380D01*
X120546904Y-55951380D01*
X122070714Y-55951380D02*
X121499285Y-55951380D01*
X121785000Y-55951380D02*
X121785000Y-54951380D01*
X121689761Y-55094238D01*
X121594523Y-55189476D01*
X121499285Y-55237095D01*
%TO.C,SW13*%
X151860476Y-49274761D02*
X152003333Y-49322380D01*
X152241428Y-49322380D01*
X152336666Y-49274761D01*
X152384285Y-49227142D01*
X152431904Y-49131904D01*
X152431904Y-49036666D01*
X152384285Y-48941428D01*
X152336666Y-48893809D01*
X152241428Y-48846190D01*
X152050952Y-48798571D01*
X151955714Y-48750952D01*
X151908095Y-48703333D01*
X151860476Y-48608095D01*
X151860476Y-48512857D01*
X151908095Y-48417619D01*
X151955714Y-48370000D01*
X152050952Y-48322380D01*
X152289047Y-48322380D01*
X152431904Y-48370000D01*
X152765238Y-48322380D02*
X153003333Y-49322380D01*
X153193809Y-48608095D01*
X153384285Y-49322380D01*
X153622380Y-48322380D01*
X154527142Y-49322380D02*
X153955714Y-49322380D01*
X154241428Y-49322380D02*
X154241428Y-48322380D01*
X154146190Y-48465238D01*
X154050952Y-48560476D01*
X153955714Y-48608095D01*
X154860476Y-48322380D02*
X155479523Y-48322380D01*
X155146190Y-48703333D01*
X155289047Y-48703333D01*
X155384285Y-48750952D01*
X155431904Y-48798571D01*
X155479523Y-48893809D01*
X155479523Y-49131904D01*
X155431904Y-49227142D01*
X155384285Y-49274761D01*
X155289047Y-49322380D01*
X155003333Y-49322380D01*
X154908095Y-49274761D01*
X154860476Y-49227142D01*
%TO.C,D13*%
X152455714Y-55951380D02*
X152455714Y-54951380D01*
X152693809Y-54951380D01*
X152836666Y-54999000D01*
X152931904Y-55094238D01*
X152979523Y-55189476D01*
X153027142Y-55379952D01*
X153027142Y-55522809D01*
X152979523Y-55713285D01*
X152931904Y-55808523D01*
X152836666Y-55903761D01*
X152693809Y-55951380D01*
X152455714Y-55951380D01*
X153979523Y-55951380D02*
X153408095Y-55951380D01*
X153693809Y-55951380D02*
X153693809Y-54951380D01*
X153598571Y-55094238D01*
X153503333Y-55189476D01*
X153408095Y-55237095D01*
X154312857Y-54951380D02*
X154931904Y-54951380D01*
X154598571Y-55332333D01*
X154741428Y-55332333D01*
X154836666Y-55379952D01*
X154884285Y-55427571D01*
X154931904Y-55522809D01*
X154931904Y-55760904D01*
X154884285Y-55856142D01*
X154836666Y-55903761D01*
X154741428Y-55951380D01*
X154455714Y-55951380D01*
X154360476Y-55903761D01*
X154312857Y-55856142D01*
%TO.C,R5_1K1*%
X115387380Y-57753000D02*
X114911190Y-58086333D01*
X115387380Y-58324428D02*
X114387380Y-58324428D01*
X114387380Y-57943476D01*
X114435000Y-57848238D01*
X114482619Y-57800619D01*
X114577857Y-57753000D01*
X114720714Y-57753000D01*
X114815952Y-57800619D01*
X114863571Y-57848238D01*
X114911190Y-57943476D01*
X114911190Y-58324428D01*
X114387380Y-56848238D02*
X114387380Y-57324428D01*
X114863571Y-57372047D01*
X114815952Y-57324428D01*
X114768333Y-57229190D01*
X114768333Y-56991095D01*
X114815952Y-56895857D01*
X114863571Y-56848238D01*
X114958809Y-56800619D01*
X115196904Y-56800619D01*
X115292142Y-56848238D01*
X115339761Y-56895857D01*
X115387380Y-56991095D01*
X115387380Y-57229190D01*
X115339761Y-57324428D01*
X115292142Y-57372047D01*
X115482619Y-56610142D02*
X115482619Y-55848238D01*
X115387380Y-55086333D02*
X115387380Y-55657761D01*
X115387380Y-55372047D02*
X114387380Y-55372047D01*
X114530238Y-55467285D01*
X114625476Y-55562523D01*
X114673095Y-55657761D01*
X115387380Y-54657761D02*
X114387380Y-54657761D01*
X115387380Y-54086333D02*
X114815952Y-54514904D01*
X114387380Y-54086333D02*
X114958809Y-54657761D01*
X115387380Y-53133952D02*
X115387380Y-53705380D01*
X115387380Y-53419666D02*
X114387380Y-53419666D01*
X114530238Y-53514904D01*
X114625476Y-53610142D01*
X114673095Y-53705380D01*
%TO.C,D7*%
X131468904Y-76779380D02*
X131468904Y-75779380D01*
X131707000Y-75779380D01*
X131849857Y-75827000D01*
X131945095Y-75922238D01*
X131992714Y-76017476D01*
X132040333Y-76207952D01*
X132040333Y-76350809D01*
X131992714Y-76541285D01*
X131945095Y-76636523D01*
X131849857Y-76731761D01*
X131707000Y-76779380D01*
X131468904Y-76779380D01*
X132373666Y-75779380D02*
X133040333Y-75779380D01*
X132611761Y-76779380D01*
%TO.C,D5*%
X131213904Y-55951380D02*
X131213904Y-54951380D01*
X131452000Y-54951380D01*
X131594857Y-54999000D01*
X131690095Y-55094238D01*
X131737714Y-55189476D01*
X131785333Y-55379952D01*
X131785333Y-55522809D01*
X131737714Y-55713285D01*
X131690095Y-55808523D01*
X131594857Y-55903761D01*
X131452000Y-55951380D01*
X131213904Y-55951380D01*
X132690095Y-54951380D02*
X132213904Y-54951380D01*
X132166285Y-55427571D01*
X132213904Y-55379952D01*
X132309142Y-55332333D01*
X132547238Y-55332333D01*
X132642476Y-55379952D01*
X132690095Y-55427571D01*
X132737714Y-55522809D01*
X132737714Y-55760904D01*
X132690095Y-55856142D01*
X132642476Y-55903761D01*
X132547238Y-55951380D01*
X132309142Y-55951380D01*
X132213904Y-55903761D01*
X132166285Y-55856142D01*
%TO.C,SW6*%
X130663666Y-59918761D02*
X130806523Y-59966380D01*
X131044619Y-59966380D01*
X131139857Y-59918761D01*
X131187476Y-59871142D01*
X131235095Y-59775904D01*
X131235095Y-59680666D01*
X131187476Y-59585428D01*
X131139857Y-59537809D01*
X131044619Y-59490190D01*
X130854142Y-59442571D01*
X130758904Y-59394952D01*
X130711285Y-59347333D01*
X130663666Y-59252095D01*
X130663666Y-59156857D01*
X130711285Y-59061619D01*
X130758904Y-59014000D01*
X130854142Y-58966380D01*
X131092238Y-58966380D01*
X131235095Y-59014000D01*
X131568428Y-58966380D02*
X131806523Y-59966380D01*
X131997000Y-59252095D01*
X132187476Y-59966380D01*
X132425571Y-58966380D01*
X133235095Y-58966380D02*
X133044619Y-58966380D01*
X132949380Y-59014000D01*
X132901761Y-59061619D01*
X132806523Y-59204476D01*
X132758904Y-59394952D01*
X132758904Y-59775904D01*
X132806523Y-59871142D01*
X132854142Y-59918761D01*
X132949380Y-59966380D01*
X133139857Y-59966380D01*
X133235095Y-59918761D01*
X133282714Y-59871142D01*
X133330333Y-59775904D01*
X133330333Y-59537809D01*
X133282714Y-59442571D01*
X133235095Y-59394952D01*
X133139857Y-59347333D01*
X132949380Y-59347333D01*
X132854142Y-59394952D01*
X132806523Y-59442571D01*
X132758904Y-59537809D01*
%TO.C,D3*%
X120546904Y-76652380D02*
X120546904Y-75652380D01*
X120785000Y-75652380D01*
X120927857Y-75700000D01*
X121023095Y-75795238D01*
X121070714Y-75890476D01*
X121118333Y-76080952D01*
X121118333Y-76223809D01*
X121070714Y-76414285D01*
X121023095Y-76509523D01*
X120927857Y-76604761D01*
X120785000Y-76652380D01*
X120546904Y-76652380D01*
X121451666Y-75652380D02*
X122070714Y-75652380D01*
X121737380Y-76033333D01*
X121880238Y-76033333D01*
X121975476Y-76080952D01*
X122023095Y-76128571D01*
X122070714Y-76223809D01*
X122070714Y-76461904D01*
X122023095Y-76557142D01*
X121975476Y-76604761D01*
X121880238Y-76652380D01*
X121594523Y-76652380D01*
X121499285Y-76604761D01*
X121451666Y-76557142D01*
%TO.C,D12*%
X141787714Y-86812380D02*
X141787714Y-85812380D01*
X142025809Y-85812380D01*
X142168666Y-85860000D01*
X142263904Y-85955238D01*
X142311523Y-86050476D01*
X142359142Y-86240952D01*
X142359142Y-86383809D01*
X142311523Y-86574285D01*
X142263904Y-86669523D01*
X142168666Y-86764761D01*
X142025809Y-86812380D01*
X141787714Y-86812380D01*
X143311523Y-86812380D02*
X142740095Y-86812380D01*
X143025809Y-86812380D02*
X143025809Y-85812380D01*
X142930571Y-85955238D01*
X142835333Y-86050476D01*
X142740095Y-86098095D01*
X143692476Y-85907619D02*
X143740095Y-85860000D01*
X143835333Y-85812380D01*
X144073428Y-85812380D01*
X144168666Y-85860000D01*
X144216285Y-85907619D01*
X144263904Y-86002857D01*
X144263904Y-86098095D01*
X144216285Y-86240952D01*
X143644857Y-86812380D01*
X144263904Y-86812380D01*
%TO.C,D16*%
X152455714Y-86939380D02*
X152455714Y-85939380D01*
X152693809Y-85939380D01*
X152836666Y-85987000D01*
X152931904Y-86082238D01*
X152979523Y-86177476D01*
X153027142Y-86367952D01*
X153027142Y-86510809D01*
X152979523Y-86701285D01*
X152931904Y-86796523D01*
X152836666Y-86891761D01*
X152693809Y-86939380D01*
X152455714Y-86939380D01*
X153979523Y-86939380D02*
X153408095Y-86939380D01*
X153693809Y-86939380D02*
X153693809Y-85939380D01*
X153598571Y-86082238D01*
X153503333Y-86177476D01*
X153408095Y-86225095D01*
X154836666Y-85939380D02*
X154646190Y-85939380D01*
X154550952Y-85987000D01*
X154503333Y-86034619D01*
X154408095Y-86177476D01*
X154360476Y-86367952D01*
X154360476Y-86748904D01*
X154408095Y-86844142D01*
X154455714Y-86891761D01*
X154550952Y-86939380D01*
X154741428Y-86939380D01*
X154836666Y-86891761D01*
X154884285Y-86844142D01*
X154931904Y-86748904D01*
X154931904Y-86510809D01*
X154884285Y-86415571D01*
X154836666Y-86367952D01*
X154741428Y-86320333D01*
X154550952Y-86320333D01*
X154455714Y-86367952D01*
X154408095Y-86415571D01*
X154360476Y-86510809D01*
%TO.C,D6*%
X131214904Y-66746380D02*
X131214904Y-65746380D01*
X131453000Y-65746380D01*
X131595857Y-65794000D01*
X131691095Y-65889238D01*
X131738714Y-65984476D01*
X131786333Y-66174952D01*
X131786333Y-66317809D01*
X131738714Y-66508285D01*
X131691095Y-66603523D01*
X131595857Y-66698761D01*
X131453000Y-66746380D01*
X131214904Y-66746380D01*
X132643476Y-65746380D02*
X132453000Y-65746380D01*
X132357761Y-65794000D01*
X132310142Y-65841619D01*
X132214904Y-65984476D01*
X132167285Y-66174952D01*
X132167285Y-66555904D01*
X132214904Y-66651142D01*
X132262523Y-66698761D01*
X132357761Y-66746380D01*
X132548238Y-66746380D01*
X132643476Y-66698761D01*
X132691095Y-66651142D01*
X132738714Y-66555904D01*
X132738714Y-66317809D01*
X132691095Y-66222571D01*
X132643476Y-66174952D01*
X132548238Y-66127333D01*
X132357761Y-66127333D01*
X132262523Y-66174952D01*
X132214904Y-66222571D01*
X132167285Y-66317809D01*
%TO.C,SW11*%
X141065476Y-70229761D02*
X141208333Y-70277380D01*
X141446428Y-70277380D01*
X141541666Y-70229761D01*
X141589285Y-70182142D01*
X141636904Y-70086904D01*
X141636904Y-69991666D01*
X141589285Y-69896428D01*
X141541666Y-69848809D01*
X141446428Y-69801190D01*
X141255952Y-69753571D01*
X141160714Y-69705952D01*
X141113095Y-69658333D01*
X141065476Y-69563095D01*
X141065476Y-69467857D01*
X141113095Y-69372619D01*
X141160714Y-69325000D01*
X141255952Y-69277380D01*
X141494047Y-69277380D01*
X141636904Y-69325000D01*
X141970238Y-69277380D02*
X142208333Y-70277380D01*
X142398809Y-69563095D01*
X142589285Y-70277380D01*
X142827380Y-69277380D01*
X143732142Y-70277380D02*
X143160714Y-70277380D01*
X143446428Y-70277380D02*
X143446428Y-69277380D01*
X143351190Y-69420238D01*
X143255952Y-69515476D01*
X143160714Y-69563095D01*
X144684523Y-70277380D02*
X144113095Y-70277380D01*
X144398809Y-70277380D02*
X144398809Y-69277380D01*
X144303571Y-69420238D01*
X144208333Y-69515476D01*
X144113095Y-69563095D01*
%TO.C,SW12*%
X141065476Y-80389761D02*
X141208333Y-80437380D01*
X141446428Y-80437380D01*
X141541666Y-80389761D01*
X141589285Y-80342142D01*
X141636904Y-80246904D01*
X141636904Y-80151666D01*
X141589285Y-80056428D01*
X141541666Y-80008809D01*
X141446428Y-79961190D01*
X141255952Y-79913571D01*
X141160714Y-79865952D01*
X141113095Y-79818333D01*
X141065476Y-79723095D01*
X141065476Y-79627857D01*
X141113095Y-79532619D01*
X141160714Y-79485000D01*
X141255952Y-79437380D01*
X141494047Y-79437380D01*
X141636904Y-79485000D01*
X141970238Y-79437380D02*
X142208333Y-80437380D01*
X142398809Y-79723095D01*
X142589285Y-80437380D01*
X142827380Y-79437380D01*
X143732142Y-80437380D02*
X143160714Y-80437380D01*
X143446428Y-80437380D02*
X143446428Y-79437380D01*
X143351190Y-79580238D01*
X143255952Y-79675476D01*
X143160714Y-79723095D01*
X144113095Y-79532619D02*
X144160714Y-79485000D01*
X144255952Y-79437380D01*
X144494047Y-79437380D01*
X144589285Y-79485000D01*
X144636904Y-79532619D01*
X144684523Y-79627857D01*
X144684523Y-79723095D01*
X144636904Y-79865952D01*
X144065476Y-80437380D01*
X144684523Y-80437380D01*
%TO.C,SW5*%
X130619666Y-49298761D02*
X130762523Y-49346380D01*
X131000619Y-49346380D01*
X131095857Y-49298761D01*
X131143476Y-49251142D01*
X131191095Y-49155904D01*
X131191095Y-49060666D01*
X131143476Y-48965428D01*
X131095857Y-48917809D01*
X131000619Y-48870190D01*
X130810142Y-48822571D01*
X130714904Y-48774952D01*
X130667285Y-48727333D01*
X130619666Y-48632095D01*
X130619666Y-48536857D01*
X130667285Y-48441619D01*
X130714904Y-48394000D01*
X130810142Y-48346380D01*
X131048238Y-48346380D01*
X131191095Y-48394000D01*
X131524428Y-48346380D02*
X131762523Y-49346380D01*
X131953000Y-48632095D01*
X132143476Y-49346380D01*
X132381571Y-48346380D01*
X133238714Y-48346380D02*
X132762523Y-48346380D01*
X132714904Y-48822571D01*
X132762523Y-48774952D01*
X132857761Y-48727333D01*
X133095857Y-48727333D01*
X133191095Y-48774952D01*
X133238714Y-48822571D01*
X133286333Y-48917809D01*
X133286333Y-49155904D01*
X133238714Y-49251142D01*
X133191095Y-49298761D01*
X133095857Y-49346380D01*
X132857761Y-49346380D01*
X132762523Y-49298761D01*
X132714904Y-49251142D01*
%TO.C,SW9*%
X141458666Y-49401761D02*
X141601523Y-49449380D01*
X141839619Y-49449380D01*
X141934857Y-49401761D01*
X141982476Y-49354142D01*
X142030095Y-49258904D01*
X142030095Y-49163666D01*
X141982476Y-49068428D01*
X141934857Y-49020809D01*
X141839619Y-48973190D01*
X141649142Y-48925571D01*
X141553904Y-48877952D01*
X141506285Y-48830333D01*
X141458666Y-48735095D01*
X141458666Y-48639857D01*
X141506285Y-48544619D01*
X141553904Y-48497000D01*
X141649142Y-48449380D01*
X141887238Y-48449380D01*
X142030095Y-48497000D01*
X142363428Y-48449380D02*
X142601523Y-49449380D01*
X142792000Y-48735095D01*
X142982476Y-49449380D01*
X143220571Y-48449380D01*
X143649142Y-49449380D02*
X143839619Y-49449380D01*
X143934857Y-49401761D01*
X143982476Y-49354142D01*
X144077714Y-49211285D01*
X144125333Y-49020809D01*
X144125333Y-48639857D01*
X144077714Y-48544619D01*
X144030095Y-48497000D01*
X143934857Y-48449380D01*
X143744380Y-48449380D01*
X143649142Y-48497000D01*
X143601523Y-48544619D01*
X143553904Y-48639857D01*
X143553904Y-48877952D01*
X143601523Y-48973190D01*
X143649142Y-49020809D01*
X143744380Y-49068428D01*
X143934857Y-49068428D01*
X144030095Y-49020809D01*
X144077714Y-48973190D01*
X144125333Y-48877952D01*
%TO.C,R7_1K1*%
X115039380Y-79470000D02*
X114563190Y-79803333D01*
X115039380Y-80041428D02*
X114039380Y-80041428D01*
X114039380Y-79660476D01*
X114087000Y-79565238D01*
X114134619Y-79517619D01*
X114229857Y-79470000D01*
X114372714Y-79470000D01*
X114467952Y-79517619D01*
X114515571Y-79565238D01*
X114563190Y-79660476D01*
X114563190Y-80041428D01*
X114039380Y-79136666D02*
X114039380Y-78470000D01*
X115039380Y-78898571D01*
X115134619Y-78327142D02*
X115134619Y-77565238D01*
X115039380Y-76803333D02*
X115039380Y-77374761D01*
X115039380Y-77089047D02*
X114039380Y-77089047D01*
X114182238Y-77184285D01*
X114277476Y-77279523D01*
X114325095Y-77374761D01*
X115039380Y-76374761D02*
X114039380Y-76374761D01*
X115039380Y-75803333D02*
X114467952Y-76231904D01*
X114039380Y-75803333D02*
X114610809Y-76374761D01*
X115039380Y-74850952D02*
X115039380Y-75422380D01*
X115039380Y-75136666D02*
X114039380Y-75136666D01*
X114182238Y-75231904D01*
X114277476Y-75327142D01*
X114325095Y-75422380D01*
%TO.C,SW16*%
X151860476Y-80389761D02*
X152003333Y-80437380D01*
X152241428Y-80437380D01*
X152336666Y-80389761D01*
X152384285Y-80342142D01*
X152431904Y-80246904D01*
X152431904Y-80151666D01*
X152384285Y-80056428D01*
X152336666Y-80008809D01*
X152241428Y-79961190D01*
X152050952Y-79913571D01*
X151955714Y-79865952D01*
X151908095Y-79818333D01*
X151860476Y-79723095D01*
X151860476Y-79627857D01*
X151908095Y-79532619D01*
X151955714Y-79485000D01*
X152050952Y-79437380D01*
X152289047Y-79437380D01*
X152431904Y-79485000D01*
X152765238Y-79437380D02*
X153003333Y-80437380D01*
X153193809Y-79723095D01*
X153384285Y-80437380D01*
X153622380Y-79437380D01*
X154527142Y-80437380D02*
X153955714Y-80437380D01*
X154241428Y-80437380D02*
X154241428Y-79437380D01*
X154146190Y-79580238D01*
X154050952Y-79675476D01*
X153955714Y-79723095D01*
X155384285Y-79437380D02*
X155193809Y-79437380D01*
X155098571Y-79485000D01*
X155050952Y-79532619D01*
X154955714Y-79675476D01*
X154908095Y-79865952D01*
X154908095Y-80246904D01*
X154955714Y-80342142D01*
X155003333Y-80389761D01*
X155098571Y-80437380D01*
X155289047Y-80437380D01*
X155384285Y-80389761D01*
X155431904Y-80342142D01*
X155479523Y-80246904D01*
X155479523Y-80008809D01*
X155431904Y-79913571D01*
X155384285Y-79865952D01*
X155289047Y-79818333D01*
X155098571Y-79818333D01*
X155003333Y-79865952D01*
X154955714Y-79913571D01*
X154908095Y-80008809D01*
%TO.C,D10*%
X141660714Y-66619380D02*
X141660714Y-65619380D01*
X141898809Y-65619380D01*
X142041666Y-65667000D01*
X142136904Y-65762238D01*
X142184523Y-65857476D01*
X142232142Y-66047952D01*
X142232142Y-66190809D01*
X142184523Y-66381285D01*
X142136904Y-66476523D01*
X142041666Y-66571761D01*
X141898809Y-66619380D01*
X141660714Y-66619380D01*
X143184523Y-66619380D02*
X142613095Y-66619380D01*
X142898809Y-66619380D02*
X142898809Y-65619380D01*
X142803571Y-65762238D01*
X142708333Y-65857476D01*
X142613095Y-65905095D01*
X143803571Y-65619380D02*
X143898809Y-65619380D01*
X143994047Y-65667000D01*
X144041666Y-65714619D01*
X144089285Y-65809857D01*
X144136904Y-66000333D01*
X144136904Y-66238428D01*
X144089285Y-66428904D01*
X144041666Y-66524142D01*
X143994047Y-66571761D01*
X143898809Y-66619380D01*
X143803571Y-66619380D01*
X143708333Y-66571761D01*
X143660714Y-66524142D01*
X143613095Y-66428904D01*
X143565476Y-66238428D01*
X143565476Y-66000333D01*
X143613095Y-65809857D01*
X143660714Y-65714619D01*
X143708333Y-65667000D01*
X143803571Y-65619380D01*
%TO.C,D8*%
X131468904Y-86939380D02*
X131468904Y-85939380D01*
X131707000Y-85939380D01*
X131849857Y-85987000D01*
X131945095Y-86082238D01*
X131992714Y-86177476D01*
X132040333Y-86367952D01*
X132040333Y-86510809D01*
X131992714Y-86701285D01*
X131945095Y-86796523D01*
X131849857Y-86891761D01*
X131707000Y-86939380D01*
X131468904Y-86939380D01*
X132611761Y-86367952D02*
X132516523Y-86320333D01*
X132468904Y-86272714D01*
X132421285Y-86177476D01*
X132421285Y-86129857D01*
X132468904Y-86034619D01*
X132516523Y-85987000D01*
X132611761Y-85939380D01*
X132802238Y-85939380D01*
X132897476Y-85987000D01*
X132945095Y-86034619D01*
X132992714Y-86129857D01*
X132992714Y-86177476D01*
X132945095Y-86272714D01*
X132897476Y-86320333D01*
X132802238Y-86367952D01*
X132611761Y-86367952D01*
X132516523Y-86415571D01*
X132468904Y-86463190D01*
X132421285Y-86558428D01*
X132421285Y-86748904D01*
X132468904Y-86844142D01*
X132516523Y-86891761D01*
X132611761Y-86939380D01*
X132802238Y-86939380D01*
X132897476Y-86891761D01*
X132945095Y-86844142D01*
X132992714Y-86748904D01*
X132992714Y-86558428D01*
X132945095Y-86463190D01*
X132897476Y-86415571D01*
X132802238Y-86367952D01*
%TO.C,R4_330*%
X162664380Y-54173190D02*
X162188190Y-54506523D01*
X162664380Y-54744619D02*
X161664380Y-54744619D01*
X161664380Y-54363666D01*
X161712000Y-54268428D01*
X161759619Y-54220809D01*
X161854857Y-54173190D01*
X161997714Y-54173190D01*
X162092952Y-54220809D01*
X162140571Y-54268428D01*
X162188190Y-54363666D01*
X162188190Y-54744619D01*
X161997714Y-53316047D02*
X162664380Y-53316047D01*
X161616761Y-53554142D02*
X162331047Y-53792238D01*
X162331047Y-53173190D01*
X162759619Y-53030333D02*
X162759619Y-52268428D01*
X161664380Y-52125571D02*
X161664380Y-51506523D01*
X162045333Y-51839857D01*
X162045333Y-51697000D01*
X162092952Y-51601761D01*
X162140571Y-51554142D01*
X162235809Y-51506523D01*
X162473904Y-51506523D01*
X162569142Y-51554142D01*
X162616761Y-51601761D01*
X162664380Y-51697000D01*
X162664380Y-51982714D01*
X162616761Y-52077952D01*
X162569142Y-52125571D01*
X161664380Y-51173190D02*
X161664380Y-50554142D01*
X162045333Y-50887476D01*
X162045333Y-50744619D01*
X162092952Y-50649380D01*
X162140571Y-50601761D01*
X162235809Y-50554142D01*
X162473904Y-50554142D01*
X162569142Y-50601761D01*
X162616761Y-50649380D01*
X162664380Y-50744619D01*
X162664380Y-51030333D01*
X162616761Y-51125571D01*
X162569142Y-51173190D01*
X161664380Y-49935095D02*
X161664380Y-49839857D01*
X161712000Y-49744619D01*
X161759619Y-49697000D01*
X161854857Y-49649380D01*
X162045333Y-49601761D01*
X162283428Y-49601761D01*
X162473904Y-49649380D01*
X162569142Y-49697000D01*
X162616761Y-49744619D01*
X162664380Y-49839857D01*
X162664380Y-49935095D01*
X162616761Y-50030333D01*
X162569142Y-50077952D01*
X162473904Y-50125571D01*
X162283428Y-50173190D01*
X162045333Y-50173190D01*
X161854857Y-50125571D01*
X161759619Y-50077952D01*
X161712000Y-50030333D01*
X161664380Y-49935095D01*
%TO.C,R8_1K1*%
X115260380Y-89122000D02*
X114784190Y-89455333D01*
X115260380Y-89693428D02*
X114260380Y-89693428D01*
X114260380Y-89312476D01*
X114308000Y-89217238D01*
X114355619Y-89169619D01*
X114450857Y-89122000D01*
X114593714Y-89122000D01*
X114688952Y-89169619D01*
X114736571Y-89217238D01*
X114784190Y-89312476D01*
X114784190Y-89693428D01*
X114688952Y-88550571D02*
X114641333Y-88645809D01*
X114593714Y-88693428D01*
X114498476Y-88741047D01*
X114450857Y-88741047D01*
X114355619Y-88693428D01*
X114308000Y-88645809D01*
X114260380Y-88550571D01*
X114260380Y-88360095D01*
X114308000Y-88264857D01*
X114355619Y-88217238D01*
X114450857Y-88169619D01*
X114498476Y-88169619D01*
X114593714Y-88217238D01*
X114641333Y-88264857D01*
X114688952Y-88360095D01*
X114688952Y-88550571D01*
X114736571Y-88645809D01*
X114784190Y-88693428D01*
X114879428Y-88741047D01*
X115069904Y-88741047D01*
X115165142Y-88693428D01*
X115212761Y-88645809D01*
X115260380Y-88550571D01*
X115260380Y-88360095D01*
X115212761Y-88264857D01*
X115165142Y-88217238D01*
X115069904Y-88169619D01*
X114879428Y-88169619D01*
X114784190Y-88217238D01*
X114736571Y-88264857D01*
X114688952Y-88360095D01*
X115355619Y-87979142D02*
X115355619Y-87217238D01*
X115260380Y-86455333D02*
X115260380Y-87026761D01*
X115260380Y-86741047D02*
X114260380Y-86741047D01*
X114403238Y-86836285D01*
X114498476Y-86931523D01*
X114546095Y-87026761D01*
X115260380Y-86026761D02*
X114260380Y-86026761D01*
X115260380Y-85455333D02*
X114688952Y-85883904D01*
X114260380Y-85455333D02*
X114831809Y-86026761D01*
X115260380Y-84502952D02*
X115260380Y-85074380D01*
X115260380Y-84788666D02*
X114260380Y-84788666D01*
X114403238Y-84883904D01*
X114498476Y-84979142D01*
X114546095Y-85074380D01*
%TO.C,D11*%
X141914714Y-76652380D02*
X141914714Y-75652380D01*
X142152809Y-75652380D01*
X142295666Y-75700000D01*
X142390904Y-75795238D01*
X142438523Y-75890476D01*
X142486142Y-76080952D01*
X142486142Y-76223809D01*
X142438523Y-76414285D01*
X142390904Y-76509523D01*
X142295666Y-76604761D01*
X142152809Y-76652380D01*
X141914714Y-76652380D01*
X143438523Y-76652380D02*
X142867095Y-76652380D01*
X143152809Y-76652380D02*
X143152809Y-75652380D01*
X143057571Y-75795238D01*
X142962333Y-75890476D01*
X142867095Y-75938095D01*
X144390904Y-76652380D02*
X143819476Y-76652380D01*
X144105190Y-76652380D02*
X144105190Y-75652380D01*
X144009952Y-75795238D01*
X143914714Y-75890476D01*
X143819476Y-75938095D01*
%TO.C,SW1*%
X121768666Y-49196761D02*
X121911523Y-49244380D01*
X122149619Y-49244380D01*
X122244857Y-49196761D01*
X122292476Y-49149142D01*
X122340095Y-49053904D01*
X122340095Y-48958666D01*
X122292476Y-48863428D01*
X122244857Y-48815809D01*
X122149619Y-48768190D01*
X121959142Y-48720571D01*
X121863904Y-48672952D01*
X121816285Y-48625333D01*
X121768666Y-48530095D01*
X121768666Y-48434857D01*
X121816285Y-48339619D01*
X121863904Y-48292000D01*
X121959142Y-48244380D01*
X122197238Y-48244380D01*
X122340095Y-48292000D01*
X122673428Y-48244380D02*
X122911523Y-49244380D01*
X123102000Y-48530095D01*
X123292476Y-49244380D01*
X123530571Y-48244380D01*
X124435333Y-49244380D02*
X123863904Y-49244380D01*
X124149619Y-49244380D02*
X124149619Y-48244380D01*
X124054380Y-48387238D01*
X123959142Y-48482476D01*
X123863904Y-48530095D01*
%TO.C,D14*%
X152455714Y-66619380D02*
X152455714Y-65619380D01*
X152693809Y-65619380D01*
X152836666Y-65667000D01*
X152931904Y-65762238D01*
X152979523Y-65857476D01*
X153027142Y-66047952D01*
X153027142Y-66190809D01*
X152979523Y-66381285D01*
X152931904Y-66476523D01*
X152836666Y-66571761D01*
X152693809Y-66619380D01*
X152455714Y-66619380D01*
X153979523Y-66619380D02*
X153408095Y-66619380D01*
X153693809Y-66619380D02*
X153693809Y-65619380D01*
X153598571Y-65762238D01*
X153503333Y-65857476D01*
X153408095Y-65905095D01*
X154836666Y-65952714D02*
X154836666Y-66619380D01*
X154598571Y-65571761D02*
X154360476Y-66286047D01*
X154979523Y-66286047D01*
%TO.C,SW3*%
X119653666Y-70205761D02*
X119796523Y-70253380D01*
X120034619Y-70253380D01*
X120129857Y-70205761D01*
X120177476Y-70158142D01*
X120225095Y-70062904D01*
X120225095Y-69967666D01*
X120177476Y-69872428D01*
X120129857Y-69824809D01*
X120034619Y-69777190D01*
X119844142Y-69729571D01*
X119748904Y-69681952D01*
X119701285Y-69634333D01*
X119653666Y-69539095D01*
X119653666Y-69443857D01*
X119701285Y-69348619D01*
X119748904Y-69301000D01*
X119844142Y-69253380D01*
X120082238Y-69253380D01*
X120225095Y-69301000D01*
X120558428Y-69253380D02*
X120796523Y-70253380D01*
X120987000Y-69539095D01*
X121177476Y-70253380D01*
X121415571Y-69253380D01*
X121701285Y-69253380D02*
X122320333Y-69253380D01*
X121987000Y-69634333D01*
X122129857Y-69634333D01*
X122225095Y-69681952D01*
X122272714Y-69729571D01*
X122320333Y-69824809D01*
X122320333Y-70062904D01*
X122272714Y-70158142D01*
X122225095Y-70205761D01*
X122129857Y-70253380D01*
X121844142Y-70253380D01*
X121748904Y-70205761D01*
X121701285Y-70158142D01*
%TO.C,SW4*%
X119570666Y-80389761D02*
X119713523Y-80437380D01*
X119951619Y-80437380D01*
X120046857Y-80389761D01*
X120094476Y-80342142D01*
X120142095Y-80246904D01*
X120142095Y-80151666D01*
X120094476Y-80056428D01*
X120046857Y-80008809D01*
X119951619Y-79961190D01*
X119761142Y-79913571D01*
X119665904Y-79865952D01*
X119618285Y-79818333D01*
X119570666Y-79723095D01*
X119570666Y-79627857D01*
X119618285Y-79532619D01*
X119665904Y-79485000D01*
X119761142Y-79437380D01*
X119999238Y-79437380D01*
X120142095Y-79485000D01*
X120475428Y-79437380D02*
X120713523Y-80437380D01*
X120904000Y-79723095D01*
X121094476Y-80437380D01*
X121332571Y-79437380D01*
X122142095Y-79770714D02*
X122142095Y-80437380D01*
X121904000Y-79389761D02*
X121665904Y-80104047D01*
X122284952Y-80104047D01*
D11*
%TO.C,D2*%
X123662000Y-68945000D02*
X119762000Y-68945000D01*
X123662000Y-68945000D02*
X123662000Y-66945000D01*
X123662000Y-66945000D02*
X119762000Y-66945000D01*
%TO.C,R1_330*%
X160259500Y-82185742D02*
X160259500Y-82660258D01*
X161304500Y-82185742D02*
X161304500Y-82660258D01*
%TO.C,D4*%
X123535000Y-89138000D02*
X123535000Y-87138000D01*
X123535000Y-87138000D02*
X119635000Y-87138000D01*
X123535000Y-89138000D02*
X119635000Y-89138000D01*
%TO.C,D15*%
X155920000Y-76978000D02*
X152020000Y-76978000D01*
X155920000Y-78978000D02*
X155920000Y-76978000D01*
X155920000Y-78978000D02*
X152020000Y-78978000D01*
%TO.C,SW10*%
X140505000Y-65108000D02*
X145245000Y-65108000D01*
X145245000Y-65108000D02*
X145245000Y-64708000D01*
X140505000Y-63768000D02*
X140505000Y-61708000D01*
X140505000Y-60368000D02*
X140505000Y-60768000D01*
X140505000Y-65108000D02*
X140505000Y-64708000D01*
X145245000Y-60368000D02*
X145245000Y-60768000D01*
X140505000Y-60368000D02*
X145245000Y-60368000D01*
X145245000Y-63768000D02*
X145245000Y-61708000D01*
%TO.C,SW2*%
X118578000Y-65084000D02*
X118578000Y-64684000D01*
X118578000Y-65084000D02*
X123318000Y-65084000D01*
X123318000Y-60344000D02*
X123318000Y-60744000D01*
X123318000Y-65084000D02*
X123318000Y-64684000D01*
X118578000Y-60344000D02*
X118578000Y-60744000D01*
X123318000Y-63744000D02*
X123318000Y-61684000D01*
X118578000Y-60344000D02*
X123318000Y-60344000D01*
X118578000Y-63744000D02*
X118578000Y-61684000D01*
%TO.C,R6_1K1*%
X112634500Y-66310742D02*
X112634500Y-66785258D01*
X113679500Y-66310742D02*
X113679500Y-66785258D01*
%TO.C,SW15*%
X151344000Y-70655000D02*
X156084000Y-70655000D01*
X151344000Y-75395000D02*
X151344000Y-74995000D01*
X156084000Y-74055000D02*
X156084000Y-71995000D01*
X151344000Y-75395000D02*
X156084000Y-75395000D01*
X151344000Y-74055000D02*
X151344000Y-71995000D01*
X156084000Y-75395000D02*
X156084000Y-74995000D01*
X156084000Y-70655000D02*
X156084000Y-71055000D01*
X151344000Y-70655000D02*
X151344000Y-71055000D01*
%TO.C,D9*%
X144998000Y-58404000D02*
X141098000Y-58404000D01*
X144998000Y-56404000D02*
X141098000Y-56404000D01*
X144998000Y-58404000D02*
X144998000Y-56404000D01*
%TO.C,SW14*%
X151300000Y-60368000D02*
X151300000Y-60768000D01*
X156040000Y-60368000D02*
X156040000Y-60768000D01*
X151300000Y-60368000D02*
X156040000Y-60368000D01*
X151300000Y-63768000D02*
X151300000Y-61708000D01*
X151300000Y-65108000D02*
X151300000Y-64708000D01*
X156040000Y-63768000D02*
X156040000Y-61708000D01*
X151300000Y-65108000D02*
X156040000Y-65108000D01*
X156040000Y-65108000D02*
X156040000Y-64708000D01*
%TO.C,SW8*%
X129627000Y-84215000D02*
X129627000Y-82155000D01*
X129627000Y-85555000D02*
X134367000Y-85555000D01*
X134367000Y-84215000D02*
X134367000Y-82155000D01*
X134367000Y-85555000D02*
X134367000Y-85155000D01*
X129627000Y-80815000D02*
X134367000Y-80815000D01*
X129627000Y-80815000D02*
X129627000Y-81215000D01*
X134367000Y-80815000D02*
X134367000Y-81215000D01*
X129627000Y-85555000D02*
X129627000Y-85155000D01*
%TO.C,R2_330*%
X160259500Y-71898742D02*
X160259500Y-72373258D01*
X161304500Y-71898742D02*
X161304500Y-72373258D01*
%TO.C,R3_330*%
X161304500Y-62500742D02*
X161304500Y-62975258D01*
X160259500Y-62500742D02*
X160259500Y-62975258D01*
%TO.C,SW7*%
X129627000Y-70655000D02*
X134367000Y-70655000D01*
X129627000Y-75395000D02*
X129627000Y-74995000D01*
X129627000Y-74055000D02*
X129627000Y-71995000D01*
X134367000Y-75395000D02*
X134367000Y-74995000D01*
X134367000Y-70655000D02*
X134367000Y-71055000D01*
X129627000Y-70655000D02*
X129627000Y-71055000D01*
X134367000Y-74055000D02*
X134367000Y-71995000D01*
X129627000Y-75395000D02*
X134367000Y-75395000D01*
%TO.C,D1*%
X123535000Y-56404000D02*
X119635000Y-56404000D01*
X123535000Y-58404000D02*
X119635000Y-58404000D01*
X123535000Y-58404000D02*
X123535000Y-56404000D01*
%TO.C,SW13*%
X156040000Y-54440000D02*
X156040000Y-54040000D01*
X156040000Y-53100000D02*
X156040000Y-51040000D01*
X151300000Y-49700000D02*
X151300000Y-50100000D01*
X151300000Y-54440000D02*
X151300000Y-54040000D01*
X151300000Y-49700000D02*
X156040000Y-49700000D01*
X151300000Y-53100000D02*
X151300000Y-51040000D01*
X156040000Y-49700000D02*
X156040000Y-50100000D01*
X151300000Y-54440000D02*
X156040000Y-54440000D01*
%TO.C,D13*%
X155920000Y-58531000D02*
X155920000Y-56531000D01*
X155920000Y-56531000D02*
X152020000Y-56531000D01*
X155920000Y-58531000D02*
X152020000Y-58531000D01*
%TO.C,R5_1K1*%
X112634500Y-56658742D02*
X112634500Y-57133258D01*
X113679500Y-56658742D02*
X113679500Y-57133258D01*
%TO.C,D7*%
X134457000Y-78978000D02*
X134457000Y-76978000D01*
X134457000Y-76978000D02*
X130557000Y-76978000D01*
X134457000Y-78978000D02*
X130557000Y-78978000D01*
%TO.C,D5*%
X134203000Y-58404000D02*
X134203000Y-56404000D01*
X134203000Y-58404000D02*
X130303000Y-58404000D01*
X134203000Y-56404000D02*
X130303000Y-56404000D01*
%TO.C,SW6*%
X129627000Y-60344000D02*
X129627000Y-60744000D01*
X129627000Y-60344000D02*
X134367000Y-60344000D01*
X129627000Y-65084000D02*
X129627000Y-64684000D01*
X129627000Y-63744000D02*
X129627000Y-61684000D01*
X129627000Y-65084000D02*
X134367000Y-65084000D01*
X134367000Y-65084000D02*
X134367000Y-64684000D01*
X134367000Y-63744000D02*
X134367000Y-61684000D01*
X134367000Y-60344000D02*
X134367000Y-60744000D01*
%TO.C,U1*%
X111120000Y-43429000D02*
X111120000Y-97029000D01*
X164717000Y-97029000D02*
X164717000Y-43429000D01*
X111120000Y-97029000D02*
X164717000Y-97029000D01*
X164717000Y-43429000D02*
X111120000Y-43429000D01*
%TO.C,D3*%
X123535000Y-78978000D02*
X119635000Y-78978000D01*
X123535000Y-76978000D02*
X119635000Y-76978000D01*
X123535000Y-78978000D02*
X123535000Y-76978000D01*
%TO.C,D12*%
X145252000Y-89138000D02*
X145252000Y-87138000D01*
X145252000Y-89138000D02*
X141352000Y-89138000D01*
X145252000Y-87138000D02*
X141352000Y-87138000D01*
%TO.C,D16*%
X155920000Y-89138000D02*
X152020000Y-89138000D01*
X155920000Y-89138000D02*
X155920000Y-87138000D01*
X155920000Y-87138000D02*
X152020000Y-87138000D01*
%TO.C,D6*%
X134203000Y-66945000D02*
X130303000Y-66945000D01*
X134203000Y-68945000D02*
X130303000Y-68945000D01*
X134203000Y-68945000D02*
X134203000Y-66945000D01*
%TO.C,SW11*%
X140505000Y-74055000D02*
X140505000Y-71995000D01*
X145245000Y-75395000D02*
X145245000Y-74995000D01*
X145245000Y-70655000D02*
X145245000Y-71055000D01*
X140505000Y-75395000D02*
X140505000Y-74995000D01*
X140505000Y-70655000D02*
X140505000Y-71055000D01*
X140505000Y-75395000D02*
X145245000Y-75395000D01*
X145245000Y-74055000D02*
X145245000Y-71995000D01*
X140505000Y-70655000D02*
X145245000Y-70655000D01*
%TO.C,SW12*%
X140505000Y-80815000D02*
X145245000Y-80815000D01*
X140505000Y-80815000D02*
X140505000Y-81215000D01*
X140505000Y-84215000D02*
X140505000Y-82155000D01*
X140505000Y-85555000D02*
X145245000Y-85555000D01*
X145245000Y-84215000D02*
X145245000Y-82155000D01*
X145245000Y-85555000D02*
X145245000Y-85155000D01*
X140505000Y-85555000D02*
X140505000Y-85155000D01*
X145245000Y-80815000D02*
X145245000Y-81215000D01*
%TO.C,SW5*%
X129583000Y-54464000D02*
X134323000Y-54464000D01*
X134323000Y-53124000D02*
X134323000Y-51064000D01*
X129583000Y-49724000D02*
X129583000Y-50124000D01*
X129583000Y-53124000D02*
X129583000Y-51064000D01*
X129583000Y-54464000D02*
X129583000Y-54064000D01*
X134323000Y-54464000D02*
X134323000Y-54064000D01*
X129583000Y-49724000D02*
X134323000Y-49724000D01*
X134323000Y-49724000D02*
X134323000Y-50124000D01*
%TO.C,SW9*%
X140422000Y-49827000D02*
X145162000Y-49827000D01*
X145162000Y-49827000D02*
X145162000Y-50227000D01*
X145162000Y-53227000D02*
X145162000Y-51167000D01*
X140422000Y-49827000D02*
X140422000Y-50227000D01*
X140422000Y-53227000D02*
X140422000Y-51167000D01*
X145162000Y-54567000D02*
X145162000Y-54167000D01*
X140422000Y-54567000D02*
X140422000Y-54167000D01*
X140422000Y-54567000D02*
X145162000Y-54567000D01*
%TO.C,R7_1K1*%
X113679500Y-77232742D02*
X113679500Y-77707258D01*
X112634500Y-77232742D02*
X112634500Y-77707258D01*
%TO.C,SW16*%
X156040000Y-85555000D02*
X156040000Y-85155000D01*
X156040000Y-84215000D02*
X156040000Y-82155000D01*
X151300000Y-85555000D02*
X151300000Y-85155000D01*
X151300000Y-80815000D02*
X156040000Y-80815000D01*
X151300000Y-85555000D02*
X156040000Y-85555000D01*
X151300000Y-84215000D02*
X151300000Y-82155000D01*
X151300000Y-80815000D02*
X151300000Y-81215000D01*
X156040000Y-80815000D02*
X156040000Y-81215000D01*
%TO.C,D10*%
X145125000Y-68945000D02*
X141225000Y-68945000D01*
X145125000Y-66945000D02*
X141225000Y-66945000D01*
X145125000Y-68945000D02*
X145125000Y-66945000D01*
%TO.C,D8*%
X134457000Y-89138000D02*
X134457000Y-87138000D01*
X134457000Y-89138000D02*
X130557000Y-89138000D01*
X134457000Y-87138000D02*
X130557000Y-87138000D01*
%TO.C,R4_330*%
X160259500Y-51959742D02*
X160259500Y-52434258D01*
X161304500Y-51959742D02*
X161304500Y-52434258D01*
%TO.C,R8_1K1*%
X113679500Y-87519742D02*
X113679500Y-87994258D01*
X112634500Y-87519742D02*
X112634500Y-87994258D01*
%TO.C,D11*%
X145379000Y-76978000D02*
X141479000Y-76978000D01*
X145379000Y-78978000D02*
X141479000Y-78978000D01*
X145379000Y-78978000D02*
X145379000Y-76978000D01*
%TO.C,SW1*%
X123357000Y-49724000D02*
X123357000Y-50124000D01*
X123357000Y-54464000D02*
X123357000Y-54064000D01*
X118617000Y-49724000D02*
X118617000Y-50124000D01*
X118617000Y-49724000D02*
X123357000Y-49724000D01*
X123357000Y-53124000D02*
X123357000Y-51064000D01*
X118617000Y-54464000D02*
X118617000Y-54064000D01*
X118617000Y-53124000D02*
X118617000Y-51064000D01*
X118617000Y-54464000D02*
X123357000Y-54464000D01*
%TO.C,D14*%
X155920000Y-66945000D02*
X152020000Y-66945000D01*
X155920000Y-68945000D02*
X152020000Y-68945000D01*
X155920000Y-68945000D02*
X155920000Y-66945000D01*
%TO.C,SW3*%
X118617000Y-74031000D02*
X118617000Y-71971000D01*
X118617000Y-75371000D02*
X118617000Y-74971000D01*
X118617000Y-75371000D02*
X123357000Y-75371000D01*
X123357000Y-74031000D02*
X123357000Y-71971000D01*
X123357000Y-75371000D02*
X123357000Y-74971000D01*
X123357000Y-70631000D02*
X123357000Y-71031000D01*
X118617000Y-70631000D02*
X123357000Y-70631000D01*
X118617000Y-70631000D02*
X118617000Y-71031000D01*
%TO.C,SW4*%
X118534000Y-85555000D02*
X123274000Y-85555000D01*
X118534000Y-84215000D02*
X118534000Y-82155000D01*
X118534000Y-80815000D02*
X118534000Y-81215000D01*
X118534000Y-80815000D02*
X123274000Y-80815000D01*
X123274000Y-84215000D02*
X123274000Y-82155000D01*
X123274000Y-80815000D02*
X123274000Y-81215000D01*
X123274000Y-85555000D02*
X123274000Y-85155000D01*
X118534000Y-85555000D02*
X118534000Y-85155000D01*
%TD*%
M02*
